<svg width="60" height="60" viewBox="0 0 60 60" fill="none" xmlns="http://www.w3.org/2000/svg">
<g clip-path="url(#clip0_26_89)">
<path d="M30 0C13.5 0 0 13.5 0 30C0 46.5 13.5 60 30 60C46.5 60 60 46.5 60 30C60 13.5 46.5 0 30 0Z" fill="#1876D2"/>
<path d="M33 45H29.2953C17.3758 44.697 9 34.0909 9 20H16.2483C16.2483 30.303 21.8859 37.8788 29.4564 38.1818H33V45Z" fill="white"/>
<path d="M26 20V44.5455C27.0652 44.8485 28.2826 45 29.5 45H33V20H26Z" fill="white"/>
<path d="M50 45H42.9592C42.9592 44.2 41.551 41.32 38.8912 39.24C34.9796 36.2 30.7551 36.2 28.0952 36.2H27V29H28.0952C31.068 29 37.483 29 43.2721 33.64C46.7143 36.2 50 40.84 50 45Z" fill="white"/>
<path d="M28.1079 38H27V30.5688H28.1079C30.482 30.5688 34.4389 30.5688 37.9209 27.2661C40.295 24.789 41.8777 21.3211 41.8777 20H49C49 24.2936 45.8345 29.4128 42.8273 32.5505C37.2878 38 31.1151 38 28.1079 38Z" fill="white"/>
</g>
<defs>
<clipPath id="clip0_26_89">
<rect width="60" height="60" fill="white"/>
</clipPath>
</defs>
</svg>
