<svg width="60" height="60" viewBox="0 0 60 60" fill="none" xmlns="http://www.w3.org/2000/svg">
<g clip-path="url(#clip0_26_95)">
<path d="M0 30C0 13.4315 13.4315 0 30 0C46.5685 0 60 13.4315 60 30C60 46.5685 46.5685 60 30 60C13.4315 60 0 46.5685 0 30Z" fill="#F9F9F9"/>
<path d="M58.6759 28.6713C58.6811 28.6713 58.6851 28.6713 58.6903 28.6713C59.0557 28.6713 59.4041 28.5181 59.6517 28.2496C59.9031 27.9771 60.0276 27.6117 59.9948 27.2423C58.6798 12.7778 47.2286 1.32192 32.7636 0.00422109C32.3968 -0.0245953 32.0275 0.0946 31.7551 0.347399C31.4826 0.598887 31.3307 0.953853 31.3346 1.32454C31.5625 20.5477 34.0982 28.4028 58.6759 28.6713ZM58.6759 31.3277C34.0982 31.5962 31.5638 39.4513 31.3359 58.6744C31.332 59.0451 31.4839 59.4001 31.7564 59.6516C32 59.8756 32.3183 60 32.6457 60C32.685 60 32.7256 59.9987 32.7649 59.9948C47.2299 58.6771 58.6811 47.2225 59.9948 32.7567C60.0276 32.3873 59.9044 32.0219 59.6517 31.7494C59.3989 31.477 59.0465 31.3421 58.6759 31.3277ZM27.1486 0.0107704C12.7295 1.36645 1.31491 12.8197 0.00646048 27.2449C-0.0262835 27.6143 0.0968341 27.9797 0.349618 28.2522C0.597163 28.5207 0.946869 28.6726 1.31098 28.6726C1.31622 28.6726 1.32146 28.6726 1.3267 28.6726C25.8232 28.391 28.3523 20.5399 28.5828 1.32978C28.5867 0.959092 28.4335 0.602817 28.1611 0.351328C27.886 0.0998394 27.518 -0.0232853 27.1486 0.0107704ZM1.32539 31.3264C0.918054 31.2805 0.598473 31.4744 0.348308 31.7468C0.0968342 32.0193 -0.0275932 32.3847 0.00515082 32.7541C1.3136 47.1793 12.7295 58.6325 27.1486 59.9882C27.1892 59.9921 27.2311 59.9935 27.2717 59.9935C27.5992 59.9935 27.9161 59.8703 28.1598 59.6463C28.4322 59.3949 28.5854 59.0386 28.5815 58.6679C28.351 39.4591 25.8232 31.608 1.32539 31.3264Z" fill="black"/>
</g>
<defs>
<clipPath id="clip0_26_95">
<rect width="60" height="60" fill="white"/>
</clipPath>
</defs>
</svg>
