<svg width="60" height="60" viewBox="0 0 60 60" fill="none" xmlns="http://www.w3.org/2000/svg">
<path d="M23.7772 39.6987V21.375C23.7772 20.5861 24.6479 20.1079 25.3137 20.5311L39.4728 29.5322C40.085 29.9214 40.0921 30.8124 39.4863 31.2113L25.3271 40.5339C24.6622 40.9717 23.7772 40.4947 23.7772 39.6987Z" fill="#CDCDCD"/>
<path d="M56.9089 12.856C59.6421 15.503 60 19.709 60 30C60 40.291 59.6421 44.497 56.9089 47.144C54.1746 49.791 51.3279 50 30 50C8.67214 50 5.82536 49.791 3.09107 47.144C0.357857 44.497 0 40.291 0 30C0 19.709 0.357857 15.503 3.09107 12.856C5.82429 10.209 8.67214 10 30 10C51.3279 10 54.1746 10.209 56.9089 12.856ZM25.14 38.476L39.7146 30.432L25.14 22.514V38.476Z" fill="#DC2A54"/>
</svg>
