<svg width="133" height="39" viewBox="0 0 133 39" fill="none" xmlns="http://www.w3.org/2000/svg">
<path d="M1.2642 4.45455H4.33239V13.6023H4.45312L10.7386 4.45455H13.4304V19H10.3551V9.84517H10.2486L3.92756 19H1.2642V4.45455ZM23.5067 12.3381V14.7173H17.8107V12.3381H23.5067ZM18.805 8.09091V19H15.9144V8.09091H18.805ZM25.4031 8.09091V19H22.5337V8.09091H25.4031ZM26.8981 22.196V16.5994H27.7362C27.9776 16.4479 28.1718 16.2064 28.3185 15.875C28.4701 15.5436 28.5932 15.1529 28.6879 14.7031C28.7873 14.2533 28.863 13.768 28.9151 13.2472C28.9719 12.7216 29.0217 12.1913 29.0643 11.6562L29.3484 8.09091H37.7148V16.5994H39.4052V22.196H36.5217V19H29.8526V22.196H26.8981ZM30.7475 16.5994H34.8597V10.4205H31.9194L31.8058 11.6562C31.7253 12.821 31.6093 13.8106 31.4577 14.625C31.3062 15.4347 31.0695 16.0928 30.7475 16.5994ZM47.1982 12.402V14.8026H41.282V12.402H47.1982ZM43.6186 8.09091V19H40.6001V8.09091H43.6186ZM50.4652 19.2131C49.3857 19.2131 48.4529 18.9716 47.6669 18.4886C46.8809 18.0057 46.2749 17.3381 45.8487 16.4858C45.4273 15.6335 45.2166 14.6558 45.2166 13.5526C45.2166 12.4493 45.4273 11.4763 45.8487 10.6335C46.2749 9.79072 46.8809 9.13258 47.6669 8.65909C48.4529 8.18561 49.3857 7.94886 50.4652 7.94886C51.5495 7.94886 52.4822 8.18561 53.2635 8.65909C54.0495 9.13258 54.6532 9.79072 55.0746 10.6335C55.5007 11.4763 55.7138 12.4493 55.7138 13.5526C55.7138 14.6558 55.5007 15.6335 55.0746 16.4858C54.6532 17.3381 54.0495 18.0057 53.2635 18.4886C52.4822 18.9716 51.5495 19.2131 50.4652 19.2131ZM50.4652 16.7699C51.0286 16.7699 51.4832 16.6326 51.8288 16.358C52.1745 16.0786 52.4278 15.6974 52.5888 15.2145C52.7498 14.7268 52.8303 14.1728 52.8303 13.5526C52.8303 12.9323 52.7498 12.383 52.5888 11.9048C52.4278 11.4219 52.1745 11.0431 51.8288 10.7685C51.4832 10.4938 51.0286 10.3565 50.4652 10.3565C49.9065 10.3565 49.4519 10.4938 49.1016 10.7685C48.7512 11.0384 48.4931 11.4124 48.3274 11.8906C48.1664 12.3688 48.0859 12.9228 48.0859 13.5526C48.0859 14.1776 48.1664 14.7315 48.3274 15.2145C48.4931 15.6974 48.7512 16.0786 49.1016 16.358C49.4519 16.6326 49.9065 16.7699 50.4652 16.7699ZM57.7699 19V8.09091H60.7955V12.3239H61.6477L64.6165 8.09091H68.1676L64.3111 13.5028L68.2102 19H64.6165L61.9247 15.1293H60.7955V19H57.7699ZM73.9684 19.2131C72.8652 19.2131 71.9111 18.9787 71.1062 18.5099C70.306 18.0365 69.6881 17.3783 69.2525 16.5355C68.8169 15.688 68.5991 14.7055 68.5991 13.5881C68.5991 12.4612 68.8169 11.4763 69.2525 10.6335C69.6881 9.78598 70.306 9.12784 71.1062 8.65909C71.9111 8.18561 72.8652 7.94886 73.9684 7.94886C75.0716 7.94886 76.0233 8.18561 76.8235 8.65909C77.6284 9.12784 78.2487 9.78598 78.6843 10.6335C79.1199 11.4763 79.3377 12.4612 79.3377 13.5881C79.3377 14.7055 79.1199 15.688 78.6843 16.5355C78.2487 17.3783 77.6284 18.0365 76.8235 18.5099C76.0233 18.9787 75.0716 19.2131 73.9684 19.2131ZM73.9826 16.8693C74.4845 16.8693 74.9035 16.7273 75.2397 16.4432C75.5759 16.1544 75.8292 15.7614 75.9996 15.2642C76.1748 14.767 76.2624 14.2012 76.2624 13.5668C76.2624 12.9323 76.1748 12.3665 75.9996 11.8693C75.8292 11.3722 75.5759 10.9792 75.2397 10.6903C74.9035 10.4015 74.4845 10.2571 73.9826 10.2571C73.476 10.2571 73.0498 10.4015 72.7042 10.6903C72.3633 10.9792 72.1052 11.3722 71.93 11.8693C71.7596 12.3665 71.6744 12.9323 71.6744 13.5668C71.6744 14.2012 71.7596 14.767 71.93 15.2642C72.1052 15.7614 72.3633 16.1544 72.7042 16.4432C73.0498 16.7273 73.476 16.8693 73.9826 16.8693ZM81.305 19V8.09091H85.957C87.3017 8.09091 88.3647 8.34659 89.146 8.85795C89.9272 9.36932 90.3178 10.0961 90.3178 11.0384C90.3178 11.6302 90.0977 12.1226 89.6573 12.5156C89.217 12.9086 88.6062 13.1738 87.8249 13.3111C88.4783 13.3584 89.0347 13.5076 89.494 13.7585C89.958 14.0047 90.3107 14.3243 90.5522 14.7173C90.7984 15.1103 90.9215 15.5459 90.9215 16.0241C90.9215 16.6444 90.7558 17.1771 90.4244 17.6222C90.0977 18.0672 89.6171 18.4081 88.9826 18.6449C88.3529 18.8816 87.5835 19 86.6744 19H81.305ZM84.1246 16.7344H86.6744C87.0958 16.7344 87.4248 16.6349 87.6616 16.4361C87.9031 16.2325 88.0238 15.9555 88.0238 15.6051C88.0238 15.2169 87.9031 14.9115 87.6616 14.6889C87.4248 14.4664 87.0958 14.3551 86.6744 14.3551H84.1246V16.7344ZM84.1246 12.5795H86.021C86.324 12.5795 86.582 12.5369 86.7951 12.4517C87.0129 12.3617 87.1786 12.2339 87.2923 12.0682C87.4106 11.9025 87.4698 11.706 87.4698 11.4787C87.4698 11.1425 87.3349 10.8797 87.065 10.6903C86.7951 10.5009 86.4258 10.4062 85.957 10.4062H84.1246V12.5795ZM100.021 19H96.7259L101.747 4.45455H105.71L110.724 19H107.429L103.786 7.77841H103.672L100.021 19ZM99.8153 13.2827H107.599V15.6832H99.8153V13.2827ZM114.187 19.1847C113.718 19.1847 113.316 19.0189 112.979 18.6875C112.648 18.3513 112.482 17.9489 112.482 17.4801C112.482 17.0161 112.648 16.6184 112.979 16.2869C113.316 15.9555 113.718 15.7898 114.187 15.7898C114.641 15.7898 115.039 15.9555 115.38 16.2869C115.721 16.6184 115.891 17.0161 115.891 17.4801C115.891 17.7926 115.811 18.0791 115.65 18.3395C115.494 18.5952 115.288 18.8011 115.032 18.9574C114.776 19.1089 114.495 19.1847 114.187 19.1847ZM117.644 22.5085V16.5497H118.631C118.967 16.3082 119.275 15.9673 119.554 15.527C119.834 15.0819 120.073 14.4688 120.272 13.6875C120.471 12.9015 120.613 11.8741 120.698 10.6051L121.11 4.45455H130.733V16.5497H132.324V22.4943H129.37V19H120.598V22.5085H117.644ZM122.182 16.5497H127.779V6.99006H123.88L123.652 10.6051C123.591 11.5663 123.489 12.4186 123.347 13.1619C123.21 13.9053 123.042 14.5563 122.843 15.1151C122.649 15.669 122.428 16.1473 122.182 16.5497Z" fill="#E1E1E1"/>
<path d="M2.60369 27.2727V36H0.758523V27.2727H2.60369ZM3.78942 28.794V27.2727H10.957V28.794H8.28516V36H6.46129V28.794H3.78942ZM15.5721 31.696V33.1364H11.592V31.696H15.5721ZM20.0763 36.1278C19.4059 36.1278 18.8292 35.9858 18.3462 35.7017C17.8661 35.4148 17.4968 35.017 17.2383 34.5085C16.9826 34 16.8548 33.4148 16.8548 32.7528C16.8548 32.0824 16.984 31.4943 17.2425 30.9886C17.5039 30.4801 17.8746 30.0838 18.3548 29.7997C18.8349 29.5128 19.4059 29.3693 20.0678 29.3693C20.6388 29.3693 21.1388 29.473 21.5678 29.6804C21.9968 29.8878 22.3363 30.179 22.5863 30.554C22.8363 30.929 22.9741 31.3693 22.9996 31.875H21.2866C21.2383 31.5483 21.1104 31.2855 20.9031 31.0866C20.6985 30.8849 20.43 30.7841 20.0977 30.7841C19.8164 30.7841 19.5707 30.8608 19.3604 31.0142C19.1531 31.1648 18.9911 31.3849 18.8746 31.6747C18.7582 31.9645 18.6999 32.3153 18.6999 32.7273C18.6999 33.1449 18.7567 33.5 18.8704 33.7926C18.9869 34.0852 19.1502 34.3082 19.3604 34.4616C19.5707 34.6151 19.8164 34.6918 20.0977 34.6918C20.305 34.6918 20.4911 34.6491 20.6559 34.5639C20.8235 34.4787 20.9613 34.3551 21.0692 34.1932C21.18 34.0284 21.2525 33.831 21.2866 33.6009H22.9996C22.9712 34.1009 22.8349 34.5412 22.5906 34.9219C22.3491 35.2997 22.0153 35.5952 21.5891 35.8082C21.163 36.0213 20.6587 36.1278 20.0763 36.1278ZM24.1619 36V29.4545H29.8849V36H28.1506V30.8821H25.875V36H24.1619ZM34.3168 36.1278C33.6435 36.1278 33.0639 35.9915 32.5781 35.7188C32.0952 35.4432 31.723 35.054 31.4616 34.5511C31.2003 34.0455 31.0696 33.4474 31.0696 32.7571C31.0696 32.0838 31.2003 31.4929 31.4616 30.9844C31.723 30.4759 32.0909 30.0795 32.5653 29.7955C33.0426 29.5114 33.6023 29.3693 34.2443 29.3693C34.6761 29.3693 35.0781 29.4389 35.4503 29.5781C35.8253 29.7145 36.152 29.9205 36.4304 30.196C36.7116 30.4716 36.9304 30.8182 37.0866 31.2358C37.2429 31.6506 37.321 32.1364 37.321 32.6932V33.1918H31.794V32.0668H35.6122C35.6122 31.8054 35.5554 31.5739 35.4418 31.3722C35.3281 31.1705 35.1705 31.0128 34.9688 30.8991C34.7699 30.7827 34.5384 30.7244 34.2741 30.7244C33.9986 30.7244 33.7543 30.7884 33.5412 30.9162C33.331 31.0412 33.1662 31.2102 33.0469 31.4233C32.9276 31.6335 32.8665 31.8679 32.8636 32.1264V33.196C32.8636 33.5199 32.9233 33.7997 33.0426 34.0355C33.1648 34.2713 33.3366 34.4531 33.5582 34.581C33.7798 34.7088 34.0426 34.7727 34.3466 34.7727C34.5483 34.7727 34.733 34.7443 34.9006 34.6875C35.0682 34.6307 35.2116 34.5455 35.331 34.4318C35.4503 34.3182 35.5412 34.179 35.6037 34.0142L37.2827 34.125C37.1974 34.5284 37.0227 34.8807 36.7585 35.1818C36.4972 35.4801 36.1591 35.7131 35.7443 35.8807C35.3324 36.0455 34.8565 36.1278 34.3168 36.1278ZM44.2287 29.4545V34.7472H45.2727V38.1051H43.5085V36H38.5057V29.4545H40.2401V34.5724H42.5156V29.4545H44.2287ZM48.1268 33.6051L50.4833 29.4545H52.2731V36H50.543V31.8366L48.195 36H46.3924V29.4545H48.1268V33.6051ZM55.5948 36.1236C55.1772 36.1236 54.805 36.0511 54.4783 35.9062C54.1516 35.7585 53.8931 35.5412 53.7028 35.2543C53.5153 34.9645 53.4215 34.6037 53.4215 34.1719C53.4215 33.8082 53.4883 33.5028 53.6218 33.2557C53.7553 33.0085 53.9371 32.8097 54.1673 32.6591C54.3974 32.5085 54.6587 32.3949 54.9513 32.3182C55.2468 32.2415 55.5565 32.1875 55.8803 32.1562C56.261 32.1165 56.5678 32.0795 56.8008 32.0455C57.0337 32.0085 57.2028 31.9545 57.3079 31.8835C57.413 31.8125 57.4656 31.7074 57.4656 31.5682V31.5426C57.4656 31.2727 57.3803 31.0639 57.2099 30.9162C57.0423 30.7685 56.8036 30.6946 56.494 30.6946C56.1673 30.6946 55.9073 30.767 55.7141 30.9119C55.521 31.054 55.3931 31.233 55.3306 31.4489L53.6516 31.3125C53.7369 30.9148 53.9045 30.571 54.1545 30.2812C54.4045 29.9886 54.7269 29.7642 55.1218 29.608C55.5195 29.4489 55.9798 29.3693 56.5025 29.3693C56.8661 29.3693 57.2141 29.4119 57.5465 29.4972C57.8817 29.5824 58.1786 29.7145 58.4371 29.8935C58.6985 30.0724 58.9045 30.3026 59.055 30.5838C59.2056 30.8622 59.2809 31.196 59.2809 31.5852V36H57.5593V35.0923H57.5082C57.4031 35.2969 57.2624 35.4773 57.0863 35.6335C56.9102 35.7869 56.6985 35.9077 56.4513 35.9957C56.2042 36.081 55.9187 36.1236 55.5948 36.1236ZM56.1147 34.8707C56.3817 34.8707 56.6175 34.8182 56.8221 34.7131C57.0266 34.6051 57.1871 34.4602 57.3036 34.2784C57.4201 34.0966 57.4783 33.8906 57.4783 33.6605V32.9659C57.4215 33.0028 57.3434 33.0369 57.244 33.0682C57.1474 33.0966 57.038 33.1236 56.9158 33.1491C56.7937 33.1719 56.6715 33.1932 56.5494 33.2131C56.4272 33.2301 56.3164 33.2457 56.217 33.2599C56.0039 33.2912 55.8178 33.3409 55.6587 33.4091C55.4996 33.4773 55.3761 33.5696 55.288 33.6861C55.1999 33.7997 55.1559 33.9418 55.1559 34.1122C55.1559 34.3594 55.2454 34.5483 55.4244 34.679C55.6062 34.8068 55.8363 34.8707 56.1147 34.8707ZM60.3058 36L60.2972 34.5597H60.5146C60.668 34.5597 60.8001 34.5227 60.9109 34.4489C61.0245 34.3722 61.1183 34.2486 61.1921 34.0781C61.266 33.9077 61.3242 33.6818 61.3668 33.4006C61.4094 33.1165 61.4379 32.767 61.4521 32.3523L61.5586 29.4545H66.5359V36H64.8058V30.8821H63.1907L63.0884 32.8807C63.0629 33.429 62.9961 33.9006 62.8881 34.2955C62.783 34.6903 62.6367 35.0142 62.4492 35.267C62.2617 35.517 62.0359 35.7017 61.7717 35.821C61.5075 35.9403 61.2006 36 60.8512 36H60.3058ZM69.6776 33.6051L72.0341 29.4545H73.8239V36H72.0938V31.8366L69.7457 36H67.9432V29.4545H69.6776V33.6051ZM78.2365 36.1278C77.5661 36.1278 76.9893 35.9858 76.5064 35.7017C76.0263 35.4148 75.657 35.017 75.3984 34.5085C75.1428 34 75.0149 33.4148 75.0149 32.7528C75.0149 32.0824 75.1442 31.4943 75.4027 30.9886C75.6641 30.4801 76.0348 30.0838 76.5149 29.7997C76.995 29.5128 77.5661 29.3693 78.228 29.3693C78.799 29.3693 79.299 29.473 79.728 29.6804C80.157 29.8878 80.4964 30.179 80.7464 30.554C80.9964 30.929 81.1342 31.3693 81.1598 31.875H79.4467C79.3984 31.5483 79.2706 31.2855 79.0632 31.0866C78.8587 30.8849 78.5902 30.7841 78.2578 30.7841C77.9766 30.7841 77.7308 30.8608 77.5206 31.0142C77.3132 31.1648 77.1513 31.3849 77.0348 31.6747C76.9183 31.9645 76.8601 32.3153 76.8601 32.7273C76.8601 33.1449 76.9169 33.5 77.0305 33.7926C77.147 34.0852 77.3104 34.3082 77.5206 34.4616C77.7308 34.6151 77.9766 34.6918 78.2578 34.6918C78.4652 34.6918 78.6513 34.6491 78.8161 34.5639C78.9837 34.4787 79.1214 34.3551 79.2294 34.1932C79.3402 34.0284 79.4126 33.831 79.4467 33.6009H81.1598C81.1314 34.1009 80.995 34.5412 80.7507 34.9219C80.5092 35.2997 80.1754 35.5952 79.7493 35.8082C79.3232 36.0213 78.8189 36.1278 78.2365 36.1278ZM81.8757 30.8821V29.4545H87.8075V30.8821H85.6982V36H83.968V30.8821H81.8757Z" fill="#929292"/>
</svg>
