<svg width="60" height="60" viewBox="0 0 60 60" fill="none" xmlns="http://www.w3.org/2000/svg">
<g clip-path="url(#clip0_26_123)">
<path d="M30 0C13.5 0 0 13.5 0 30C0 46.5 13.5 60 30 60C46.5 60 60 46.5 60 30C60 13.5 46.5 0 30 0Z" fill="#29B6F6"/>
<path d="M45 16.5L39.45 45.15C39.45 45.15 39.15 46.5 37.65 46.5C36.75 46.5 36.3 46.05 36.3 46.05L24 36L18 33L10.35 30.9C10.35 30.9 9 30.45 9 29.4C9 28.5 10.35 28.05 10.35 28.05L42.3 15.3C42.3 15.3 43.35 15 43.95 15C44.4 15 44.85 15.15 44.85 15.75C45 16.2 45 16.5 45 16.5Z" fill="white"/>
<path d="M28.5 39.75L23.4 44.85C23.4 44.85 23.25 45 22.95 45C22.8 45 22.8 45 22.65 45L24.15 36L28.5 39.75Z" fill="#B0BEC5"/>
<path d="M38.85 21.3C38.55 21 38.1 20.85 37.8 21.15L18 33C18 33 21.15 41.85 21.6 43.35C22.05 44.85 22.5 44.85 22.5 44.85L24 35.85L38.7 22.2C39 22.05 39.15 21.6 38.85 21.3Z" fill="#CFD8DC"/>
</g>
<defs>
<clipPath id="clip0_26_123">
<rect width="60" height="60" fill="white"/>
</clipPath>
</defs>
</svg>
