<svg width="463" height="554" viewBox="0 0 463 554" fill="none" xmlns="http://www.w3.org/2000/svg">
<g clip-path="url(#clip0_48_20)">
<path d="M371.346 191.419H325.668V176.374C325.668 151.155 346.136 130.681 371.346 130.681L371.346 191.419Z" fill="#2F2E41"/>
<path d="M361.222 163.333L369.075 198.669L323.053 191.025L341.807 157.605L361.222 163.333Z" fill="#F6D2B4"/>
<path d="M317.099 304.142H361.222V238.818H317.099V304.142Z" fill="#DFDFDF"/>
<path d="M389.901 357.548L380.194 409.631C380.194 409.631 386.372 445.823 367.84 482.899L355.486 520.857L336.954 518.209C336.954 518.209 348.426 489.961 348.426 477.603C348.426 465.244 351.073 417.575 351.073 417.575L349.75 363.182L389.901 357.548Z" fill="#2F2E41"/>
<path d="M334.307 517.326C334.307 517.326 355.486 509.382 357.251 520.857L356.368 526.154C356.368 526.154 364.31 549.988 352.838 551.754C341.366 553.519 330.777 556.167 329.894 550.871C329.012 545.574 329.026 538.963 331.225 534.324C333.424 529.685 334.307 517.326 334.307 517.326Z" fill="#2F2E41"/>
<path d="M323.099 349.469L317.943 402.197C317.943 402.197 301.947 435.244 309.44 476.012L310.754 515.91L329.291 518.522C329.291 518.522 326.125 488.197 329.561 476.326C332.997 464.455 343.707 417.93 343.707 417.93L360.1 366.051L323.099 349.469Z" fill="#2F2E41"/>
<path d="M332.079 518.411C332.079 518.411 313.945 504.887 309.059 515.419L308.434 520.752C308.434 520.752 294.179 541.437 304.708 546.324C315.236 551.211 324.672 556.701 326.992 551.859C329.312 547.017 331.137 540.663 330.314 535.595C329.491 530.527 332.079 518.411 332.079 518.411Z" fill="#2F2E41"/>
<path d="M379.312 274.128C400.067 293.503 401.606 324.157 389.46 360.638C389.46 360.638 350.632 387.12 322.393 353.576L308.274 285.604L379.312 274.128Z" fill="#2F2E41"/>
<path d="M344.455 179.674L366.516 183.205L364.751 238.818L389.46 288.252L357.692 304.142C357.692 304.142 332.983 257.356 328.571 228.225C324.158 199.094 326.806 177.908 326.806 177.908L344.455 179.674Z" fill="#8A85E4"/>
<path d="M327.688 181.439L305.627 184.97L307.392 240.584L302.097 291.783L314.451 305.907C314.451 305.907 339.16 259.122 343.572 229.991C347.985 200.86 345.337 179.674 345.337 179.674L327.688 181.439Z" fill="#8A85E4"/>
<path d="M354.162 182.764L359.015 181.439C359.015 181.439 376.223 179.233 378.871 186.295C381.518 193.357 380.636 234.846 380.636 234.846C380.636 234.846 385.189 285.767 367.469 286.348C349.75 286.928 353.279 244.556 353.279 244.556L354.162 182.764Z" fill="#8A85E4"/>
<path d="M353.521 173.03C366.134 173.03 376.36 162.801 376.36 150.184C376.36 137.566 366.134 127.337 353.521 127.337C340.907 127.337 330.682 137.566 330.682 150.184C330.682 162.801 340.907 173.03 353.521 173.03Z" fill="#F6D2B4"/>
<path d="M325.041 184.529L320.187 183.205C320.187 183.205 302.979 180.998 300.332 188.06C297.684 195.122 298.567 236.611 298.567 236.611C298.567 236.611 294.013 287.533 311.733 288.113C329.453 288.694 325.923 246.322 325.923 246.322L325.041 184.529Z" fill="#6C63FF"/>
<path d="M340.327 181.627C335.428 180.383 329.873 185.618 327.919 193.322C327.096 196.388 327.019 199.608 327.695 202.71L325.59 211.467L325.435 211.459L308.829 250.608C304.968 259.711 305.376 270.161 310.3 278.734C313.23 283.835 317.076 287.263 321.591 283.763C329.084 277.956 333.978 244.702 336.213 225.6L341.38 206.183C343.454 203.778 344.921 200.911 345.66 197.822C347.615 190.121 345.227 182.87 340.327 181.627Z" fill="#FFDFC4"/>
<path d="M309.796 168.667C310.958 165.133 313.251 162.04 314.277 158.464C315.639 153.717 318.54 164.249 318.823 159.318C319.361 149.946 333.66 125.838 341.823 121.208C349.986 116.577 354.674 117.973 362.99 122.322C362.99 122.322 367.027 122.579 372.053 125.061C377.079 127.543 381.603 131.518 383.557 136.773C385.107 140.938 384.935 145.512 385.453 149.926C386.895 162.223 393.786 173.917 392.307 186.21C391.846 190.045 390.388 194.01 387.254 196.266C384.119 198.522 379.055 198.277 376.991 195.011C376.287 193.897 375.99 192.575 375.386 191.404C374.783 190.232 373.692 189.139 372.375 189.176C370.395 189.231 369.388 191.888 370.168 193.709C370.949 195.53 372.784 196.629 374.506 197.607C370.404 199.453 365.314 198.879 361.727 196.163C358.139 193.448 356.202 188.706 356.862 184.254C357.792 177.981 366.928 179.28 368.004 173.03C368.787 168.481 370.749 161.055 370 156.5C370 155.5 369.5 154.642 369.5 154.642C369.5 154.642 357.139 142.892 352.772 141.351C348.405 139.81 344.703 136.472 342.717 132.288C338.086 139.004 334.012 137.18 332.353 145.169C330.694 153.157 332.228 171.307 339.058 175.767C336.324 177.632 334.145 180.3 332.863 183.352C332.136 185.08 331.665 186.971 330.459 188.407C328.156 191.149 323.904 191.316 320.514 190.163C316.311 188.733 312.717 185.594 310.736 181.62C308.754 177.646 308.409 172.885 309.796 168.667Z" fill="#2F2E41"/>
<path d="M338.875 179.861C343.775 178.618 349.329 183.852 351.284 191.556C352.106 194.623 352.183 197.842 351.507 200.945L353.613 209.702L353.767 209.694L370.374 248.843C374.235 257.945 373.827 268.395 368.902 276.969C365.972 282.069 362.127 285.498 357.611 281.998C350.118 276.19 345.224 242.937 342.99 223.835L337.823 204.418C335.749 202.013 334.281 199.146 333.542 196.057C331.588 188.356 333.976 181.105 338.875 179.861Z" fill="#F6D2B4"/>
<path d="M357.739 201.314L339.16 214.525L348.45 273.046L360.1 288.119L373.672 283.424L377.64 255.76L372.97 229.006L357.739 201.314Z" fill="#8A85E4"/>
<path d="M118.575 5.8826H300.069C317.888 5.8826 332.336 20.3326 332.336 38.1612V515.229C332.336 533.058 317.888 547.508 300.069 547.508H118.575C100.756 547.508 86.3088 533.058 86.3088 515.229V38.1612C86.3088 20.3326 100.756 5.8826 118.575 5.8826Z" fill="white" stroke="black" stroke-width="10"/>
<path d="M300.07 553.39H118.575C97.54 553.39 80.4264 536.271 80.4264 515.229V38.1613C80.4264 17.1193 97.54 0 118.575 0H300.07C321.105 0 338.218 17.1193 338.218 38.1613V515.229C338.218 536.271 321.105 553.39 300.07 553.39ZM118.575 1.7655C98.5129 1.7655 82.1913 18.0925 82.1913 38.1613V515.229C82.1913 535.298 98.5129 551.625 118.575 551.625H300.07C320.132 551.625 336.453 535.298 336.453 515.229V38.1613C336.453 18.0925 320.132 1.7655 300.07 1.7655H118.575Z" fill="#3F3D56"/>
<path d="M104 146C104 146.555 104.531 147 105.192 147H309.808C310.469 147 311 146.555 311 146C311 145.445 310.469 145 309.808 145H105.192C104.531 145 104 145.445 104 146Z" fill="#3F3D56"/>
<path d="M110.102 128.625V140H107.766V128.625H110.102ZM113.602 128.625V130.461H104.32V128.625H113.602ZM117.953 140.156C117.297 140.156 116.708 140.052 116.188 139.844C115.667 139.63 115.224 139.336 114.859 138.961C114.5 138.586 114.224 138.151 114.031 137.656C113.839 137.156 113.742 136.625 113.742 136.062V135.75C113.742 135.109 113.833 134.523 114.016 133.992C114.198 133.461 114.458 133 114.797 132.609C115.141 132.219 115.557 131.919 116.047 131.711C116.536 131.497 117.089 131.391 117.703 131.391C118.302 131.391 118.833 131.49 119.297 131.688C119.76 131.885 120.148 132.167 120.461 132.531C120.779 132.896 121.018 133.333 121.18 133.844C121.341 134.349 121.422 134.911 121.422 135.531V136.469H114.703V134.969H119.211V134.797C119.211 134.484 119.154 134.206 119.039 133.961C118.93 133.711 118.763 133.513 118.539 133.367C118.315 133.221 118.029 133.148 117.68 133.148C117.383 133.148 117.128 133.214 116.914 133.344C116.701 133.474 116.526 133.656 116.391 133.891C116.26 134.125 116.161 134.401 116.094 134.719C116.031 135.031 116 135.375 116 135.75V136.062C116 136.401 116.047 136.714 116.141 137C116.24 137.286 116.378 137.534 116.555 137.742C116.737 137.951 116.956 138.112 117.211 138.227C117.471 138.341 117.766 138.398 118.094 138.398C118.5 138.398 118.878 138.32 119.227 138.164C119.581 138.003 119.885 137.76 120.141 137.438L121.234 138.625C121.057 138.88 120.815 139.125 120.508 139.359C120.206 139.594 119.841 139.786 119.414 139.938C118.987 140.083 118.5 140.156 117.953 140.156ZM124.516 131.547L125.914 134.117L127.352 131.547H129.75L127.359 135.68L129.859 140H127.453L125.93 137.281L124.406 140H122L124.5 135.68L122.109 131.547H124.516ZM136.633 134.961V136.711H132.336V134.961H136.633ZM133.086 131.547V140H130.836V131.547H133.086ZM138.156 131.547V140H135.898V131.547H138.156ZM139.547 135.859V135.695C139.547 135.076 139.635 134.505 139.812 133.984C139.99 133.458 140.247 133.003 140.586 132.617C140.924 132.232 141.341 131.932 141.836 131.719C142.331 131.5 142.898 131.391 143.539 131.391C144.18 131.391 144.75 131.5 145.25 131.719C145.75 131.932 146.169 132.232 146.508 132.617C146.852 133.003 147.112 133.458 147.289 133.984C147.466 134.505 147.555 135.076 147.555 135.695V135.859C147.555 136.474 147.466 137.044 147.289 137.57C147.112 138.091 146.852 138.547 146.508 138.938C146.169 139.323 145.753 139.622 145.258 139.836C144.763 140.049 144.195 140.156 143.555 140.156C142.914 140.156 142.344 140.049 141.844 139.836C141.349 139.622 140.93 139.323 140.586 138.938C140.247 138.547 139.99 138.091 139.812 137.57C139.635 137.044 139.547 136.474 139.547 135.859ZM141.797 135.695V135.859C141.797 136.214 141.828 136.544 141.891 136.852C141.953 137.159 142.052 137.43 142.188 137.664C142.328 137.893 142.51 138.073 142.734 138.203C142.958 138.333 143.232 138.398 143.555 138.398C143.867 138.398 144.135 138.333 144.359 138.203C144.583 138.073 144.763 137.893 144.898 137.664C145.034 137.43 145.133 137.159 145.195 136.852C145.263 136.544 145.297 136.214 145.297 135.859V135.695C145.297 135.352 145.263 135.029 145.195 134.727C145.133 134.419 145.031 134.148 144.891 133.914C144.755 133.674 144.576 133.487 144.352 133.352C144.128 133.216 143.857 133.148 143.539 133.148C143.221 133.148 142.951 133.216 142.727 133.352C142.508 133.487 142.328 133.674 142.188 133.914C142.052 134.148 141.953 134.419 141.891 134.727C141.828 135.029 141.797 135.352 141.797 135.695ZM154.5 131.547V133.312H150.344V131.547H154.5ZM156.148 131.547V140H153.898V131.547H156.148ZM149.781 131.547H151.992L151.766 135.812C151.734 136.422 151.669 136.958 151.57 137.422C151.471 137.885 151.339 138.281 151.172 138.609C151.01 138.938 150.815 139.206 150.586 139.414C150.362 139.617 150.099 139.766 149.797 139.859C149.5 139.953 149.172 140 148.812 140H148.125L148.102 138.227L148.391 138.195C148.557 138.18 148.703 138.133 148.828 138.055C148.958 137.971 149.068 137.854 149.156 137.703C149.25 137.547 149.328 137.352 149.391 137.117C149.453 136.878 149.503 136.596 149.539 136.273C149.581 135.951 149.609 135.578 149.625 135.156L149.781 131.547ZM157.531 135.859V135.695C157.531 135.076 157.62 134.505 157.797 133.984C157.974 133.458 158.232 133.003 158.57 132.617C158.909 132.232 159.326 131.932 159.82 131.719C160.315 131.5 160.883 131.391 161.523 131.391C162.164 131.391 162.734 131.5 163.234 131.719C163.734 131.932 164.154 132.232 164.492 132.617C164.836 133.003 165.096 133.458 165.273 133.984C165.451 134.505 165.539 135.076 165.539 135.695V135.859C165.539 136.474 165.451 137.044 165.273 137.57C165.096 138.091 164.836 138.547 164.492 138.938C164.154 139.323 163.737 139.622 163.242 139.836C162.747 140.049 162.18 140.156 161.539 140.156C160.898 140.156 160.328 140.049 159.828 139.836C159.333 139.622 158.914 139.323 158.57 138.938C158.232 138.547 157.974 138.091 157.797 137.57C157.62 137.044 157.531 136.474 157.531 135.859ZM159.781 135.695V135.859C159.781 136.214 159.812 136.544 159.875 136.852C159.938 137.159 160.036 137.43 160.172 137.664C160.312 137.893 160.495 138.073 160.719 138.203C160.943 138.333 161.216 138.398 161.539 138.398C161.852 138.398 162.12 138.333 162.344 138.203C162.568 138.073 162.747 137.893 162.883 137.664C163.018 137.43 163.117 137.159 163.18 136.852C163.247 136.544 163.281 136.214 163.281 135.859V135.695C163.281 135.352 163.247 135.029 163.18 134.727C163.117 134.419 163.016 134.148 162.875 133.914C162.74 133.674 162.56 133.487 162.336 133.352C162.112 133.216 161.841 133.148 161.523 133.148C161.206 133.148 160.935 133.216 160.711 133.352C160.492 133.487 160.312 133.674 160.172 133.914C160.036 134.148 159.938 134.419 159.875 134.727C159.812 135.029 159.781 135.352 159.781 135.695ZM172.672 131.547V133.312H169.156V140H166.906V131.547H172.672ZM175.883 136.859L178.719 131.547H180.969V140H178.719V134.68L175.883 140H173.633V131.547H175.883V136.859ZM184.945 136.859L187.781 131.547H190.031V140H187.781V134.68L184.945 140H182.695V131.547H184.945V136.859ZM197.992 136.859L200.828 131.547H203.078V140H200.828V134.68L197.992 140H195.742V131.547H197.992V136.859ZM211.039 136.859L213.875 131.547H216.125V140H213.875V134.68L211.039 140H208.789V131.547H211.039V136.859ZM223.648 134.961V136.711H219.352V134.961H223.648ZM220.102 131.547V140H217.852V131.547H220.102ZM225.172 131.547V140H222.914V131.547H225.172ZM230.414 138.398C230.69 138.398 230.935 138.346 231.148 138.242C231.362 138.133 231.529 137.982 231.648 137.789C231.773 137.591 231.839 137.359 231.844 137.094H233.961C233.956 137.688 233.797 138.216 233.484 138.68C233.172 139.138 232.753 139.5 232.227 139.766C231.701 140.026 231.112 140.156 230.461 140.156C229.805 140.156 229.232 140.047 228.742 139.828C228.258 139.609 227.854 139.307 227.531 138.922C227.208 138.531 226.966 138.078 226.805 137.562C226.643 137.042 226.562 136.484 226.562 135.891V135.664C226.562 135.065 226.643 134.508 226.805 133.992C226.966 133.471 227.208 133.018 227.531 132.633C227.854 132.242 228.258 131.938 228.742 131.719C229.227 131.5 229.794 131.391 230.445 131.391C231.138 131.391 231.745 131.523 232.266 131.789C232.792 132.055 233.203 132.435 233.5 132.93C233.802 133.419 233.956 134 233.961 134.672H231.844C231.839 134.391 231.779 134.135 231.664 133.906C231.555 133.677 231.393 133.495 231.18 133.359C230.971 133.219 230.714 133.148 230.406 133.148C230.078 133.148 229.81 133.219 229.602 133.359C229.393 133.495 229.232 133.682 229.117 133.922C229.003 134.156 228.922 134.424 228.875 134.727C228.833 135.023 228.812 135.336 228.812 135.664V135.891C228.812 136.219 228.833 136.534 228.875 136.836C228.917 137.138 228.995 137.406 229.109 137.641C229.229 137.875 229.393 138.06 229.602 138.195C229.81 138.331 230.081 138.398 230.414 138.398ZM239.57 131.547V140H237.312V131.547H239.57ZM242.289 131.547V133.289H234.633V131.547H242.289ZM245.688 133.172V143.25H243.438V131.547H245.523L245.688 133.172ZM251.039 135.68V135.844C251.039 136.458 250.966 137.029 250.82 137.555C250.68 138.081 250.471 138.539 250.195 138.93C249.919 139.315 249.576 139.617 249.164 139.836C248.758 140.049 248.289 140.156 247.758 140.156C247.242 140.156 246.794 140.052 246.414 139.844C246.034 139.635 245.714 139.344 245.453 138.969C245.198 138.589 244.992 138.148 244.836 137.648C244.68 137.148 244.56 136.612 244.477 136.039V135.609C244.56 134.995 244.68 134.432 244.836 133.922C244.992 133.406 245.198 132.961 245.453 132.586C245.714 132.206 246.031 131.911 246.406 131.703C246.786 131.495 247.232 131.391 247.742 131.391C248.279 131.391 248.75 131.492 249.156 131.695C249.568 131.898 249.911 132.19 250.188 132.57C250.469 132.951 250.68 133.404 250.82 133.93C250.966 134.456 251.039 135.039 251.039 135.68ZM248.781 135.844V135.68C248.781 135.32 248.75 134.99 248.688 134.688C248.63 134.38 248.536 134.112 248.406 133.883C248.281 133.654 248.115 133.477 247.906 133.352C247.703 133.221 247.456 133.156 247.164 133.156C246.857 133.156 246.594 133.206 246.375 133.305C246.161 133.404 245.987 133.547 245.852 133.734C245.716 133.922 245.615 134.146 245.547 134.406C245.479 134.667 245.438 134.961 245.422 135.289V136.375C245.448 136.76 245.521 137.107 245.641 137.414C245.76 137.716 245.945 137.956 246.195 138.133C246.445 138.31 246.773 138.398 247.18 138.398C247.477 138.398 247.727 138.333 247.93 138.203C248.133 138.068 248.297 137.883 248.422 137.648C248.552 137.414 248.643 137.143 248.695 136.836C248.753 136.529 248.781 136.198 248.781 135.844ZM254.852 139.047L257.094 131.547H259.508L256.109 141.273C256.036 141.487 255.938 141.716 255.812 141.961C255.693 142.206 255.529 142.438 255.32 142.656C255.117 142.88 254.859 143.062 254.547 143.203C254.24 143.344 253.862 143.414 253.414 143.414C253.201 143.414 253.026 143.401 252.891 143.375C252.755 143.349 252.594 143.312 252.406 143.266V141.617C252.464 141.617 252.523 141.617 252.586 141.617C252.648 141.622 252.708 141.625 252.766 141.625C253.062 141.625 253.305 141.591 253.492 141.523C253.68 141.456 253.831 141.352 253.945 141.211C254.06 141.076 254.151 140.898 254.219 140.68L254.852 139.047ZM253.914 131.547L255.75 137.672L256.07 140.055L254.539 140.219L251.5 131.547H253.914ZM265.547 137.414L267.766 131.547H269.602L266.305 140H264.789L261.508 131.547H263.344L265.547 137.414ZM262.805 131.547V140H260.555V131.547H262.805ZM268.344 140V131.547H270.594V140H268.344ZM276.453 140.156C275.797 140.156 275.208 140.052 274.688 139.844C274.167 139.63 273.724 139.336 273.359 138.961C273 138.586 272.724 138.151 272.531 137.656C272.339 137.156 272.242 136.625 272.242 136.062V135.75C272.242 135.109 272.333 134.523 272.516 133.992C272.698 133.461 272.958 133 273.297 132.609C273.641 132.219 274.057 131.919 274.547 131.711C275.036 131.497 275.589 131.391 276.203 131.391C276.802 131.391 277.333 131.49 277.797 131.688C278.26 131.885 278.648 132.167 278.961 132.531C279.279 132.896 279.518 133.333 279.68 133.844C279.841 134.349 279.922 134.911 279.922 135.531V136.469H273.203V134.969H277.711V134.797C277.711 134.484 277.654 134.206 277.539 133.961C277.43 133.711 277.263 133.513 277.039 133.367C276.815 133.221 276.529 133.148 276.18 133.148C275.883 133.148 275.628 133.214 275.414 133.344C275.201 133.474 275.026 133.656 274.891 133.891C274.76 134.125 274.661 134.401 274.594 134.719C274.531 135.031 274.5 135.375 274.5 135.75V136.062C274.5 136.401 274.547 136.714 274.641 137C274.74 137.286 274.878 137.534 275.055 137.742C275.237 137.951 275.456 138.112 275.711 138.227C275.971 138.341 276.266 138.398 276.594 138.398C277 138.398 277.378 138.32 277.727 138.164C278.081 138.003 278.385 137.76 278.641 137.438L279.734 138.625C279.557 138.88 279.315 139.125 279.008 139.359C278.706 139.594 278.341 139.786 277.914 139.938C277.487 140.083 277 140.156 276.453 140.156ZM286.992 134.961V136.711H282.695V134.961H286.992ZM283.445 131.547V140H281.195V131.547H283.445ZM288.516 131.547V140H286.258V131.547H288.516ZM294.57 131.547V140H292.312V131.547H294.57ZM297.289 131.547V133.289H289.633V131.547H297.289ZM299.992 134.055H302.445C303.216 134.055 303.872 134.182 304.414 134.438C304.961 134.688 305.378 135.036 305.664 135.484C305.956 135.932 306.102 136.451 306.102 137.039C306.102 137.466 306.018 137.862 305.852 138.227C305.69 138.586 305.453 138.898 305.141 139.164C304.828 139.43 304.445 139.635 303.992 139.781C303.539 139.927 303.023 140 302.445 140H298.586V131.547H300.844V138.25H302.445C302.784 138.25 303.055 138.195 303.258 138.086C303.466 137.971 303.617 137.823 303.711 137.641C303.81 137.458 303.859 137.26 303.859 137.047C303.859 136.823 303.81 136.62 303.711 136.438C303.617 136.25 303.466 136.099 303.258 135.984C303.055 135.87 302.784 135.812 302.445 135.812H299.992V134.055ZM309.711 131.547V140H307.461V131.547H309.711Z" fill="black"/>
<path d="M280.919 36.4197C283.243 36.4197 285.127 34.5349 285.127 32.2099C285.127 29.8848 283.243 28 280.919 28C278.595 28 276.71 29.8848 276.71 32.2099C276.71 34.5349 278.595 36.4197 280.919 36.4197Z" fill="black"/>
<path d="M292.492 36.4197C294.816 36.4197 296.701 34.5349 296.701 32.2099C296.701 29.8848 294.816 28 292.492 28C290.168 28 288.284 29.8848 288.284 32.2099C288.284 34.5349 290.168 36.4197 292.492 36.4197Z" fill="black"/>
<path d="M304.066 36.4197C306.39 36.4197 308.274 34.5349 308.274 32.2099C308.274 29.8848 306.39 28 304.066 28C301.741 28 299.857 29.8848 299.857 32.2099C299.857 34.5349 301.741 36.4197 304.066 36.4197Z" fill="black"/>
<path d="M248 32.55C249.977 30.9037 252.468 30.0021 255.04 30.0021C257.612 30.0021 260.103 30.9037 262.08 32.55" stroke="black" stroke-width="2" stroke-linecap="round" stroke-linejoin="round"/>
<path d="M244.42 29C247.342 26.424 251.104 25.0027 255 25.0027C258.896 25.0027 262.658 26.424 265.58 29" stroke="black" stroke-width="2" stroke-linecap="round" stroke-linejoin="round"/>
<path d="M251.53 36.11C252.545 35.3887 253.76 35.0013 255.005 35.0013C256.25 35.0013 257.465 35.3887 258.48 36.11" stroke="black" stroke-width="2" stroke-linecap="round" stroke-linejoin="round"/>
<path d="M255 40H255.01" stroke="black" stroke-width="2" stroke-linecap="round" stroke-linejoin="round"/>
<path d="M114.699 27.4512V36H113.012V29.3965L110.984 30.041V28.7109L114.518 27.4512H114.699ZM123.271 27.4688V28.377L119.973 36H118.191L121.49 28.7871H117.242V27.4688H123.271ZM124.502 35.1855C124.502 34.9355 124.588 34.7266 124.76 34.5586C124.936 34.3906 125.168 34.3066 125.457 34.3066C125.746 34.3066 125.977 34.3906 126.148 34.5586C126.324 34.7266 126.412 34.9355 126.412 35.1855C126.412 35.4355 126.324 35.6445 126.148 35.8125C125.977 35.9805 125.746 36.0645 125.457 36.0645C125.168 36.0645 124.936 35.9805 124.76 35.8125C124.588 35.6445 124.502 35.4355 124.502 35.1855ZM124.502 30.3516C124.502 30.1016 124.588 29.8926 124.76 29.7246C124.936 29.5566 125.168 29.4727 125.457 29.4727C125.746 29.4727 125.977 29.5566 126.148 29.7246C126.324 29.8926 126.412 30.1016 126.412 30.3516C126.412 30.6016 126.324 30.8105 126.148 30.9785C125.977 31.1465 125.746 31.2305 125.457 31.2305C125.168 31.2305 124.936 31.1465 124.76 30.9785C124.588 30.8105 124.502 30.6016 124.502 30.3516ZM133.496 30.9844V32.4609C133.496 33.1016 133.428 33.6543 133.291 34.1191C133.154 34.5801 132.957 34.959 132.699 35.2559C132.445 35.5488 132.143 35.7656 131.791 35.9062C131.439 36.0469 131.049 36.1172 130.619 36.1172C130.275 36.1172 129.955 36.0742 129.658 35.9883C129.361 35.8984 129.094 35.7598 128.855 35.5723C128.621 35.3848 128.418 35.1484 128.246 34.8633C128.078 34.5742 127.949 34.2305 127.859 33.832C127.77 33.4336 127.725 32.9766 127.725 32.4609V30.9844C127.725 30.3438 127.793 29.7949 127.93 29.3379C128.07 28.877 128.268 28.5 128.521 28.207C128.779 27.9141 129.084 27.6992 129.436 27.5625C129.787 27.4219 130.178 27.3516 130.607 27.3516C130.951 27.3516 131.27 27.3965 131.562 27.4863C131.859 27.5723 132.127 27.707 132.365 27.8906C132.604 28.0742 132.807 28.3105 132.975 28.5996C133.143 28.8848 133.271 29.2266 133.361 29.625C133.451 30.0195 133.496 30.4727 133.496 30.9844ZM131.803 32.6836V30.7559C131.803 30.4473 131.785 30.1777 131.75 29.9473C131.719 29.7168 131.67 29.5215 131.604 29.3613C131.537 29.1973 131.455 29.0645 131.357 28.9629C131.26 28.8613 131.148 28.7871 131.023 28.7402C130.898 28.6934 130.76 28.6699 130.607 28.6699C130.416 28.6699 130.246 28.707 130.098 28.7812C129.953 28.8555 129.83 28.9746 129.729 29.1387C129.627 29.2988 129.549 29.5137 129.494 29.7832C129.443 30.0488 129.418 30.373 129.418 30.7559V32.6836C129.418 32.9922 129.434 33.2637 129.465 33.498C129.5 33.7324 129.551 33.9336 129.617 34.1016C129.688 34.2656 129.77 34.4004 129.863 34.5059C129.961 34.6074 130.072 34.6816 130.197 34.7285C130.326 34.7754 130.467 34.7988 130.619 34.7988C130.807 34.7988 130.973 34.7617 131.117 34.6875C131.266 34.6094 131.391 34.4883 131.492 34.3242C131.598 34.1562 131.676 33.9375 131.727 33.668C131.777 33.3984 131.803 33.0703 131.803 32.6836ZM140.387 30.9844V32.4609C140.387 33.1016 140.318 33.6543 140.182 34.1191C140.045 34.5801 139.848 34.959 139.59 35.2559C139.336 35.5488 139.033 35.7656 138.682 35.9062C138.33 36.0469 137.939 36.1172 137.51 36.1172C137.166 36.1172 136.846 36.0742 136.549 35.9883C136.252 35.8984 135.984 35.7598 135.746 35.5723C135.512 35.3848 135.309 35.1484 135.137 34.8633C134.969 34.5742 134.84 34.2305 134.75 33.832C134.66 33.4336 134.615 32.9766 134.615 32.4609V30.9844C134.615 30.3438 134.684 29.7949 134.82 29.3379C134.961 28.877 135.158 28.5 135.412 28.207C135.67 27.9141 135.975 27.6992 136.326 27.5625C136.678 27.4219 137.068 27.3516 137.498 27.3516C137.842 27.3516 138.16 27.3965 138.453 27.4863C138.75 27.5723 139.018 27.707 139.256 27.8906C139.494 28.0742 139.697 28.3105 139.865 28.5996C140.033 28.8848 140.162 29.2266 140.252 29.625C140.342 30.0195 140.387 30.4727 140.387 30.9844ZM138.693 32.6836V30.7559C138.693 30.4473 138.676 30.1777 138.641 29.9473C138.609 29.7168 138.561 29.5215 138.494 29.3613C138.428 29.1973 138.346 29.0645 138.248 28.9629C138.15 28.8613 138.039 28.7871 137.914 28.7402C137.789 28.6934 137.65 28.6699 137.498 28.6699C137.307 28.6699 137.137 28.707 136.988 28.7812C136.844 28.8555 136.721 28.9746 136.619 29.1387C136.518 29.2988 136.439 29.5137 136.385 29.7832C136.334 30.0488 136.309 30.373 136.309 30.7559V32.6836C136.309 32.9922 136.324 33.2637 136.355 33.498C136.391 33.7324 136.441 33.9336 136.508 34.1016C136.578 34.2656 136.66 34.4004 136.754 34.5059C136.852 34.6074 136.963 34.6816 137.088 34.7285C137.217 34.7754 137.357 34.7988 137.51 34.7988C137.697 34.7988 137.863 34.7617 138.008 34.6875C138.156 34.6094 138.281 34.4883 138.383 34.3242C138.488 34.1562 138.566 33.9375 138.617 33.668C138.668 33.3984 138.693 33.0703 138.693 32.6836Z" fill="black"/>
<path d="M111.942 195.069C116.328 195.069 119.884 191.512 119.884 187.124C119.884 182.736 116.328 179.179 111.942 179.179C107.556 179.179 104 182.736 104 187.124C104 191.512 107.556 195.069 111.942 195.069Z" fill="#6C63FF"/>
<path d="M111.06 200.365V198.6C117.628 198.6 122.973 193.254 122.973 186.683C122.973 180.112 117.628 174.766 111.06 174.766V173C118.602 173 124.738 179.138 124.738 186.683C124.738 194.227 118.602 200.365 111.06 200.365Z" fill="#3F3D56"/>
<path d="M138.602 186.75V188.578H132.664V186.75H138.602ZM133.359 182.117V193.492H131.016V182.117H133.359ZM140.273 182.117V193.492H137.938V182.117H140.273ZM147.164 182.117V193.492H144.828V182.117H147.164ZM150.664 182.117V183.953H141.383V182.117H150.664ZM153.07 182.117H155.055L157.977 190.468L160.898 182.117H162.883L158.773 193.492H157.18L153.07 182.117ZM152 182.117H153.977L154.336 190.257V193.492H152V182.117ZM161.977 182.117H163.961V193.492H161.617V190.257L161.977 182.117ZM173.328 191.664V193.492H167.602V191.664H173.328ZM168.359 182.117V193.492H166.016V182.117H168.359ZM176.555 188.312L174.758 187.882L175.406 182.117H181.797V183.937H177.258L176.977 186.461C177.128 186.372 177.357 186.278 177.664 186.179C177.971 186.075 178.315 186.023 178.695 186.023C179.247 186.023 179.737 186.109 180.164 186.281C180.591 186.453 180.953 186.703 181.25 187.031C181.552 187.359 181.781 187.76 181.938 188.234C182.094 188.708 182.172 189.244 182.172 189.843C182.172 190.349 182.094 190.83 181.938 191.289C181.781 191.742 181.544 192.148 181.227 192.507C180.909 192.862 180.51 193.14 180.031 193.343C179.552 193.547 178.984 193.648 178.328 193.648C177.839 193.648 177.365 193.575 176.906 193.429C176.453 193.283 176.044 193.067 175.68 192.781C175.32 192.494 175.031 192.148 174.812 191.742C174.599 191.33 174.487 190.862 174.477 190.336H176.711C176.742 190.658 176.826 190.937 176.961 191.172C177.102 191.401 177.286 191.578 177.516 191.703C177.745 191.828 178.013 191.89 178.32 191.89C178.607 191.89 178.852 191.836 179.055 191.726C179.258 191.617 179.422 191.466 179.547 191.273C179.672 191.075 179.763 190.846 179.82 190.586C179.883 190.32 179.914 190.033 179.914 189.726C179.914 189.419 179.878 189.14 179.805 188.89C179.732 188.64 179.62 188.424 179.469 188.242C179.318 188.06 179.125 187.919 178.891 187.82C178.661 187.721 178.393 187.672 178.086 187.672C177.669 187.672 177.346 187.737 177.117 187.867C176.893 187.997 176.706 188.145 176.555 188.312ZM195.062 187.156V189.117H187.266V187.156H195.062ZM192.234 184.07V192.351H190.102V184.07H192.234ZM207.141 189.718H209.477C209.43 190.484 209.219 191.164 208.844 191.757C208.474 192.351 207.956 192.815 207.289 193.148C206.628 193.481 205.831 193.648 204.898 193.648C204.169 193.648 203.516 193.523 202.938 193.273C202.359 193.018 201.865 192.653 201.453 192.179C201.047 191.705 200.737 191.132 200.523 190.461C200.31 189.789 200.203 189.036 200.203 188.203V187.414C200.203 186.58 200.312 185.828 200.531 185.156C200.755 184.479 201.073 183.903 201.484 183.429C201.901 182.955 202.398 182.591 202.977 182.336C203.555 182.08 204.201 181.953 204.914 181.953C205.862 181.953 206.661 182.125 207.312 182.468C207.969 182.812 208.477 183.286 208.836 183.89C209.201 184.494 209.419 185.182 209.492 185.953H207.148C207.122 185.494 207.031 185.106 206.875 184.789C206.719 184.466 206.482 184.224 206.164 184.062C205.852 183.895 205.435 183.812 204.914 183.812C204.523 183.812 204.182 183.885 203.891 184.031C203.599 184.177 203.354 184.398 203.156 184.695C202.958 184.992 202.81 185.367 202.711 185.82C202.617 186.268 202.57 186.794 202.57 187.398V188.203C202.57 188.791 202.615 189.31 202.703 189.757C202.792 190.2 202.927 190.575 203.109 190.882C203.297 191.185 203.536 191.414 203.828 191.57C204.125 191.721 204.482 191.797 204.898 191.797C205.388 191.797 205.792 191.718 206.109 191.562C206.427 191.406 206.669 191.174 206.836 190.867C207.008 190.56 207.109 190.177 207.141 189.718ZM216.938 190.515C216.938 190.312 216.906 190.13 216.844 189.968C216.786 189.802 216.677 189.651 216.516 189.515C216.354 189.375 216.128 189.237 215.836 189.101C215.544 188.966 215.167 188.825 214.703 188.679C214.188 188.513 213.698 188.325 213.234 188.117C212.776 187.908 212.37 187.666 212.016 187.39C211.667 187.109 211.391 186.783 211.188 186.414C210.99 186.044 210.891 185.614 210.891 185.125C210.891 184.651 210.995 184.221 211.203 183.836C211.411 183.445 211.703 183.112 212.078 182.836C212.453 182.554 212.896 182.338 213.406 182.187C213.922 182.036 214.487 181.961 215.102 181.961C215.94 181.961 216.672 182.112 217.297 182.414C217.922 182.716 218.406 183.13 218.75 183.656C219.099 184.182 219.273 184.783 219.273 185.461H216.945C216.945 185.127 216.875 184.836 216.734 184.586C216.599 184.33 216.391 184.13 216.109 183.984C215.833 183.838 215.484 183.765 215.062 183.765C214.656 183.765 214.318 183.828 214.047 183.953C213.776 184.073 213.573 184.237 213.438 184.445C213.302 184.648 213.234 184.877 213.234 185.132C213.234 185.325 213.281 185.5 213.375 185.656C213.474 185.812 213.62 185.958 213.812 186.093C214.005 186.229 214.242 186.356 214.523 186.476C214.805 186.596 215.13 186.713 215.5 186.828C216.12 187.015 216.664 187.226 217.133 187.461C217.607 187.695 218.003 187.958 218.32 188.25C218.638 188.541 218.878 188.872 219.039 189.242C219.201 189.612 219.281 190.031 219.281 190.5C219.281 190.994 219.185 191.437 218.992 191.828C218.799 192.218 218.521 192.549 218.156 192.82C217.792 193.091 217.357 193.297 216.852 193.437C216.346 193.578 215.781 193.648 215.156 193.648C214.594 193.648 214.039 193.575 213.492 193.429C212.945 193.278 212.448 193.052 212 192.75C211.557 192.448 211.203 192.062 210.938 191.593C210.672 191.125 210.539 190.57 210.539 189.929H212.891C212.891 190.283 212.945 190.583 213.055 190.828C213.164 191.073 213.318 191.27 213.516 191.422C213.719 191.573 213.958 191.682 214.234 191.75C214.516 191.817 214.823 191.851 215.156 191.851C215.562 191.851 215.896 191.794 216.156 191.679C216.422 191.565 216.617 191.406 216.742 191.203C216.872 191 216.938 190.77 216.938 190.515ZM226.797 190.515C226.797 190.312 226.766 190.13 226.703 189.968C226.646 189.802 226.536 189.651 226.375 189.515C226.214 189.375 225.987 189.237 225.695 189.101C225.404 188.966 225.026 188.825 224.562 188.679C224.047 188.513 223.557 188.325 223.094 188.117C222.635 187.908 222.229 187.666 221.875 187.39C221.526 187.109 221.25 186.783 221.047 186.414C220.849 186.044 220.75 185.614 220.75 185.125C220.75 184.651 220.854 184.221 221.062 183.836C221.271 183.445 221.562 183.112 221.938 182.836C222.312 182.554 222.755 182.338 223.266 182.187C223.781 182.036 224.346 181.961 224.961 181.961C225.799 181.961 226.531 182.112 227.156 182.414C227.781 182.716 228.266 183.13 228.609 183.656C228.958 184.182 229.133 184.783 229.133 185.461H226.805C226.805 185.127 226.734 184.836 226.594 184.586C226.458 184.33 226.25 184.13 225.969 183.984C225.693 183.838 225.344 183.765 224.922 183.765C224.516 183.765 224.177 183.828 223.906 183.953C223.635 184.073 223.432 184.237 223.297 184.445C223.161 184.648 223.094 184.877 223.094 185.132C223.094 185.325 223.141 185.5 223.234 185.656C223.333 185.812 223.479 185.958 223.672 186.093C223.865 186.229 224.102 186.356 224.383 186.476C224.664 186.596 224.99 186.713 225.359 186.828C225.979 187.015 226.523 187.226 226.992 187.461C227.466 187.695 227.862 187.958 228.18 188.25C228.497 188.541 228.737 188.872 228.898 189.242C229.06 189.612 229.141 190.031 229.141 190.5C229.141 190.994 229.044 191.437 228.852 191.828C228.659 192.218 228.38 192.549 228.016 192.82C227.651 193.091 227.216 193.297 226.711 193.437C226.206 193.578 225.641 193.648 225.016 193.648C224.453 193.648 223.898 193.575 223.352 193.429C222.805 193.278 222.307 193.052 221.859 192.75C221.417 192.448 221.062 192.062 220.797 191.593C220.531 191.125 220.398 190.57 220.398 189.929H222.75C222.75 190.283 222.805 190.583 222.914 190.828C223.023 191.073 223.177 191.27 223.375 191.422C223.578 191.573 223.818 191.682 224.094 191.75C224.375 191.817 224.682 191.851 225.016 191.851C225.422 191.851 225.755 191.794 226.016 191.679C226.281 191.565 226.477 191.406 226.602 191.203C226.732 191 226.797 190.77 226.797 190.515ZM232.805 186.828H234.008C234.393 186.828 234.711 186.763 234.961 186.632C235.211 186.497 235.396 186.31 235.516 186.07C235.641 185.825 235.703 185.541 235.703 185.218C235.703 184.927 235.646 184.669 235.531 184.445C235.422 184.216 235.253 184.039 235.023 183.914C234.794 183.783 234.505 183.718 234.156 183.718C233.88 183.718 233.625 183.773 233.391 183.882C233.156 183.992 232.969 184.145 232.828 184.343C232.688 184.541 232.617 184.781 232.617 185.062H230.359C230.359 184.437 230.526 183.893 230.859 183.429C231.198 182.966 231.651 182.604 232.219 182.343C232.786 182.083 233.411 181.953 234.094 181.953C234.865 181.953 235.539 182.078 236.117 182.328C236.695 182.573 237.146 182.935 237.469 183.414C237.792 183.893 237.953 184.487 237.953 185.195C237.953 185.554 237.87 185.903 237.703 186.242C237.536 186.575 237.297 186.877 236.984 187.148C236.677 187.414 236.302 187.627 235.859 187.789C235.417 187.945 234.919 188.023 234.367 188.023H232.805V186.828ZM232.805 188.539V187.375H234.367C234.987 187.375 235.531 187.445 236 187.586C236.469 187.726 236.862 187.929 237.18 188.195C237.497 188.455 237.737 188.765 237.898 189.125C238.06 189.479 238.141 189.872 238.141 190.304C238.141 190.836 238.039 191.31 237.836 191.726C237.633 192.138 237.346 192.487 236.977 192.773C236.612 193.06 236.185 193.278 235.695 193.429C235.206 193.575 234.672 193.648 234.094 193.648C233.615 193.648 233.143 193.583 232.68 193.453C232.221 193.317 231.805 193.117 231.43 192.851C231.06 192.58 230.763 192.242 230.539 191.836C230.32 191.424 230.211 190.937 230.211 190.375H232.469C232.469 190.666 232.542 190.927 232.688 191.156C232.833 191.385 233.034 191.565 233.289 191.695C233.549 191.825 233.839 191.89 234.156 191.89C234.516 191.89 234.823 191.825 235.078 191.695C235.339 191.56 235.536 191.372 235.672 191.132C235.812 190.888 235.883 190.604 235.883 190.281C235.883 189.864 235.807 189.531 235.656 189.281C235.505 189.026 235.289 188.838 235.008 188.718C234.727 188.599 234.393 188.539 234.008 188.539H232.805ZM251.125 187.156V189.117H243.328V187.156H251.125ZM248.297 184.07V192.351H246.164V184.07H248.297ZM261.211 190V182.117H263.547V190C263.547 190.76 263.38 191.414 263.047 191.961C262.714 192.502 262.258 192.919 261.68 193.211C261.107 193.502 260.461 193.648 259.742 193.648C258.997 193.648 258.339 193.523 257.766 193.273C257.193 193.023 256.742 192.64 256.414 192.125C256.086 191.604 255.922 190.945 255.922 190.148H258.273C258.273 190.565 258.331 190.895 258.445 191.14C258.565 191.385 258.734 191.56 258.953 191.664C259.172 191.768 259.435 191.82 259.742 191.82C260.039 191.82 260.297 191.75 260.516 191.609C260.734 191.468 260.904 191.263 261.023 190.992C261.148 190.721 261.211 190.39 261.211 190ZM271.469 190.515C271.469 190.312 271.438 190.13 271.375 189.968C271.318 189.802 271.208 189.651 271.047 189.515C270.885 189.375 270.659 189.237 270.367 189.101C270.076 188.966 269.698 188.825 269.234 188.679C268.719 188.513 268.229 188.325 267.766 188.117C267.307 187.908 266.901 187.666 266.547 187.39C266.198 187.109 265.922 186.783 265.719 186.414C265.521 186.044 265.422 185.614 265.422 185.125C265.422 184.651 265.526 184.221 265.734 183.836C265.943 183.445 266.234 183.112 266.609 182.836C266.984 182.554 267.427 182.338 267.938 182.187C268.453 182.036 269.018 181.961 269.633 181.961C270.471 181.961 271.203 182.112 271.828 182.414C272.453 182.716 272.938 183.13 273.281 183.656C273.63 184.182 273.805 184.783 273.805 185.461H271.477C271.477 185.127 271.406 184.836 271.266 184.586C271.13 184.33 270.922 184.13 270.641 183.984C270.365 183.838 270.016 183.765 269.594 183.765C269.188 183.765 268.849 183.828 268.578 183.953C268.307 184.073 268.104 184.237 267.969 184.445C267.833 184.648 267.766 184.877 267.766 185.132C267.766 185.325 267.812 185.5 267.906 185.656C268.005 185.812 268.151 185.958 268.344 186.093C268.536 186.229 268.773 186.356 269.055 186.476C269.336 186.596 269.661 186.713 270.031 186.828C270.651 187.015 271.195 187.226 271.664 187.461C272.138 187.695 272.534 187.958 272.852 188.25C273.169 188.541 273.409 188.872 273.57 189.242C273.732 189.612 273.812 190.031 273.812 190.5C273.812 190.994 273.716 191.437 273.523 191.828C273.331 192.218 273.052 192.549 272.688 192.82C272.323 193.091 271.888 193.297 271.383 193.437C270.878 193.578 270.312 193.648 269.688 193.648C269.125 193.648 268.57 193.575 268.023 193.429C267.477 193.278 266.979 193.052 266.531 192.75C266.089 192.448 265.734 192.062 265.469 191.593C265.203 191.125 265.07 190.57 265.07 189.929H267.422C267.422 190.283 267.477 190.583 267.586 190.828C267.695 191.073 267.849 191.27 268.047 191.422C268.25 191.573 268.49 191.682 268.766 191.75C269.047 191.817 269.354 191.851 269.688 191.851C270.094 191.851 270.427 191.794 270.688 191.679C270.953 191.565 271.148 191.406 271.273 191.203C271.404 191 271.469 190.77 271.469 190.515Z" fill="black"/>
<path d="M111.942 232.434C116.328 232.434 119.884 228.877 119.884 224.489C119.884 220.102 116.328 216.545 111.942 216.545C107.556 216.545 104 220.102 104 224.489C104 228.877 107.556 232.434 111.942 232.434Z" fill="#6C63FF"/>
<path d="M111.06 237.731V235.965C117.628 235.965 122.973 230.619 122.973 224.048C122.973 217.477 117.628 212.131 111.06 212.131V210.365C118.602 210.365 124.738 216.503 124.738 224.048C124.738 231.593 118.602 237.731 111.06 237.731Z" fill="#3F3D56"/>
<path d="M133.359 217.696V229.071H131.016V217.696H133.359ZM137.891 222.556V224.384H132.719V222.556H137.891ZM138.438 217.696V219.532H132.719V217.696H138.438ZM142.031 220.618V229.071H139.773V220.618H142.031ZM139.633 218.415C139.633 218.087 139.747 217.816 139.977 217.603C140.206 217.389 140.513 217.282 140.898 217.282C141.279 217.282 141.583 217.389 141.812 217.603C142.047 217.816 142.164 218.087 142.164 218.415C142.164 218.743 142.047 219.014 141.812 219.228C141.583 219.441 141.279 219.548 140.898 219.548C140.513 219.548 140.206 219.441 139.977 219.228C139.747 219.014 139.633 218.743 139.633 218.415ZM149.242 220.618H151.281V228.79C151.281 229.561 151.109 230.215 150.766 230.751C150.427 231.293 149.953 231.701 149.344 231.978C148.734 232.259 148.026 232.399 147.219 232.399C146.865 232.399 146.49 232.353 146.094 232.259C145.703 232.165 145.328 232.019 144.969 231.821C144.615 231.623 144.318 231.373 144.078 231.071L145.07 229.743C145.331 230.045 145.633 230.28 145.977 230.446C146.32 230.618 146.701 230.704 147.117 230.704C147.523 230.704 147.867 230.629 148.148 230.478C148.43 230.332 148.646 230.116 148.797 229.829C148.948 229.548 149.023 229.207 149.023 228.806V222.571L149.242 220.618ZM143.555 224.946V224.782C143.555 224.136 143.633 223.55 143.789 223.024C143.951 222.493 144.177 222.037 144.469 221.657C144.766 221.277 145.125 220.983 145.547 220.774C145.969 220.566 146.445 220.462 146.977 220.462C147.539 220.462 148.01 220.566 148.391 220.774C148.771 220.983 149.083 221.28 149.328 221.665C149.573 222.045 149.763 222.496 149.898 223.017C150.039 223.532 150.148 224.097 150.227 224.712V225.071C150.148 225.66 150.031 226.207 149.875 226.712C149.719 227.217 149.513 227.66 149.258 228.04C149.003 228.415 148.685 228.707 148.305 228.915C147.93 229.123 147.482 229.228 146.961 229.228C146.44 229.228 145.969 229.121 145.547 228.907C145.13 228.694 144.773 228.394 144.477 228.009C144.18 227.623 143.951 227.17 143.789 226.649C143.633 226.129 143.555 225.561 143.555 224.946ZM145.805 224.782V224.946C145.805 225.295 145.839 225.621 145.906 225.923C145.974 226.225 146.078 226.493 146.219 226.728C146.365 226.957 146.544 227.136 146.758 227.267C146.977 227.392 147.234 227.454 147.531 227.454C147.943 227.454 148.279 227.368 148.539 227.196C148.799 227.019 148.995 226.777 149.125 226.47C149.255 226.162 149.331 225.808 149.352 225.407V224.384C149.341 224.056 149.297 223.761 149.219 223.501C149.141 223.235 149.031 223.009 148.891 222.821C148.75 222.634 148.568 222.488 148.344 222.384C148.12 222.28 147.854 222.228 147.547 222.228C147.25 222.228 146.992 222.295 146.773 222.431C146.56 222.561 146.38 222.741 146.234 222.97C146.094 223.199 145.987 223.47 145.914 223.782C145.841 224.09 145.805 224.423 145.805 224.782ZM155.281 222.368V229.071H153.023V220.618H155.141L155.281 222.368ZM154.969 224.548H154.344C154.344 223.959 154.414 223.418 154.555 222.923C154.701 222.423 154.911 221.991 155.188 221.626C155.469 221.256 155.815 220.97 156.227 220.767C156.638 220.563 157.115 220.462 157.656 220.462C158.031 220.462 158.375 220.519 158.688 220.634C159 220.743 159.268 220.918 159.492 221.157C159.721 221.392 159.898 221.699 160.023 222.079C160.148 222.454 160.211 222.905 160.211 223.431V229.071H157.961V223.681C157.961 223.295 157.909 222.998 157.805 222.79C157.701 222.582 157.552 222.436 157.359 222.353C157.172 222.269 156.945 222.228 156.68 222.228C156.388 222.228 156.133 222.287 155.914 222.407C155.701 222.527 155.523 222.694 155.383 222.907C155.242 223.116 155.138 223.36 155.07 223.642C155.003 223.923 154.969 224.225 154.969 224.548ZM160 224.29L159.195 224.392C159.195 223.84 159.263 223.326 159.398 222.853C159.539 222.379 159.745 221.962 160.016 221.603C160.292 221.243 160.633 220.965 161.039 220.767C161.445 220.563 161.914 220.462 162.445 220.462C162.852 220.462 163.221 220.522 163.555 220.642C163.888 220.756 164.172 220.941 164.406 221.196C164.646 221.446 164.828 221.774 164.953 222.181C165.083 222.587 165.148 223.084 165.148 223.673V229.071H162.891V223.673C162.891 223.282 162.839 222.985 162.734 222.782C162.635 222.574 162.49 222.431 162.297 222.353C162.109 222.269 161.885 222.228 161.625 222.228C161.354 222.228 161.117 222.282 160.914 222.392C160.711 222.496 160.542 222.642 160.406 222.829C160.271 223.017 160.169 223.235 160.102 223.485C160.034 223.73 160 223.998 160 224.29ZM171.453 227.165V223.399C171.453 223.129 171.409 222.897 171.32 222.704C171.232 222.506 171.094 222.353 170.906 222.243C170.724 222.134 170.487 222.079 170.195 222.079C169.945 222.079 169.729 222.123 169.547 222.212C169.365 222.295 169.224 222.418 169.125 222.579C169.026 222.735 168.977 222.92 168.977 223.134H166.727C166.727 222.774 166.81 222.433 166.977 222.11C167.143 221.787 167.385 221.504 167.703 221.259C168.021 221.009 168.398 220.813 168.836 220.673C169.279 220.532 169.773 220.462 170.32 220.462C170.977 220.462 171.56 220.571 172.07 220.79C172.581 221.009 172.982 221.337 173.273 221.774C173.57 222.212 173.719 222.759 173.719 223.415V227.032C173.719 227.496 173.747 227.876 173.805 228.173C173.862 228.465 173.945 228.72 174.055 228.938V229.071H171.781C171.672 228.842 171.589 228.556 171.531 228.212C171.479 227.863 171.453 227.514 171.453 227.165ZM171.75 223.923L171.766 225.196H170.508C170.211 225.196 169.953 225.23 169.734 225.298C169.516 225.366 169.336 225.462 169.195 225.587C169.055 225.707 168.951 225.847 168.883 226.009C168.82 226.17 168.789 226.347 168.789 226.54C168.789 226.733 168.833 226.907 168.922 227.063C169.01 227.215 169.138 227.334 169.305 227.423C169.471 227.506 169.667 227.548 169.891 227.548C170.229 227.548 170.523 227.48 170.773 227.345C171.023 227.209 171.216 227.043 171.352 226.845C171.492 226.647 171.565 226.459 171.57 226.282L172.164 227.235C172.081 227.449 171.966 227.67 171.82 227.899C171.68 228.129 171.5 228.345 171.281 228.548C171.062 228.746 170.799 228.91 170.492 229.04C170.185 229.165 169.82 229.228 169.398 229.228C168.862 229.228 168.375 229.121 167.938 228.907C167.505 228.688 167.161 228.389 166.906 228.009C166.656 227.623 166.531 227.186 166.531 226.696C166.531 226.254 166.615 225.86 166.781 225.517C166.948 225.173 167.193 224.884 167.516 224.649C167.844 224.41 168.253 224.23 168.742 224.11C169.232 223.985 169.799 223.923 170.445 223.923H171.75ZM181.266 217.696V231.181H179.922V217.696H181.266ZM188.664 217.696H190.648L193.57 226.048L196.492 217.696H198.477L194.367 229.071H192.773L188.664 217.696ZM187.594 217.696H189.57L189.93 225.837V229.071H187.594V217.696ZM197.57 217.696H199.555V229.071H197.211V225.837L197.57 217.696ZM206.031 227.165V223.399C206.031 223.129 205.987 222.897 205.898 222.704C205.81 222.506 205.672 222.353 205.484 222.243C205.302 222.134 205.065 222.079 204.773 222.079C204.523 222.079 204.307 222.123 204.125 222.212C203.943 222.295 203.802 222.418 203.703 222.579C203.604 222.735 203.555 222.92 203.555 223.134H201.305C201.305 222.774 201.388 222.433 201.555 222.11C201.721 221.787 201.964 221.504 202.281 221.259C202.599 221.009 202.977 220.813 203.414 220.673C203.857 220.532 204.352 220.462 204.898 220.462C205.555 220.462 206.138 220.571 206.648 220.79C207.159 221.009 207.56 221.337 207.852 221.774C208.148 222.212 208.297 222.759 208.297 223.415V227.032C208.297 227.496 208.326 227.876 208.383 228.173C208.44 228.465 208.523 228.72 208.633 228.938V229.071H206.359C206.25 228.842 206.167 228.556 206.109 228.212C206.057 227.863 206.031 227.514 206.031 227.165ZM206.328 223.923L206.344 225.196H205.086C204.789 225.196 204.531 225.23 204.312 225.298C204.094 225.366 203.914 225.462 203.773 225.587C203.633 225.707 203.529 225.847 203.461 226.009C203.398 226.17 203.367 226.347 203.367 226.54C203.367 226.733 203.411 226.907 203.5 227.063C203.589 227.215 203.716 227.334 203.883 227.423C204.049 227.506 204.245 227.548 204.469 227.548C204.807 227.548 205.102 227.48 205.352 227.345C205.602 227.209 205.794 227.043 205.93 226.845C206.07 226.647 206.143 226.459 206.148 226.282L206.742 227.235C206.659 227.449 206.544 227.67 206.398 227.899C206.258 228.129 206.078 228.345 205.859 228.548C205.641 228.746 205.378 228.91 205.07 229.04C204.763 229.165 204.398 229.228 203.977 229.228C203.44 229.228 202.953 229.121 202.516 228.907C202.083 228.688 201.74 228.389 201.484 228.009C201.234 227.623 201.109 227.186 201.109 226.696C201.109 226.254 201.193 225.86 201.359 225.517C201.526 225.173 201.771 224.884 202.094 224.649C202.422 224.41 202.831 224.23 203.32 224.11C203.81 223.985 204.378 223.923 205.023 223.923H206.328ZM214.172 220.618V222.212H209.25V220.618H214.172ZM210.469 218.532H212.719V226.524C212.719 226.769 212.75 226.957 212.812 227.087C212.88 227.217 212.979 227.308 213.109 227.36C213.24 227.407 213.404 227.431 213.602 227.431C213.742 227.431 213.867 227.425 213.977 227.415C214.091 227.399 214.188 227.384 214.266 227.368L214.273 229.024C214.081 229.087 213.872 229.136 213.648 229.173C213.424 229.209 213.177 229.228 212.906 229.228C212.411 229.228 211.979 229.147 211.609 228.985C211.245 228.819 210.964 228.553 210.766 228.188C210.568 227.824 210.469 227.345 210.469 226.751V218.532ZM219.344 229.228C218.688 229.228 218.099 229.123 217.578 228.915C217.057 228.701 216.615 228.407 216.25 228.032C215.891 227.657 215.615 227.222 215.422 226.728C215.229 226.228 215.133 225.696 215.133 225.134V224.821C215.133 224.181 215.224 223.595 215.406 223.063C215.589 222.532 215.849 222.071 216.188 221.681C216.531 221.29 216.948 220.991 217.438 220.782C217.927 220.569 218.479 220.462 219.094 220.462C219.693 220.462 220.224 220.561 220.688 220.759C221.151 220.957 221.539 221.238 221.852 221.603C222.169 221.967 222.409 222.405 222.57 222.915C222.732 223.42 222.812 223.983 222.812 224.603V225.54H216.094V224.04H220.602V223.868C220.602 223.556 220.544 223.277 220.43 223.032C220.32 222.782 220.154 222.584 219.93 222.438C219.706 222.293 219.419 222.22 219.07 222.22C218.773 222.22 218.518 222.285 218.305 222.415C218.091 222.545 217.917 222.728 217.781 222.962C217.651 223.196 217.552 223.472 217.484 223.79C217.422 224.103 217.391 224.446 217.391 224.821V225.134C217.391 225.472 217.438 225.785 217.531 226.071C217.63 226.358 217.768 226.605 217.945 226.813C218.128 227.022 218.346 227.183 218.602 227.298C218.862 227.412 219.156 227.47 219.484 227.47C219.891 227.47 220.268 227.392 220.617 227.235C220.971 227.074 221.276 226.832 221.531 226.509L222.625 227.696C222.448 227.951 222.206 228.196 221.898 228.431C221.596 228.665 221.232 228.858 220.805 229.009C220.378 229.155 219.891 229.228 219.344 229.228ZM226.344 222.462V229.071H224.094V220.618H226.211L226.344 222.462ZM228.891 220.563L228.852 222.649C228.742 222.634 228.609 222.621 228.453 222.61C228.302 222.595 228.164 222.587 228.039 222.587C227.721 222.587 227.445 222.629 227.211 222.712C226.982 222.79 226.789 222.907 226.633 223.063C226.482 223.22 226.367 223.41 226.289 223.634C226.216 223.858 226.174 224.113 226.164 224.399L225.711 224.259C225.711 223.712 225.766 223.209 225.875 222.751C225.984 222.287 226.143 221.884 226.352 221.54C226.565 221.196 226.826 220.931 227.133 220.743C227.44 220.556 227.792 220.462 228.188 220.462C228.312 220.462 228.44 220.472 228.57 220.493C228.701 220.509 228.807 220.532 228.891 220.563ZM232.328 220.618V229.071H230.07V220.618H232.328ZM229.93 218.415C229.93 218.087 230.044 217.816 230.273 217.603C230.503 217.389 230.81 217.282 231.195 217.282C231.576 217.282 231.88 217.389 232.109 217.603C232.344 217.816 232.461 218.087 232.461 218.415C232.461 218.743 232.344 219.014 232.109 219.228C231.88 219.441 231.576 219.548 231.195 219.548C230.81 219.548 230.503 219.441 230.273 219.228C230.044 219.014 229.93 218.743 229.93 218.415ZM238.75 227.165V223.399C238.75 223.129 238.706 222.897 238.617 222.704C238.529 222.506 238.391 222.353 238.203 222.243C238.021 222.134 237.784 222.079 237.492 222.079C237.242 222.079 237.026 222.123 236.844 222.212C236.661 222.295 236.521 222.418 236.422 222.579C236.323 222.735 236.273 222.92 236.273 223.134H234.023C234.023 222.774 234.107 222.433 234.273 222.11C234.44 221.787 234.682 221.504 235 221.259C235.318 221.009 235.695 220.813 236.133 220.673C236.576 220.532 237.07 220.462 237.617 220.462C238.273 220.462 238.857 220.571 239.367 220.79C239.878 221.009 240.279 221.337 240.57 221.774C240.867 222.212 241.016 222.759 241.016 223.415V227.032C241.016 227.496 241.044 227.876 241.102 228.173C241.159 228.465 241.242 228.72 241.352 228.938V229.071H239.078C238.969 228.842 238.885 228.556 238.828 228.212C238.776 227.863 238.75 227.514 238.75 227.165ZM239.047 223.923L239.062 225.196H237.805C237.508 225.196 237.25 225.23 237.031 225.298C236.812 225.366 236.633 225.462 236.492 225.587C236.352 225.707 236.247 225.847 236.18 226.009C236.117 226.17 236.086 226.347 236.086 226.54C236.086 226.733 236.13 226.907 236.219 227.063C236.307 227.215 236.435 227.334 236.602 227.423C236.768 227.506 236.964 227.548 237.188 227.548C237.526 227.548 237.82 227.48 238.07 227.345C238.32 227.209 238.513 227.043 238.648 226.845C238.789 226.647 238.862 226.459 238.867 226.282L239.461 227.235C239.378 227.449 239.263 227.67 239.117 227.899C238.977 228.129 238.797 228.345 238.578 228.548C238.359 228.746 238.096 228.91 237.789 229.04C237.482 229.165 237.117 229.228 236.695 229.228C236.159 229.228 235.672 229.121 235.234 228.907C234.802 228.688 234.458 228.389 234.203 228.009C233.953 227.623 233.828 227.186 233.828 226.696C233.828 226.254 233.911 225.86 234.078 225.517C234.245 225.173 234.49 224.884 234.812 224.649C235.141 224.41 235.549 224.23 236.039 224.11C236.529 223.985 237.096 223.923 237.742 223.923H239.047ZM245.125 217.071V229.071H242.867V217.071H245.125ZM257.391 217.696H259.727V225.212C259.727 226.087 259.539 226.824 259.164 227.423C258.794 228.022 258.281 228.472 257.625 228.774C256.974 229.076 256.224 229.228 255.375 229.228C254.526 229.228 253.771 229.076 253.109 228.774C252.453 228.472 251.938 228.022 251.562 227.423C251.193 226.824 251.008 226.087 251.008 225.212V217.696H253.352V225.212C253.352 225.722 253.432 226.139 253.594 226.462C253.755 226.785 253.987 227.022 254.289 227.173C254.596 227.324 254.958 227.399 255.375 227.399C255.802 227.399 256.164 227.324 256.461 227.173C256.763 227.022 256.992 226.785 257.148 226.462C257.31 226.139 257.391 225.722 257.391 225.212V217.696ZM264.148 217.696V229.071H261.812V217.696H264.148ZM272.016 217.696V231.181H270.672V217.696H272.016ZM282.969 219.642L279.875 229.071H277.383L281.609 217.696H283.195L282.969 219.642ZM285.539 229.071L282.438 219.642L282.188 217.696H283.789L288.039 229.071H285.539ZM285.398 224.837V226.673H279.391V224.837H285.398ZM290.906 222.423V229.071H288.656V220.618H290.766L290.906 222.423ZM290.578 224.548H289.969C289.969 223.923 290.049 223.36 290.211 222.86C290.372 222.355 290.599 221.925 290.891 221.571C291.182 221.212 291.529 220.938 291.93 220.751C292.336 220.558 292.789 220.462 293.289 220.462C293.685 220.462 294.047 220.519 294.375 220.634C294.703 220.748 294.984 220.931 295.219 221.181C295.458 221.431 295.641 221.761 295.766 222.173C295.896 222.584 295.961 223.087 295.961 223.681V229.071H293.695V223.673C293.695 223.298 293.643 223.006 293.539 222.798C293.435 222.59 293.281 222.444 293.078 222.36C292.88 222.272 292.635 222.228 292.344 222.228C292.042 222.228 291.779 222.287 291.555 222.407C291.336 222.527 291.154 222.694 291.008 222.907C290.867 223.116 290.76 223.36 290.688 223.642C290.615 223.923 290.578 224.225 290.578 224.548ZM301.812 220.618V222.212H296.891V220.618H301.812ZM298.109 218.532H300.359V226.524C300.359 226.769 300.391 226.957 300.453 227.087C300.521 227.217 300.62 227.308 300.75 227.36C300.88 227.407 301.044 227.431 301.242 227.431C301.383 227.431 301.508 227.425 301.617 227.415C301.732 227.399 301.828 227.384 301.906 227.368L301.914 229.024C301.721 229.087 301.513 229.136 301.289 229.173C301.065 229.209 300.818 229.228 300.547 229.228C300.052 229.228 299.62 229.147 299.25 228.985C298.885 228.819 298.604 228.553 298.406 228.188C298.208 227.824 298.109 227.345 298.109 226.751V218.532Z" fill="black"/>
<path d="M111.942 269.799C116.328 269.799 119.884 266.242 119.884 261.855C119.884 257.467 116.328 253.91 111.942 253.91C107.556 253.91 104 257.467 104 261.855C104 266.242 107.556 269.799 111.942 269.799Z" fill="#6C63FF"/>
<path d="M111.06 275.096V273.33C117.628 273.33 122.973 267.985 122.973 261.413C122.973 254.842 117.628 249.496 111.06 249.496V247.731C118.602 247.731 124.738 253.868 124.738 261.413C124.738 268.958 118.602 275.096 111.06 275.096Z" fill="#3F3D56"/>
<path d="M131.016 255.276H135.258C136.128 255.276 136.875 255.406 137.5 255.666C138.13 255.927 138.615 256.312 138.953 256.823C139.292 257.333 139.461 257.961 139.461 258.705C139.461 259.315 139.357 259.838 139.148 260.276C138.945 260.708 138.656 261.07 138.281 261.362C137.911 261.648 137.477 261.877 136.977 262.049L136.234 262.44H132.547L132.531 260.612H135.273C135.685 260.612 136.026 260.539 136.297 260.393C136.568 260.247 136.771 260.044 136.906 259.784C137.047 259.523 137.117 259.221 137.117 258.877C137.117 258.513 137.049 258.198 136.914 257.932C136.779 257.666 136.573 257.463 136.297 257.323C136.021 257.182 135.674 257.112 135.258 257.112H133.359V266.651H131.016V255.276ZM137.375 266.651L134.781 261.58L137.258 261.565L139.883 266.541V266.651H137.375ZM145.016 266.807C144.359 266.807 143.771 266.703 143.25 266.495C142.729 266.281 142.286 265.987 141.922 265.612C141.562 265.237 141.286 264.802 141.094 264.307C140.901 263.807 140.805 263.276 140.805 262.713V262.401C140.805 261.76 140.896 261.174 141.078 260.643C141.26 260.112 141.521 259.651 141.859 259.26C142.203 258.87 142.62 258.57 143.109 258.362C143.599 258.148 144.151 258.041 144.766 258.041C145.365 258.041 145.896 258.14 146.359 258.338C146.823 258.536 147.211 258.817 147.523 259.182C147.841 259.547 148.081 259.984 148.242 260.495C148.404 261 148.484 261.562 148.484 262.182V263.12H141.766V261.62H146.273V261.448C146.273 261.135 146.216 260.856 146.102 260.612C145.992 260.362 145.826 260.164 145.602 260.018C145.378 259.872 145.091 259.799 144.742 259.799C144.445 259.799 144.19 259.864 143.977 259.995C143.763 260.125 143.589 260.307 143.453 260.541C143.323 260.776 143.224 261.052 143.156 261.37C143.094 261.682 143.062 262.026 143.062 262.401V262.713C143.062 263.052 143.109 263.364 143.203 263.651C143.302 263.937 143.44 264.185 143.617 264.393C143.799 264.601 144.018 264.763 144.273 264.877C144.534 264.992 144.828 265.049 145.156 265.049C145.562 265.049 145.94 264.971 146.289 264.815C146.643 264.653 146.948 264.411 147.203 264.088L148.297 265.276C148.12 265.531 147.878 265.776 147.57 266.01C147.268 266.245 146.904 266.437 146.477 266.588C146.049 266.734 145.562 266.807 145.016 266.807ZM154.328 264.745V260.979C154.328 260.708 154.284 260.476 154.195 260.284C154.107 260.086 153.969 259.932 153.781 259.823C153.599 259.713 153.362 259.659 153.07 259.659C152.82 259.659 152.604 259.703 152.422 259.791C152.24 259.875 152.099 259.997 152 260.159C151.901 260.315 151.852 260.5 151.852 260.713H149.602C149.602 260.354 149.685 260.013 149.852 259.69C150.018 259.367 150.26 259.083 150.578 258.838C150.896 258.588 151.273 258.393 151.711 258.252C152.154 258.112 152.648 258.041 153.195 258.041C153.852 258.041 154.435 258.151 154.945 258.37C155.456 258.588 155.857 258.916 156.148 259.354C156.445 259.791 156.594 260.338 156.594 260.995V264.612C156.594 265.075 156.622 265.455 156.68 265.752C156.737 266.044 156.82 266.299 156.93 266.518V266.651H154.656C154.547 266.422 154.464 266.135 154.406 265.791C154.354 265.442 154.328 265.093 154.328 264.745ZM154.625 261.502L154.641 262.776H153.383C153.086 262.776 152.828 262.81 152.609 262.877C152.391 262.945 152.211 263.041 152.07 263.166C151.93 263.286 151.826 263.427 151.758 263.588C151.695 263.75 151.664 263.927 151.664 264.12C151.664 264.312 151.708 264.487 151.797 264.643C151.885 264.794 152.013 264.914 152.18 265.002C152.346 265.086 152.542 265.127 152.766 265.127C153.104 265.127 153.398 265.06 153.648 264.924C153.898 264.789 154.091 264.622 154.227 264.424C154.367 264.226 154.44 264.039 154.445 263.862L155.039 264.815C154.956 265.028 154.841 265.25 154.695 265.479C154.555 265.708 154.375 265.924 154.156 266.127C153.938 266.325 153.674 266.489 153.367 266.62C153.06 266.745 152.695 266.807 152.273 266.807C151.737 266.807 151.25 266.7 150.812 266.487C150.38 266.268 150.036 265.968 149.781 265.588C149.531 265.203 149.406 264.765 149.406 264.276C149.406 263.833 149.49 263.44 149.656 263.096C149.823 262.752 150.068 262.463 150.391 262.229C150.719 261.989 151.128 261.81 151.617 261.69C152.107 261.565 152.674 261.502 153.32 261.502H154.625ZM161.82 265.049C162.096 265.049 162.341 264.997 162.555 264.893C162.768 264.784 162.935 264.633 163.055 264.44C163.18 264.242 163.245 264.01 163.25 263.745H165.367C165.362 264.338 165.203 264.867 164.891 265.33C164.578 265.789 164.159 266.151 163.633 266.416C163.107 266.677 162.518 266.807 161.867 266.807C161.211 266.807 160.638 266.698 160.148 266.479C159.664 266.26 159.26 265.958 158.938 265.573C158.615 265.182 158.372 264.729 158.211 264.213C158.049 263.692 157.969 263.135 157.969 262.541V262.315C157.969 261.716 158.049 261.159 158.211 260.643C158.372 260.122 158.615 259.669 158.938 259.284C159.26 258.893 159.664 258.588 160.148 258.37C160.633 258.151 161.201 258.041 161.852 258.041C162.544 258.041 163.151 258.174 163.672 258.44C164.198 258.705 164.609 259.086 164.906 259.58C165.208 260.07 165.362 260.651 165.367 261.323H163.25C163.245 261.041 163.185 260.786 163.07 260.557C162.961 260.328 162.799 260.146 162.586 260.01C162.378 259.87 162.12 259.799 161.812 259.799C161.484 259.799 161.216 259.87 161.008 260.01C160.799 260.146 160.638 260.333 160.523 260.573C160.409 260.807 160.328 261.075 160.281 261.377C160.24 261.674 160.219 261.987 160.219 262.315V262.541C160.219 262.87 160.24 263.185 160.281 263.487C160.323 263.789 160.401 264.057 160.516 264.291C160.635 264.526 160.799 264.711 161.008 264.846C161.216 264.981 161.487 265.049 161.82 265.049ZM170.812 258.198V259.791H165.891V258.198H170.812ZM167.109 256.112H169.359V264.104C169.359 264.349 169.391 264.536 169.453 264.666C169.521 264.797 169.62 264.888 169.75 264.94C169.88 264.987 170.044 265.01 170.242 265.01C170.383 265.01 170.508 265.005 170.617 264.995C170.732 264.979 170.828 264.963 170.906 264.948L170.914 266.604C170.721 266.666 170.513 266.716 170.289 266.752C170.065 266.789 169.818 266.807 169.547 266.807C169.052 266.807 168.62 266.726 168.25 266.565C167.885 266.398 167.604 266.133 167.406 265.768C167.208 265.403 167.109 264.924 167.109 264.33V256.112ZM183.438 260.315V262.276H175.641V260.315H183.438ZM180.609 257.229V265.51H178.477V257.229H180.609ZM188.922 255.276H193.164C194.034 255.276 194.781 255.406 195.406 255.666C196.036 255.927 196.521 256.312 196.859 256.823C197.198 257.333 197.367 257.961 197.367 258.705C197.367 259.315 197.263 259.838 197.055 260.276C196.852 260.708 196.562 261.07 196.188 261.362C195.818 261.648 195.383 261.877 194.883 262.049L194.141 262.44H190.453L190.438 260.612H193.18C193.591 260.612 193.932 260.539 194.203 260.393C194.474 260.247 194.677 260.044 194.812 259.784C194.953 259.523 195.023 259.221 195.023 258.877C195.023 258.513 194.956 258.198 194.82 257.932C194.685 257.666 194.479 257.463 194.203 257.323C193.927 257.182 193.581 257.112 193.164 257.112H191.266V266.651H188.922V255.276ZM195.281 266.651L192.688 261.58L195.164 261.565L197.789 266.541V266.651H195.281ZM202.922 266.807C202.266 266.807 201.677 266.703 201.156 266.495C200.635 266.281 200.193 265.987 199.828 265.612C199.469 265.237 199.193 264.802 199 264.307C198.807 263.807 198.711 263.276 198.711 262.713V262.401C198.711 261.76 198.802 261.174 198.984 260.643C199.167 260.112 199.427 259.651 199.766 259.26C200.109 258.87 200.526 258.57 201.016 258.362C201.505 258.148 202.057 258.041 202.672 258.041C203.271 258.041 203.802 258.14 204.266 258.338C204.729 258.536 205.117 258.817 205.43 259.182C205.747 259.547 205.987 259.984 206.148 260.495C206.31 261 206.391 261.562 206.391 262.182V263.12H199.672V261.62H204.18V261.448C204.18 261.135 204.122 260.856 204.008 260.612C203.898 260.362 203.732 260.164 203.508 260.018C203.284 259.872 202.997 259.799 202.648 259.799C202.352 259.799 202.096 259.864 201.883 259.995C201.669 260.125 201.495 260.307 201.359 260.541C201.229 260.776 201.13 261.052 201.062 261.37C201 261.682 200.969 262.026 200.969 262.401V262.713C200.969 263.052 201.016 263.364 201.109 263.651C201.208 263.937 201.346 264.185 201.523 264.393C201.706 264.601 201.924 264.763 202.18 264.877C202.44 264.992 202.734 265.049 203.062 265.049C203.469 265.049 203.846 264.971 204.195 264.815C204.549 264.653 204.854 264.411 205.109 264.088L206.203 265.276C206.026 265.531 205.784 265.776 205.477 266.01C205.174 266.245 204.81 266.437 204.383 266.588C203.956 266.734 203.469 266.807 202.922 266.807ZM212.664 264.807V254.651H214.93V266.651H212.891L212.664 264.807ZM207.32 262.526V262.362C207.32 261.716 207.393 261.13 207.539 260.604C207.685 260.073 207.898 259.617 208.18 259.237C208.461 258.856 208.807 258.562 209.219 258.354C209.63 258.146 210.099 258.041 210.625 258.041C211.12 258.041 211.552 258.146 211.922 258.354C212.297 258.562 212.615 258.859 212.875 259.245C213.141 259.625 213.354 260.075 213.516 260.596C213.677 261.112 213.794 261.677 213.867 262.291V262.651C213.794 263.239 213.677 263.786 213.516 264.291C213.354 264.797 213.141 265.239 212.875 265.62C212.615 265.995 212.297 266.286 211.922 266.495C211.547 266.703 211.109 266.807 210.609 266.807C210.083 266.807 209.615 266.7 209.203 266.487C208.797 266.273 208.453 265.974 208.172 265.588C207.896 265.203 207.685 264.75 207.539 264.229C207.393 263.708 207.32 263.14 207.32 262.526ZM209.57 262.362V262.526C209.57 262.875 209.596 263.2 209.648 263.502C209.706 263.804 209.797 264.073 209.922 264.307C210.052 264.536 210.219 264.716 210.422 264.846C210.63 264.971 210.883 265.034 211.18 265.034C211.565 265.034 211.883 264.948 212.133 264.776C212.383 264.599 212.573 264.356 212.703 264.049C212.839 263.742 212.917 263.388 212.938 262.987V261.963C212.922 261.635 212.875 261.341 212.797 261.08C212.724 260.815 212.615 260.588 212.469 260.401C212.328 260.213 212.151 260.067 211.938 259.963C211.729 259.859 211.482 259.807 211.195 259.807C210.904 259.807 210.654 259.875 210.445 260.01C210.237 260.14 210.068 260.32 209.938 260.549C209.812 260.778 209.719 261.049 209.656 261.362C209.599 261.669 209.57 262.002 209.57 262.362ZM221.688 264.627V258.198H223.938V266.651H221.82L221.688 264.627ZM221.938 262.893L222.602 262.877C222.602 263.44 222.536 263.963 222.406 264.448C222.276 264.927 222.081 265.343 221.82 265.698C221.56 266.047 221.232 266.32 220.836 266.518C220.44 266.711 219.974 266.807 219.438 266.807C219.026 266.807 218.646 266.75 218.297 266.635C217.953 266.515 217.656 266.33 217.406 266.08C217.161 265.825 216.969 265.5 216.828 265.104C216.693 264.703 216.625 264.221 216.625 263.659V258.198H218.875V263.674C218.875 263.924 218.904 264.135 218.961 264.307C219.023 264.479 219.109 264.62 219.219 264.729C219.328 264.838 219.456 264.916 219.602 264.963C219.753 265.01 219.919 265.034 220.102 265.034C220.565 265.034 220.93 264.94 221.195 264.752C221.466 264.565 221.656 264.31 221.766 263.987C221.88 263.659 221.938 263.294 221.938 262.893ZM227.469 258.198L228.867 260.768L230.305 258.198H232.703L230.312 262.33L232.812 266.651H230.406L228.883 263.932L227.359 266.651H224.953L227.453 262.33L225.062 258.198H227.469ZM245.141 260.315V262.276H237.344V260.315H245.141ZM242.312 257.229V265.51H240.18V257.229H242.312ZM253.367 264.846L255.633 255.276H256.898L257.188 256.87L254.773 266.651H253.414L253.367 264.846ZM252.203 255.276L254.078 264.846L253.922 266.651H252.406L249.883 255.276H252.203ZM259.18 264.807L261.031 255.276H263.352L260.836 266.651H259.32L259.18 264.807ZM257.609 255.276L259.891 264.885L259.828 266.651H258.469L256.039 256.862L256.352 255.276H257.609ZM268.125 266.807C267.469 266.807 266.88 266.703 266.359 266.495C265.839 266.281 265.396 265.987 265.031 265.612C264.672 265.237 264.396 264.802 264.203 264.307C264.01 263.807 263.914 263.276 263.914 262.713V262.401C263.914 261.76 264.005 261.174 264.188 260.643C264.37 260.112 264.63 259.651 264.969 259.26C265.312 258.87 265.729 258.57 266.219 258.362C266.708 258.148 267.26 258.041 267.875 258.041C268.474 258.041 269.005 258.14 269.469 258.338C269.932 258.536 270.32 258.817 270.633 259.182C270.951 259.547 271.19 259.984 271.352 260.495C271.513 261 271.594 261.562 271.594 262.182V263.12H264.875V261.62H269.383V261.448C269.383 261.135 269.326 260.856 269.211 260.612C269.102 260.362 268.935 260.164 268.711 260.018C268.487 259.872 268.201 259.799 267.852 259.799C267.555 259.799 267.299 259.864 267.086 259.995C266.872 260.125 266.698 260.307 266.562 260.541C266.432 260.776 266.333 261.052 266.266 261.37C266.203 261.682 266.172 262.026 266.172 262.401V262.713C266.172 263.052 266.219 263.364 266.312 263.651C266.411 263.937 266.549 264.185 266.727 264.393C266.909 264.601 267.128 264.763 267.383 264.877C267.643 264.992 267.938 265.049 268.266 265.049C268.672 265.049 269.049 264.971 269.398 264.815C269.753 264.653 270.057 264.411 270.312 264.088L271.406 265.276C271.229 265.531 270.987 265.776 270.68 266.01C270.378 266.245 270.013 266.437 269.586 266.588C269.159 266.734 268.672 266.807 268.125 266.807ZM272.875 254.651H275.125V264.713L274.898 266.651H272.875V254.651ZM280.477 262.338V262.502C280.477 263.133 280.409 263.711 280.273 264.237C280.143 264.763 279.94 265.218 279.664 265.604C279.388 265.984 279.044 266.281 278.633 266.495C278.227 266.703 277.747 266.807 277.195 266.807C276.68 266.807 276.232 266.703 275.852 266.495C275.477 266.286 275.161 265.992 274.906 265.612C274.651 265.231 274.445 264.786 274.289 264.276C274.133 263.765 274.016 263.208 273.938 262.604V262.245C274.016 261.64 274.133 261.083 274.289 260.573C274.445 260.062 274.651 259.617 274.906 259.237C275.161 258.856 275.477 258.562 275.852 258.354C276.227 258.146 276.669 258.041 277.18 258.041C277.737 258.041 278.221 258.148 278.633 258.362C279.049 258.57 279.393 258.867 279.664 259.252C279.94 259.633 280.143 260.086 280.273 260.612C280.409 261.133 280.477 261.708 280.477 262.338ZM278.227 262.502V262.338C278.227 261.995 278.201 261.672 278.148 261.37C278.102 261.062 278.018 260.794 277.898 260.565C277.779 260.33 277.615 260.146 277.406 260.01C277.203 259.875 276.94 259.807 276.617 259.807C276.31 259.807 276.049 259.859 275.836 259.963C275.622 260.067 275.445 260.213 275.305 260.401C275.169 260.588 275.068 260.812 275 261.073C274.932 261.328 274.891 261.609 274.875 261.916V262.94C274.891 263.351 274.958 263.716 275.078 264.034C275.203 264.346 275.391 264.593 275.641 264.776C275.896 264.953 276.227 265.041 276.633 265.041C276.951 265.041 277.214 264.979 277.422 264.854C277.63 264.729 277.792 264.552 277.906 264.323C278.026 264.093 278.109 263.825 278.156 263.518C278.203 263.205 278.227 262.867 278.227 262.502ZM284.125 259.823V269.901H281.875V258.198H283.961L284.125 259.823ZM289.477 262.33V262.495C289.477 263.109 289.404 263.679 289.258 264.205C289.117 264.731 288.909 265.19 288.633 265.58C288.357 265.966 288.013 266.268 287.602 266.487C287.195 266.7 286.727 266.807 286.195 266.807C285.68 266.807 285.232 266.703 284.852 266.495C284.471 266.286 284.151 265.995 283.891 265.62C283.635 265.239 283.43 264.799 283.273 264.299C283.117 263.799 282.997 263.263 282.914 262.69V262.26C282.997 261.646 283.117 261.083 283.273 260.573C283.43 260.057 283.635 259.612 283.891 259.237C284.151 258.856 284.469 258.562 284.844 258.354C285.224 258.146 285.669 258.041 286.18 258.041C286.716 258.041 287.188 258.143 287.594 258.346C288.005 258.549 288.349 258.841 288.625 259.221C288.906 259.601 289.117 260.054 289.258 260.58C289.404 261.106 289.477 261.69 289.477 262.33ZM287.219 262.495V262.33C287.219 261.971 287.188 261.64 287.125 261.338C287.068 261.031 286.974 260.763 286.844 260.534C286.719 260.304 286.552 260.127 286.344 260.002C286.141 259.872 285.893 259.807 285.602 259.807C285.294 259.807 285.031 259.856 284.812 259.955C284.599 260.054 284.424 260.198 284.289 260.385C284.154 260.573 284.052 260.797 283.984 261.057C283.917 261.317 283.875 261.612 283.859 261.94V263.026C283.885 263.411 283.958 263.758 284.078 264.065C284.198 264.367 284.383 264.606 284.633 264.784C284.883 264.961 285.211 265.049 285.617 265.049C285.914 265.049 286.164 264.984 286.367 264.854C286.57 264.718 286.734 264.534 286.859 264.299C286.99 264.065 287.081 263.794 287.133 263.487C287.19 263.179 287.219 262.849 287.219 262.495ZM295.438 264.745V260.979C295.438 260.708 295.393 260.476 295.305 260.284C295.216 260.086 295.078 259.932 294.891 259.823C294.708 259.713 294.471 259.659 294.18 259.659C293.93 259.659 293.714 259.703 293.531 259.791C293.349 259.875 293.208 259.997 293.109 260.159C293.01 260.315 292.961 260.5 292.961 260.713H290.711C290.711 260.354 290.794 260.013 290.961 259.69C291.128 259.367 291.37 259.083 291.688 258.838C292.005 258.588 292.383 258.393 292.82 258.252C293.263 258.112 293.758 258.041 294.305 258.041C294.961 258.041 295.544 258.151 296.055 258.37C296.565 258.588 296.966 258.916 297.258 259.354C297.555 259.791 297.703 260.338 297.703 260.995V264.612C297.703 265.075 297.732 265.455 297.789 265.752C297.846 266.044 297.93 266.299 298.039 266.518V266.651H295.766C295.656 266.422 295.573 266.135 295.516 265.791C295.464 265.442 295.438 265.093 295.438 264.745ZM295.734 261.502L295.75 262.776H294.492C294.195 262.776 293.938 262.81 293.719 262.877C293.5 262.945 293.32 263.041 293.18 263.166C293.039 263.286 292.935 263.427 292.867 263.588C292.805 263.75 292.773 263.927 292.773 264.12C292.773 264.312 292.818 264.487 292.906 264.643C292.995 264.794 293.122 264.914 293.289 265.002C293.456 265.086 293.651 265.127 293.875 265.127C294.214 265.127 294.508 265.06 294.758 264.924C295.008 264.789 295.201 264.622 295.336 264.424C295.477 264.226 295.549 264.039 295.555 263.862L296.148 264.815C296.065 265.028 295.951 265.25 295.805 265.479C295.664 265.708 295.484 265.924 295.266 266.127C295.047 266.325 294.784 266.489 294.477 266.62C294.169 266.745 293.805 266.807 293.383 266.807C292.846 266.807 292.359 266.7 291.922 266.487C291.49 266.268 291.146 265.968 290.891 265.588C290.641 265.203 290.516 264.765 290.516 264.276C290.516 263.833 290.599 263.44 290.766 263.096C290.932 262.752 291.177 262.463 291.5 262.229C291.828 261.989 292.237 261.81 292.727 261.69C293.216 261.565 293.784 261.502 294.43 261.502H295.734ZM302.93 265.049C303.206 265.049 303.451 264.997 303.664 264.893C303.878 264.784 304.044 264.633 304.164 264.44C304.289 264.242 304.354 264.01 304.359 263.745H306.477C306.471 264.338 306.312 264.867 306 265.33C305.688 265.789 305.268 266.151 304.742 266.416C304.216 266.677 303.628 266.807 302.977 266.807C302.32 266.807 301.747 266.698 301.258 266.479C300.773 266.26 300.37 265.958 300.047 265.573C299.724 265.182 299.482 264.729 299.32 264.213C299.159 263.692 299.078 263.135 299.078 262.541V262.315C299.078 261.716 299.159 261.159 299.32 260.643C299.482 260.122 299.724 259.669 300.047 259.284C300.37 258.893 300.773 258.588 301.258 258.37C301.742 258.151 302.31 258.041 302.961 258.041C303.654 258.041 304.26 258.174 304.781 258.44C305.307 258.705 305.719 259.086 306.016 259.58C306.318 260.07 306.471 260.651 306.477 261.323H304.359C304.354 261.041 304.294 260.786 304.18 260.557C304.07 260.328 303.909 260.146 303.695 260.01C303.487 259.87 303.229 259.799 302.922 259.799C302.594 259.799 302.326 259.87 302.117 260.01C301.909 260.146 301.747 260.333 301.633 260.573C301.518 260.807 301.438 261.075 301.391 261.377C301.349 261.674 301.328 261.987 301.328 262.315V262.541C301.328 262.87 301.349 263.185 301.391 263.487C301.432 263.789 301.51 264.057 301.625 264.291C301.745 264.526 301.909 264.711 302.117 264.846C302.326 264.981 302.596 265.049 302.93 265.049ZM310.031 254.643V266.651H307.781V254.643H310.031ZM315.359 258.198L311.688 262.385L309.719 264.377L308.898 262.752L310.461 260.768L312.656 258.198H315.359ZM313.023 266.651L310.523 262.745L312.078 261.385L315.617 266.651H313.023Z" fill="black"/>
<path d="M111.942 307.165C116.328 307.165 119.884 303.608 119.884 299.22C119.884 294.832 116.328 291.275 111.942 291.275C107.556 291.275 104 294.832 104 299.22C104 303.608 107.556 307.165 111.942 307.165Z" fill="#6C63FF"/>
<path d="M111.06 312.461V310.696C117.628 310.696 122.973 305.35 122.973 298.779C122.973 292.207 117.628 286.861 111.06 286.861V285.096C118.602 285.096 124.738 291.234 124.738 298.779C124.738 306.323 118.602 312.461 111.06 312.461Z" fill="#3F3D56"/>
<path d="M135.445 299.961H132.547V298.133H135.445C135.893 298.133 136.258 298.06 136.539 297.914C136.82 297.763 137.026 297.555 137.156 297.289C137.286 297.024 137.352 296.724 137.352 296.391C137.352 296.053 137.286 295.737 137.156 295.446C137.026 295.154 136.82 294.92 136.539 294.743C136.258 294.566 135.893 294.477 135.445 294.477H133.359V304.016H131.016V292.641H135.445C136.336 292.641 137.099 292.803 137.734 293.125C138.375 293.443 138.865 293.883 139.203 294.446C139.542 295.008 139.711 295.651 139.711 296.375C139.711 297.11 139.542 297.745 139.203 298.282C138.865 298.818 138.375 299.232 137.734 299.524C137.099 299.816 136.336 299.961 135.445 299.961ZM143.82 303.063L146.062 295.563H148.477L145.078 305.289C145.005 305.503 144.906 305.732 144.781 305.977C144.661 306.222 144.497 306.454 144.289 306.672C144.086 306.896 143.828 307.079 143.516 307.219C143.208 307.36 142.831 307.43 142.383 307.43C142.169 307.43 141.995 307.417 141.859 307.391C141.724 307.365 141.562 307.329 141.375 307.282V305.633C141.432 305.633 141.492 305.633 141.555 305.633C141.617 305.638 141.677 305.641 141.734 305.641C142.031 305.641 142.273 305.607 142.461 305.539C142.648 305.472 142.799 305.368 142.914 305.227C143.029 305.092 143.12 304.914 143.188 304.696L143.82 303.063ZM142.883 295.563L144.719 301.688L145.039 304.071L143.508 304.235L140.469 295.563H142.883ZM153.516 295.563V297.157H148.594V295.563H153.516ZM149.812 293.477H152.062V301.469C152.062 301.714 152.094 301.901 152.156 302.032C152.224 302.162 152.323 302.253 152.453 302.305C152.583 302.352 152.747 302.375 152.945 302.375C153.086 302.375 153.211 302.37 153.32 302.36C153.435 302.344 153.531 302.329 153.609 302.313L153.617 303.969C153.424 304.032 153.216 304.081 152.992 304.118C152.768 304.154 152.521 304.172 152.25 304.172C151.755 304.172 151.323 304.092 150.953 303.93C150.589 303.763 150.307 303.498 150.109 303.133C149.911 302.769 149.812 302.289 149.812 301.696V293.477ZM156.992 292.016V304.016H154.742V292.016H156.992ZM156.672 299.493H156.055C156.06 298.904 156.138 298.362 156.289 297.868C156.44 297.368 156.656 296.935 156.938 296.571C157.219 296.201 157.555 295.914 157.945 295.711C158.341 295.508 158.779 295.407 159.258 295.407C159.674 295.407 160.052 295.467 160.391 295.586C160.734 295.701 161.029 295.888 161.273 296.149C161.523 296.404 161.716 296.74 161.852 297.157C161.987 297.573 162.055 298.079 162.055 298.672V304.016H159.789V298.657C159.789 298.282 159.734 297.987 159.625 297.774C159.521 297.555 159.367 297.401 159.164 297.313C158.966 297.219 158.721 297.172 158.43 297.172C158.107 297.172 157.831 297.232 157.602 297.352C157.378 297.472 157.198 297.638 157.062 297.852C156.927 298.06 156.828 298.305 156.766 298.586C156.703 298.868 156.672 299.17 156.672 299.493ZM163.406 299.875V299.711C163.406 299.092 163.495 298.521 163.672 298C163.849 297.474 164.107 297.019 164.445 296.633C164.784 296.248 165.201 295.948 165.695 295.735C166.19 295.516 166.758 295.407 167.398 295.407C168.039 295.407 168.609 295.516 169.109 295.735C169.609 295.948 170.029 296.248 170.367 296.633C170.711 297.019 170.971 297.474 171.148 298C171.326 298.521 171.414 299.092 171.414 299.711V299.875C171.414 300.49 171.326 301.06 171.148 301.586C170.971 302.107 170.711 302.563 170.367 302.954C170.029 303.339 169.612 303.638 169.117 303.852C168.622 304.066 168.055 304.172 167.414 304.172C166.773 304.172 166.203 304.066 165.703 303.852C165.208 303.638 164.789 303.339 164.445 302.954C164.107 302.563 163.849 302.107 163.672 301.586C163.495 301.06 163.406 300.49 163.406 299.875ZM165.656 299.711V299.875C165.656 300.23 165.688 300.56 165.75 300.868C165.812 301.175 165.911 301.446 166.047 301.68C166.188 301.909 166.37 302.089 166.594 302.219C166.818 302.349 167.091 302.414 167.414 302.414C167.727 302.414 167.995 302.349 168.219 302.219C168.443 302.089 168.622 301.909 168.758 301.68C168.893 301.446 168.992 301.175 169.055 300.868C169.122 300.56 169.156 300.23 169.156 299.875V299.711C169.156 299.368 169.122 299.045 169.055 298.743C168.992 298.435 168.891 298.164 168.75 297.93C168.615 297.691 168.435 297.503 168.211 297.368C167.987 297.232 167.716 297.164 167.398 297.164C167.081 297.164 166.81 297.232 166.586 297.368C166.367 297.503 166.188 297.691 166.047 297.93C165.911 298.164 165.812 298.435 165.75 298.743C165.688 299.045 165.656 299.368 165.656 299.711ZM175 297.368V304.016H172.75V295.563H174.859L175 297.368ZM174.672 299.493H174.062C174.062 298.868 174.143 298.305 174.305 297.805C174.466 297.3 174.693 296.87 174.984 296.516C175.276 296.157 175.622 295.883 176.023 295.696C176.43 295.503 176.883 295.407 177.383 295.407C177.779 295.407 178.141 295.464 178.469 295.579C178.797 295.693 179.078 295.875 179.312 296.125C179.552 296.375 179.734 296.706 179.859 297.118C179.99 297.529 180.055 298.032 180.055 298.625V304.016H177.789V298.618C177.789 298.243 177.737 297.951 177.633 297.743C177.529 297.534 177.375 297.388 177.172 297.305C176.974 297.217 176.729 297.172 176.438 297.172C176.135 297.172 175.872 297.232 175.648 297.352C175.43 297.472 175.247 297.638 175.102 297.852C174.961 298.06 174.854 298.305 174.781 298.586C174.708 298.868 174.672 299.17 174.672 299.493ZM187.578 292.641V306.125H186.234V292.641H187.578ZM196.25 292.641V304.016H193.906V292.641H196.25ZM200.781 297.5V299.329H195.609V297.5H200.781ZM201.328 292.641V294.477H195.609V292.641H201.328ZM206.844 302.11V298.344C206.844 298.073 206.799 297.842 206.711 297.649C206.622 297.451 206.484 297.297 206.297 297.188C206.115 297.079 205.878 297.024 205.586 297.024C205.336 297.024 205.12 297.068 204.938 297.157C204.755 297.24 204.615 297.362 204.516 297.524C204.417 297.68 204.367 297.865 204.367 298.079H202.117C202.117 297.719 202.201 297.378 202.367 297.055C202.534 296.732 202.776 296.448 203.094 296.204C203.411 295.954 203.789 295.758 204.227 295.618C204.669 295.477 205.164 295.407 205.711 295.407C206.367 295.407 206.951 295.516 207.461 295.735C207.971 295.954 208.372 296.282 208.664 296.719C208.961 297.157 209.109 297.704 209.109 298.36V301.977C209.109 302.441 209.138 302.821 209.195 303.118C209.253 303.409 209.336 303.664 209.445 303.883V304.016H207.172C207.062 303.787 206.979 303.5 206.922 303.157C206.87 302.808 206.844 302.459 206.844 302.11ZM207.141 298.868L207.156 300.141H205.898C205.602 300.141 205.344 300.175 205.125 300.243C204.906 300.31 204.727 300.407 204.586 300.532C204.445 300.651 204.341 300.792 204.273 300.954C204.211 301.115 204.18 301.292 204.18 301.485C204.18 301.678 204.224 301.852 204.312 302.008C204.401 302.159 204.529 302.279 204.695 302.368C204.862 302.451 205.057 302.493 205.281 302.493C205.62 302.493 205.914 302.425 206.164 302.289C206.414 302.154 206.607 301.987 206.742 301.789C206.883 301.592 206.956 301.404 206.961 301.227L207.555 302.18C207.471 302.394 207.357 302.615 207.211 302.844C207.07 303.073 206.891 303.289 206.672 303.493C206.453 303.691 206.19 303.855 205.883 303.985C205.576 304.11 205.211 304.172 204.789 304.172C204.253 304.172 203.766 304.066 203.328 303.852C202.896 303.633 202.552 303.334 202.297 302.954C202.047 302.568 201.922 302.131 201.922 301.641C201.922 301.198 202.005 300.805 202.172 300.461C202.339 300.118 202.583 299.829 202.906 299.594C203.234 299.355 203.643 299.175 204.133 299.055C204.622 298.93 205.19 298.868 205.836 298.868H207.141ZM215.414 301.68C215.414 301.519 215.367 301.373 215.273 301.243C215.18 301.112 215.005 300.993 214.75 300.883C214.5 300.769 214.138 300.664 213.664 300.571C213.237 300.477 212.839 300.36 212.469 300.219C212.104 300.073 211.786 299.899 211.516 299.696C211.25 299.493 211.042 299.253 210.891 298.977C210.74 298.696 210.664 298.375 210.664 298.016C210.664 297.662 210.74 297.329 210.891 297.016C211.047 296.704 211.268 296.428 211.555 296.188C211.846 295.943 212.201 295.753 212.617 295.618C213.039 295.477 213.513 295.407 214.039 295.407C214.773 295.407 215.404 295.524 215.93 295.758C216.461 295.993 216.867 296.316 217.148 296.727C217.435 297.133 217.578 297.597 217.578 298.118H215.328C215.328 297.899 215.281 297.704 215.188 297.532C215.099 297.355 214.958 297.217 214.766 297.118C214.578 297.013 214.333 296.961 214.031 296.961C213.781 296.961 213.565 297.006 213.383 297.094C213.201 297.178 213.06 297.292 212.961 297.438C212.867 297.579 212.82 297.735 212.82 297.907C212.82 298.037 212.846 298.154 212.898 298.258C212.956 298.357 213.047 298.448 213.172 298.532C213.297 298.615 213.458 298.693 213.656 298.766C213.859 298.834 214.109 298.896 214.406 298.954C215.016 299.079 215.56 299.243 216.039 299.446C216.518 299.644 216.898 299.914 217.18 300.258C217.461 300.597 217.602 301.042 217.602 301.594C217.602 301.969 217.518 302.313 217.352 302.625C217.185 302.938 216.945 303.211 216.633 303.446C216.32 303.675 215.945 303.855 215.508 303.985C215.076 304.11 214.589 304.172 214.047 304.172C213.26 304.172 212.594 304.032 212.047 303.75C211.505 303.469 211.094 303.112 210.812 302.68C210.536 302.243 210.398 301.795 210.398 301.336H212.531C212.542 301.644 212.62 301.891 212.766 302.079C212.917 302.266 213.107 302.401 213.336 302.485C213.57 302.568 213.823 302.61 214.094 302.61C214.385 302.61 214.628 302.571 214.82 302.493C215.013 302.409 215.159 302.3 215.258 302.164C215.362 302.024 215.414 301.862 215.414 301.68ZM223.203 295.563V297.157H218.281V295.563H223.203ZM219.5 293.477H221.75V301.469C221.75 301.714 221.781 301.901 221.844 302.032C221.911 302.162 222.01 302.253 222.141 302.305C222.271 302.352 222.435 302.375 222.633 302.375C222.773 302.375 222.898 302.37 223.008 302.36C223.122 302.344 223.219 302.329 223.297 302.313L223.305 303.969C223.112 304.032 222.904 304.081 222.68 304.118C222.456 304.154 222.208 304.172 221.938 304.172C221.443 304.172 221.01 304.092 220.641 303.93C220.276 303.763 219.995 303.498 219.797 303.133C219.599 302.769 219.5 302.289 219.5 301.696V293.477ZM229.25 294.586L226.156 304.016H223.664L227.891 292.641H229.477L229.25 294.586ZM231.82 304.016L228.719 294.586L228.469 292.641H230.07L234.32 304.016H231.82ZM231.68 299.782V301.618H225.672V299.782H231.68ZM239.805 299.961H236.906V298.133H239.805C240.253 298.133 240.617 298.06 240.898 297.914C241.18 297.763 241.385 297.555 241.516 297.289C241.646 297.024 241.711 296.724 241.711 296.391C241.711 296.053 241.646 295.737 241.516 295.446C241.385 295.154 241.18 294.92 240.898 294.743C240.617 294.566 240.253 294.477 239.805 294.477H237.719V304.016H235.375V292.641H239.805C240.695 292.641 241.458 292.803 242.094 293.125C242.734 293.443 243.224 293.883 243.562 294.446C243.901 295.008 244.07 295.651 244.07 296.375C244.07 297.11 243.901 297.745 243.562 298.282C243.224 298.818 242.734 299.232 242.094 299.524C241.458 299.816 240.695 299.961 239.805 299.961ZM248.18 292.641V304.016H245.844V292.641H248.18ZM256.047 292.641V306.125H254.703V292.641H256.047ZM271.391 298.071V302.579C271.214 302.792 270.94 303.024 270.57 303.274C270.201 303.519 269.724 303.73 269.141 303.907C268.557 304.084 267.852 304.172 267.023 304.172C266.289 304.172 265.62 304.053 265.016 303.813C264.411 303.568 263.891 303.211 263.453 302.743C263.021 302.274 262.688 301.701 262.453 301.024C262.219 300.342 262.102 299.563 262.102 298.688V297.977C262.102 297.102 262.214 296.323 262.438 295.641C262.667 294.959 262.992 294.383 263.414 293.914C263.836 293.446 264.339 293.089 264.922 292.844C265.505 292.599 266.154 292.477 266.867 292.477C267.857 292.477 268.669 292.638 269.305 292.961C269.94 293.279 270.424 293.722 270.758 294.289C271.096 294.852 271.305 295.498 271.383 296.227H269.109C269.052 295.842 268.943 295.506 268.781 295.219C268.62 294.933 268.388 294.709 268.086 294.547C267.789 294.386 267.404 294.305 266.93 294.305C266.539 294.305 266.19 294.386 265.883 294.547C265.581 294.704 265.326 294.935 265.117 295.243C264.909 295.55 264.75 295.93 264.641 296.383C264.531 296.836 264.477 297.362 264.477 297.961V298.688C264.477 299.282 264.534 299.808 264.648 300.266C264.763 300.719 264.932 301.102 265.156 301.414C265.385 301.722 265.667 301.954 266 302.11C266.333 302.266 266.721 302.344 267.164 302.344C267.534 302.344 267.841 302.313 268.086 302.25C268.336 302.188 268.536 302.112 268.688 302.024C268.844 301.93 268.964 301.842 269.047 301.758V299.743H266.906V298.071H271.391ZM272.781 299.875V299.711C272.781 299.092 272.87 298.521 273.047 298C273.224 297.474 273.482 297.019 273.82 296.633C274.159 296.248 274.576 295.948 275.07 295.735C275.565 295.516 276.133 295.407 276.773 295.407C277.414 295.407 277.984 295.516 278.484 295.735C278.984 295.948 279.404 296.248 279.742 296.633C280.086 297.019 280.346 297.474 280.523 298C280.701 298.521 280.789 299.092 280.789 299.711V299.875C280.789 300.49 280.701 301.06 280.523 301.586C280.346 302.107 280.086 302.563 279.742 302.954C279.404 303.339 278.987 303.638 278.492 303.852C277.997 304.066 277.43 304.172 276.789 304.172C276.148 304.172 275.578 304.066 275.078 303.852C274.583 303.638 274.164 303.339 273.82 302.954C273.482 302.563 273.224 302.107 273.047 301.586C272.87 301.06 272.781 300.49 272.781 299.875ZM275.031 299.711V299.875C275.031 300.23 275.062 300.56 275.125 300.868C275.188 301.175 275.286 301.446 275.422 301.68C275.562 301.909 275.745 302.089 275.969 302.219C276.193 302.349 276.466 302.414 276.789 302.414C277.102 302.414 277.37 302.349 277.594 302.219C277.818 302.089 277.997 301.909 278.133 301.68C278.268 301.446 278.367 301.175 278.43 300.868C278.497 300.56 278.531 300.23 278.531 299.875V299.711C278.531 299.368 278.497 299.045 278.43 298.743C278.367 298.435 278.266 298.164 278.125 297.93C277.99 297.691 277.81 297.503 277.586 297.368C277.362 297.232 277.091 297.164 276.773 297.164C276.456 297.164 276.185 297.232 275.961 297.368C275.742 297.503 275.562 297.691 275.422 297.93C275.286 298.164 275.188 298.435 275.125 298.743C275.062 299.045 275.031 299.368 275.031 299.711ZM284.547 292.016V304.016H282.289V292.016H284.547ZM290.969 302.11V298.344C290.969 298.073 290.924 297.842 290.836 297.649C290.747 297.451 290.609 297.297 290.422 297.188C290.24 297.079 290.003 297.024 289.711 297.024C289.461 297.024 289.245 297.068 289.062 297.157C288.88 297.24 288.74 297.362 288.641 297.524C288.542 297.68 288.492 297.865 288.492 298.079H286.242C286.242 297.719 286.326 297.378 286.492 297.055C286.659 296.732 286.901 296.448 287.219 296.204C287.536 295.954 287.914 295.758 288.352 295.618C288.794 295.477 289.289 295.407 289.836 295.407C290.492 295.407 291.076 295.516 291.586 295.735C292.096 295.954 292.497 296.282 292.789 296.719C293.086 297.157 293.234 297.704 293.234 298.36V301.977C293.234 302.441 293.263 302.821 293.32 303.118C293.378 303.409 293.461 303.664 293.57 303.883V304.016H291.297C291.188 303.787 291.104 303.5 291.047 303.157C290.995 302.808 290.969 302.459 290.969 302.11ZM291.266 298.868L291.281 300.141H290.023C289.727 300.141 289.469 300.175 289.25 300.243C289.031 300.31 288.852 300.407 288.711 300.532C288.57 300.651 288.466 300.792 288.398 300.954C288.336 301.115 288.305 301.292 288.305 301.485C288.305 301.678 288.349 301.852 288.438 302.008C288.526 302.159 288.654 302.279 288.82 302.368C288.987 302.451 289.182 302.493 289.406 302.493C289.745 302.493 290.039 302.425 290.289 302.289C290.539 302.154 290.732 301.987 290.867 301.789C291.008 301.592 291.081 301.404 291.086 301.227L291.68 302.18C291.596 302.394 291.482 302.615 291.336 302.844C291.195 303.073 291.016 303.289 290.797 303.493C290.578 303.691 290.315 303.855 290.008 303.985C289.701 304.11 289.336 304.172 288.914 304.172C288.378 304.172 287.891 304.066 287.453 303.852C287.021 303.633 286.677 303.334 286.422 302.954C286.172 302.568 286.047 302.131 286.047 301.641C286.047 301.198 286.13 300.805 286.297 300.461C286.464 300.118 286.708 299.829 287.031 299.594C287.359 299.355 287.768 299.175 288.258 299.055C288.747 298.93 289.315 298.868 289.961 298.868H291.266ZM297.172 297.368V304.016H294.922V295.563H297.031L297.172 297.368ZM296.844 299.493H296.234C296.234 298.868 296.315 298.305 296.477 297.805C296.638 297.3 296.865 296.87 297.156 296.516C297.448 296.157 297.794 295.883 298.195 295.696C298.602 295.503 299.055 295.407 299.555 295.407C299.951 295.407 300.312 295.464 300.641 295.579C300.969 295.693 301.25 295.875 301.484 296.125C301.724 296.375 301.906 296.706 302.031 297.118C302.161 297.529 302.227 298.032 302.227 298.625V304.016H299.961V298.618C299.961 298.243 299.909 297.951 299.805 297.743C299.701 297.534 299.547 297.388 299.344 297.305C299.146 297.217 298.901 297.172 298.609 297.172C298.307 297.172 298.044 297.232 297.82 297.352C297.602 297.472 297.419 297.638 297.273 297.852C297.133 298.06 297.026 298.305 296.953 298.586C296.88 298.868 296.844 299.17 296.844 299.493ZM309.289 295.563H311.328V303.735C311.328 304.506 311.156 305.159 310.812 305.696C310.474 306.237 310 306.646 309.391 306.922C308.781 307.204 308.073 307.344 307.266 307.344C306.911 307.344 306.536 307.297 306.141 307.204C305.75 307.11 305.375 306.964 305.016 306.766C304.661 306.568 304.365 306.318 304.125 306.016L305.117 304.688C305.378 304.99 305.68 305.224 306.023 305.391C306.367 305.563 306.747 305.649 307.164 305.649C307.57 305.649 307.914 305.573 308.195 305.422C308.477 305.276 308.693 305.06 308.844 304.774C308.995 304.493 309.07 304.151 309.07 303.75V297.516L309.289 295.563ZM303.602 299.891V299.727C303.602 299.081 303.68 298.495 303.836 297.969C303.997 297.438 304.224 296.982 304.516 296.602C304.812 296.222 305.172 295.928 305.594 295.719C306.016 295.511 306.492 295.407 307.023 295.407C307.586 295.407 308.057 295.511 308.438 295.719C308.818 295.928 309.13 296.224 309.375 296.61C309.62 296.99 309.81 297.441 309.945 297.961C310.086 298.477 310.195 299.042 310.273 299.657V300.016C310.195 300.605 310.078 301.151 309.922 301.657C309.766 302.162 309.56 302.605 309.305 302.985C309.049 303.36 308.732 303.651 308.352 303.86C307.977 304.068 307.529 304.172 307.008 304.172C306.487 304.172 306.016 304.066 305.594 303.852C305.177 303.638 304.82 303.339 304.523 302.954C304.227 302.568 303.997 302.115 303.836 301.594C303.68 301.073 303.602 300.506 303.602 299.891ZM305.852 299.727V299.891C305.852 300.24 305.885 300.566 305.953 300.868C306.021 301.17 306.125 301.438 306.266 301.672C306.411 301.901 306.591 302.081 306.805 302.211C307.023 302.336 307.281 302.399 307.578 302.399C307.99 302.399 308.326 302.313 308.586 302.141C308.846 301.964 309.042 301.722 309.172 301.414C309.302 301.107 309.378 300.753 309.398 300.352V299.329C309.388 299 309.344 298.706 309.266 298.446C309.188 298.18 309.078 297.954 308.938 297.766C308.797 297.579 308.615 297.433 308.391 297.329C308.167 297.224 307.901 297.172 307.594 297.172C307.297 297.172 307.039 297.24 306.82 297.375C306.607 297.506 306.427 297.685 306.281 297.914C306.141 298.144 306.034 298.414 305.961 298.727C305.888 299.034 305.852 299.368 305.852 299.727Z" fill="black"/>
<path d="M62 125C89.6142 125 112 102.614 112 75C112 47.3858 89.6142 25 62 25C34.3858 25 12 47.3858 12 75C12 102.614 34.3858 125 62 125Z" fill="#23C276"/>
<path d="M81.7968 56.025C73.7368 66.9091 65.6767 77.7932 57.6166 88.6773C52.4797 81.9463 47.3707 75.2034 42.2211 68.4776C40.4427 66.1548 35.6052 68.2441 37.3881 70.5727C43.3577 78.3693 49.2654 86.1919 55.2349 93.9886C56.2555 95.3216 59.0577 95.3526 60.0679 93.9886C68.9219 82.0324 77.7759 70.0762 86.6299 58.12C88.3648 55.7772 83.5331 53.6804 81.7968 56.025Z" fill="#E8E8E8"/>
</g>
<defs>
<clipPath id="clip0_48_20">
<rect width="463" height="554" fill="white"/>
</clipPath>
</defs>
</svg>
