<svg width="463" height="436" viewBox="0 0 463 436" fill="none" xmlns="http://www.w3.org/2000/svg">
<path d="M371.346 73.4188H325.668V58.3735C325.668 33.1549 346.136 12.6806 371.346 12.6806L371.346 73.4188Z" fill="#2F2E41"/>
<path d="M361.222 45.3326L369.075 80.6689L323.053 73.0245L341.807 39.6051L361.222 45.3326Z" fill="#F6D2B4"/>
<path d="M317.099 186.142H361.222V120.818H317.099V186.142Z" fill="#DFDFDF"/>
<path d="M389.901 239.548L380.194 291.631C380.194 291.631 386.372 327.823 367.84 364.899L355.486 402.857L336.954 400.209C336.954 400.209 348.426 371.961 348.426 359.603C348.426 347.244 351.073 299.575 351.073 299.575L349.75 245.182L389.901 239.548Z" fill="#2F2E41"/>
<path d="M334.307 399.326C334.307 399.326 355.486 391.382 357.251 402.857L356.368 408.154C356.368 408.154 364.31 431.988 352.838 433.754C341.366 435.519 330.777 438.167 329.894 432.871C329.012 427.574 329.026 420.963 331.225 416.324C333.424 411.685 334.307 399.326 334.307 399.326Z" fill="#2F2E41"/>
<path d="M323.099 231.469L317.943 284.197C317.943 284.197 301.947 317.244 309.44 358.012L310.754 397.91L329.291 400.522C329.291 400.522 326.125 370.197 329.561 358.326C332.997 346.455 343.707 299.93 343.707 299.93L360.1 248.051L323.099 231.469Z" fill="#2F2E41"/>
<path d="M332.079 400.411C332.079 400.411 313.945 386.887 309.059 397.419L308.434 402.752C308.434 402.752 294.179 423.437 304.708 428.324C315.236 433.211 324.672 438.701 326.992 433.859C329.312 429.017 331.137 422.663 330.314 417.595C329.491 412.527 332.079 400.411 332.079 400.411Z" fill="#2F2E41"/>
<path d="M379.312 156.128C400.067 175.503 401.606 206.157 389.46 242.638C389.46 242.638 350.632 269.12 322.393 235.576L308.274 167.604L379.312 156.128Z" fill="#2F2E41"/>
<path d="M344.455 61.6739L366.516 65.2049L364.751 120.818L389.46 170.252L357.692 186.142C357.692 186.142 332.983 139.356 328.571 110.225C324.158 81.0944 326.806 59.9084 326.806 59.9084L344.455 61.6739Z" fill="#8A85E4"/>
<path d="M327.688 63.4394L305.627 66.9704L307.392 122.584L302.097 173.783L314.451 187.907C314.451 187.907 339.16 141.122 343.572 111.991C347.985 82.8599 345.337 61.6739 345.337 61.6739L327.688 63.4394Z" fill="#8A85E4"/>
<path d="M354.162 64.7635L359.015 63.4394C359.015 63.4394 376.223 61.2325 378.871 68.2945C381.518 75.3565 380.636 116.846 380.636 116.846C380.636 116.846 385.189 167.767 367.469 168.348C349.75 168.928 353.279 126.556 353.279 126.556L354.162 64.7635Z" fill="#8A85E4"/>
<path d="M353.521 55.0302C366.134 55.0302 376.36 44.8015 376.36 32.1837C376.36 19.5659 366.134 9.33722 353.521 9.33722C340.907 9.33722 330.682 19.5659 330.682 32.1837C330.682 44.8015 340.907 55.0302 353.521 55.0302Z" fill="#F6D2B4"/>
<path d="M325.041 66.529L320.187 65.2049C320.187 65.2049 302.979 62.998 300.332 70.06C297.684 77.122 298.567 118.611 298.567 118.611C298.567 118.611 294.013 169.533 311.733 170.113C329.453 170.694 325.923 128.322 325.923 128.322L325.041 66.529Z" fill="#6C63FF"/>
<path d="M340.327 63.6265C335.428 62.3831 329.873 67.6177 327.919 75.3217C327.096 78.3885 327.019 81.6077 327.695 84.7101L325.59 93.4673L325.435 93.4592L308.829 132.608C304.968 141.711 305.376 152.161 310.3 160.734C313.23 165.835 317.076 169.263 321.591 165.763C329.084 159.956 333.978 126.702 336.213 107.6L341.38 88.1835C343.454 85.7783 344.921 82.9112 345.66 79.8221C347.615 72.1211 345.227 64.8701 340.327 63.6265Z" fill="#FFDFC4"/>
<path d="M309.796 50.6667C310.958 47.1332 313.251 44.0397 314.277 40.4644C315.639 35.7173 318.54 46.2486 318.823 41.3178C319.361 31.946 333.66 7.83839 341.823 3.20766C349.986 -1.42311 354.674 -0.0269034 362.99 4.32211C362.99 4.32211 367.027 4.57894 372.053 7.06101C377.079 9.54307 381.603 13.5182 383.557 18.7729C385.107 22.938 384.935 27.512 385.453 31.9258C386.895 44.2225 393.786 55.9173 392.307 68.2095C391.846 72.0447 390.388 76.0105 387.254 78.2662C384.119 80.522 379.055 80.2766 376.991 77.0115C376.287 75.8973 375.99 74.5754 375.386 73.4036C374.783 72.2317 373.692 71.1393 372.375 71.1758C370.395 71.2306 369.388 73.8881 370.168 75.709C370.949 77.5299 372.784 78.6293 374.506 79.6072C370.404 81.4535 365.314 80.8786 361.727 78.1635C358.139 75.4484 356.202 70.7057 356.862 66.2543C357.792 59.9814 366.928 61.2797 368.004 55.0302C368.787 50.4808 370.749 43.0552 370 38.5C370 37.5 369.5 36.6415 369.5 36.6415C369.5 36.6415 357.139 24.8923 352.772 23.351C348.405 21.8097 344.703 18.4723 342.717 14.2876C338.086 21.0038 334.012 19.1799 332.353 27.1686C330.694 35.1573 332.228 53.3067 339.058 57.7668C336.324 59.6324 334.145 62.3002 332.863 65.3515C332.136 67.0801 331.665 68.9715 330.459 70.4072C328.156 73.1491 323.904 73.3159 320.514 72.163C316.311 70.7335 312.717 67.5937 310.736 63.6197C308.754 59.6457 308.409 54.8853 309.796 50.6667Z" fill="#2F2E41"/>
<path d="M338.875 61.861C343.775 60.6176 349.329 65.8522 351.284 73.5562C352.106 76.6229 352.183 79.8422 351.507 82.9446L353.613 91.7018L353.767 91.6937L370.374 130.843C374.235 139.945 373.827 150.395 368.902 158.969C365.972 164.069 362.127 167.498 357.611 163.998C350.118 158.19 345.224 124.937 342.99 105.835L337.823 86.418C335.749 84.0128 334.281 81.1457 333.542 78.0566C331.588 70.3556 333.976 63.1046 338.875 61.861Z" fill="#F6D2B4"/>
<path d="M357.739 83.314L339.16 96.5252L348.45 155.046L360.1 170.119L373.672 165.424L377.64 137.76L372.97 111.006L357.739 83.314Z" fill="#8A85E4"/>
</svg>
