<svg width="463" height="554" viewBox="0 0 463 554" fill="none" xmlns="http://www.w3.org/2000/svg">
<g clip-path="url(#clip0_48_20)">
<path d="M371.346 191.419H325.668V176.374C325.668 151.155 346.136 130.681 371.346 130.681L371.346 191.419Z" fill="#2F2E41"/>
<path d="M361.222 163.333L369.075 198.669L323.053 191.025L341.807 157.605L361.222 163.333Z" fill="#F6D2B4"/>
<path d="M317.099 304.142H361.222V238.818H317.099V304.142Z" fill="#DFDFDF"/>
<path d="M389.901 357.548L380.194 409.631C380.194 409.631 386.372 445.823 367.84 482.899L355.486 520.857L336.954 518.209C336.954 518.209 348.426 489.961 348.426 477.603C348.426 465.244 351.073 417.575 351.073 417.575L349.75 363.182L389.901 357.548Z" fill="#2F2E41"/>
<path d="M334.307 517.326C334.307 517.326 355.486 509.382 357.251 520.857L356.368 526.154C356.368 526.154 364.31 549.988 352.838 551.754C341.366 553.519 330.777 556.167 329.894 550.871C329.012 545.574 329.026 538.963 331.225 534.324C333.424 529.685 334.307 517.326 334.307 517.326Z" fill="#2F2E41"/>
<path d="M323.099 349.469L317.943 402.197C317.943 402.197 301.947 435.244 309.44 476.012L310.754 515.91L329.291 518.522C329.291 518.522 326.125 488.197 329.561 476.326C332.997 464.455 343.707 417.93 343.707 417.93L360.1 366.051L323.099 349.469Z" fill="#2F2E41"/>
<path d="M332.079 518.411C332.079 518.411 313.945 504.887 309.059 515.419L308.434 520.752C308.434 520.752 294.179 541.437 304.708 546.324C315.236 551.211 324.672 556.701 326.992 551.859C329.312 547.017 331.137 540.663 330.314 535.595C329.491 530.527 332.079 518.411 332.079 518.411Z" fill="#2F2E41"/>
<path d="M379.312 274.128C400.067 293.503 401.606 324.157 389.46 360.638C389.46 360.638 350.632 387.12 322.393 353.576L308.274 285.604L379.312 274.128Z" fill="#2F2E41"/>
<path d="M344.455 179.674L366.516 183.205L364.751 238.818L389.46 288.252L357.692 304.142C357.692 304.142 332.983 257.356 328.571 228.225C324.158 199.094 326.806 177.908 326.806 177.908L344.455 179.674Z" fill="#8A85E4"/>
<path d="M327.688 181.439L305.627 184.97L307.392 240.584L302.097 291.783L314.451 305.907C314.451 305.907 339.16 259.122 343.572 229.991C347.985 200.86 345.337 179.674 345.337 179.674L327.688 181.439Z" fill="#8A85E4"/>
<path d="M354.162 182.764L359.015 181.439C359.015 181.439 376.223 179.233 378.871 186.295C381.518 193.357 380.636 234.846 380.636 234.846C380.636 234.846 385.189 285.767 367.469 286.348C349.75 286.928 353.279 244.556 353.279 244.556L354.162 182.764Z" fill="#8A85E4"/>
<path d="M353.521 173.03C366.134 173.03 376.36 162.801 376.36 150.184C376.36 137.566 366.134 127.337 353.521 127.337C340.907 127.337 330.682 137.566 330.682 150.184C330.682 162.801 340.907 173.03 353.521 173.03Z" fill="#F6D2B4"/>
<path d="M325.041 184.529L320.187 183.205C320.187 183.205 302.979 180.998 300.332 188.06C297.684 195.122 298.567 236.611 298.567 236.611C298.567 236.611 294.013 287.533 311.733 288.113C329.453 288.694 325.923 246.322 325.923 246.322L325.041 184.529Z" fill="#6C63FF"/>
<path d="M340.327 181.627C335.428 180.383 329.873 185.618 327.919 193.322C327.096 196.388 327.019 199.608 327.695 202.71L325.59 211.467L325.435 211.459L308.829 250.608C304.968 259.711 305.376 270.161 310.3 278.734C313.23 283.835 317.076 287.263 321.591 283.763C329.084 277.956 333.978 244.702 336.213 225.6L341.38 206.183C343.454 203.778 344.921 200.911 345.66 197.822C347.615 190.121 345.227 182.87 340.327 181.627Z" fill="#FFDFC4"/>
<path d="M309.796 168.667C310.958 165.133 313.251 162.04 314.277 158.464C315.639 153.717 318.54 164.249 318.823 159.318C319.361 149.946 333.66 125.838 341.823 121.208C349.986 116.577 354.674 117.973 362.99 122.322C362.99 122.322 367.027 122.579 372.053 125.061C377.079 127.543 381.603 131.518 383.557 136.773C385.107 140.938 384.935 145.512 385.453 149.926C386.895 162.223 393.786 173.917 392.307 186.21C391.846 190.045 390.388 194.01 387.254 196.266C384.119 198.522 379.055 198.277 376.991 195.011C376.287 193.897 375.99 192.575 375.386 191.404C374.783 190.232 373.692 189.139 372.375 189.176C370.395 189.231 369.388 191.888 370.168 193.709C370.949 195.53 372.784 196.629 374.506 197.607C370.404 199.453 365.314 198.879 361.727 196.163C358.139 193.448 356.202 188.706 356.862 184.254C357.792 177.981 366.928 179.28 368.004 173.03C368.787 168.481 370.749 161.055 370 156.5C370 155.5 369.5 154.642 369.5 154.642C369.5 154.642 357.139 142.892 352.772 141.351C348.405 139.81 344.703 136.472 342.717 132.288C338.086 139.004 334.012 137.18 332.353 145.169C330.694 153.157 332.228 171.307 339.058 175.767C336.324 177.632 334.145 180.3 332.863 183.352C332.136 185.08 331.665 186.971 330.459 188.407C328.156 191.149 323.904 191.316 320.514 190.163C316.311 188.733 312.717 185.594 310.736 181.62C308.754 177.646 308.409 172.885 309.796 168.667Z" fill="#2F2E41"/>
<path d="M338.875 179.861C343.775 178.618 349.329 183.852 351.284 191.556C352.106 194.623 352.183 197.842 351.507 200.945L353.613 209.702L353.767 209.694L370.374 248.843C374.235 257.945 373.827 268.395 368.902 276.969C365.972 282.069 362.127 285.498 357.611 281.998C350.118 276.19 345.224 242.937 342.99 223.835L337.823 204.418C335.749 202.013 334.281 199.146 333.542 196.057C331.588 188.356 333.976 181.105 338.875 179.861Z" fill="#F6D2B4"/>
<path d="M357.739 201.314L339.16 214.525L348.45 273.046L360.1 288.119L373.672 283.424L377.64 255.76L372.97 229.006L357.739 201.314Z" fill="#8A85E4"/>
<path d="M118.575 5.8826H300.069C317.888 5.8826 332.336 20.3326 332.336 38.1612V515.229C332.336 533.058 317.888 547.508 300.069 547.508H118.575C100.756 547.508 86.3088 533.058 86.3088 515.229V38.1612C86.3088 20.3326 100.756 5.8826 118.575 5.8826Z" fill="white" stroke="black" stroke-width="10"/>
<path d="M125.942 357.069C130.328 357.069 133.884 353.512 133.884 349.124C133.884 344.736 130.328 341.179 125.942 341.179C121.556 341.179 118 344.736 118 349.124C118 353.512 121.556 357.069 125.942 357.069Z" fill="#6C63FF"/>
<path d="M125.06 362.365V360.6C131.629 360.6 136.973 355.254 136.973 348.683C136.973 342.111 131.629 336.766 125.06 336.766V335C132.602 335 138.738 341.138 138.738 348.683C138.738 356.227 132.602 362.365 125.06 362.365Z" fill="#3F3D56"/>
<path d="M149.445 349.865H146.547V348.037H149.445C149.893 348.037 150.258 347.964 150.539 347.819C150.82 347.668 151.026 347.459 151.156 347.194C151.286 346.928 151.352 346.628 151.352 346.295C151.352 345.957 151.286 345.642 151.156 345.35C151.026 345.058 150.82 344.824 150.539 344.647C150.258 344.47 149.893 344.381 149.445 344.381H147.359V353.92H145.016V342.545H149.445C150.336 342.545 151.099 342.707 151.734 343.03C152.375 343.347 152.865 343.787 153.203 344.35C153.542 344.912 153.711 345.556 153.711 346.28C153.711 347.014 153.542 347.649 153.203 348.186C152.865 348.722 152.375 349.136 151.734 349.428C151.099 349.72 150.336 349.865 149.445 349.865ZM157.82 352.967L160.063 345.467H162.477L159.078 355.194C159.005 355.407 158.906 355.636 158.781 355.881C158.661 356.126 158.497 356.358 158.289 356.576C158.086 356.8 157.828 356.983 157.516 357.123C157.208 357.264 156.831 357.334 156.383 357.334C156.169 357.334 155.995 357.321 155.859 357.295C155.724 357.269 155.563 357.233 155.375 357.186V355.537C155.432 355.537 155.492 355.537 155.555 355.537C155.617 355.543 155.677 355.545 155.734 355.545C156.031 355.545 156.273 355.511 156.461 355.444C156.648 355.376 156.8 355.272 156.914 355.131C157.029 354.996 157.12 354.819 157.188 354.6L157.82 352.967ZM156.883 345.467L158.719 351.592L159.039 353.975L157.508 354.139L154.469 345.467H156.883ZM167.516 345.467V347.061H162.594V345.467H167.516ZM163.813 343.381H166.063V351.373C166.063 351.618 166.094 351.806 166.156 351.936C166.224 352.066 166.323 352.157 166.453 352.209C166.583 352.256 166.747 352.28 166.945 352.28C167.086 352.28 167.211 352.274 167.32 352.264C167.435 352.248 167.531 352.233 167.609 352.217L167.617 353.873C167.425 353.936 167.216 353.985 166.992 354.022C166.768 354.058 166.521 354.076 166.25 354.076C165.755 354.076 165.323 353.996 164.953 353.834C164.589 353.668 164.307 353.402 164.109 353.037C163.911 352.673 163.813 352.194 163.813 351.6V343.381ZM170.992 341.92V353.92H168.742V341.92H170.992ZM170.672 349.397H170.055C170.06 348.808 170.138 348.267 170.289 347.772C170.44 347.272 170.656 346.839 170.938 346.475C171.219 346.105 171.555 345.819 171.945 345.615C172.341 345.412 172.779 345.311 173.258 345.311C173.675 345.311 174.052 345.371 174.391 345.49C174.734 345.605 175.029 345.793 175.273 346.053C175.523 346.308 175.716 346.644 175.852 347.061C175.987 347.477 176.055 347.983 176.055 348.576V353.92H173.789V348.561C173.789 348.186 173.734 347.892 173.625 347.678C173.521 347.459 173.367 347.306 173.164 347.217C172.966 347.123 172.721 347.076 172.43 347.076C172.107 347.076 171.831 347.136 171.602 347.256C171.378 347.376 171.198 347.543 171.063 347.756C170.927 347.964 170.828 348.209 170.766 348.49C170.703 348.772 170.672 349.074 170.672 349.397ZM177.406 349.78V349.615C177.406 348.996 177.495 348.425 177.672 347.905C177.849 347.378 178.107 346.923 178.445 346.537C178.784 346.152 179.201 345.852 179.695 345.639C180.19 345.42 180.758 345.311 181.398 345.311C182.039 345.311 182.609 345.42 183.109 345.639C183.609 345.852 184.029 346.152 184.367 346.537C184.711 346.923 184.971 347.378 185.148 347.905C185.326 348.425 185.414 348.996 185.414 349.615V349.78C185.414 350.394 185.326 350.964 185.148 351.49C184.971 352.011 184.711 352.467 184.367 352.858C184.029 353.243 183.612 353.543 183.117 353.756C182.622 353.97 182.055 354.076 181.414 354.076C180.773 354.076 180.203 353.97 179.703 353.756C179.208 353.543 178.789 353.243 178.445 352.858C178.107 352.467 177.849 352.011 177.672 351.49C177.495 350.964 177.406 350.394 177.406 349.78ZM179.656 349.615V349.78C179.656 350.134 179.688 350.464 179.75 350.772C179.813 351.079 179.911 351.35 180.047 351.584C180.188 351.813 180.37 351.993 180.594 352.123C180.818 352.253 181.091 352.319 181.414 352.319C181.727 352.319 181.995 352.253 182.219 352.123C182.443 351.993 182.622 351.813 182.758 351.584C182.893 351.35 182.992 351.079 183.055 350.772C183.122 350.464 183.156 350.134 183.156 349.78V349.615C183.156 349.272 183.122 348.949 183.055 348.647C182.992 348.339 182.891 348.069 182.75 347.834C182.615 347.595 182.435 347.407 182.211 347.272C181.987 347.136 181.716 347.069 181.398 347.069C181.081 347.069 180.81 347.136 180.586 347.272C180.367 347.407 180.188 347.595 180.047 347.834C179.911 348.069 179.813 348.339 179.75 348.647C179.688 348.949 179.656 349.272 179.656 349.615ZM189 347.272V353.92H186.75V345.467H188.859L189 347.272ZM188.672 349.397H188.063C188.063 348.772 188.143 348.209 188.305 347.709C188.466 347.204 188.693 346.774 188.984 346.42C189.276 346.061 189.622 345.787 190.023 345.6C190.43 345.407 190.883 345.311 191.383 345.311C191.779 345.311 192.141 345.368 192.469 345.483C192.797 345.597 193.078 345.78 193.313 346.03C193.552 346.28 193.734 346.61 193.859 347.022C193.99 347.433 194.055 347.936 194.055 348.53V353.92H191.789V348.522C191.789 348.147 191.737 347.855 191.633 347.647C191.529 347.438 191.375 347.293 191.172 347.209C190.974 347.121 190.729 347.076 190.438 347.076C190.135 347.076 189.872 347.136 189.648 347.256C189.43 347.376 189.247 347.543 189.102 347.756C188.961 347.964 188.854 348.209 188.781 348.49C188.708 348.772 188.672 349.074 188.672 349.397Z" fill="black"/>
<path d="M300.07 553.39H118.575C97.54 553.39 80.4264 536.271 80.4264 515.229V38.1613C80.4264 17.1193 97.54 0 118.575 0H300.07C321.105 0 338.218 17.1193 338.218 38.1613V515.229C338.218 536.271 321.105 553.39 300.07 553.39ZM118.575 1.7655C98.5129 1.7655 82.1913 18.0925 82.1913 38.1613V515.229C82.1913 535.298 98.5129 551.625 118.575 551.625H300.07C320.132 551.625 336.453 535.298 336.453 515.229V38.1613C336.453 18.0925 320.132 1.7655 300.07 1.7655H118.575Z" fill="#3F3D56"/>
<path d="M280.919 26.4197C283.243 26.4197 285.127 24.5349 285.127 22.2099C285.127 19.8848 283.243 18 280.919 18C278.595 18 276.71 19.8848 276.71 22.2099C276.71 24.5349 278.595 26.4197 280.919 26.4197Z" fill="black"/>
<path d="M292.492 26.4197C294.816 26.4197 296.701 24.5349 296.701 22.2099C296.701 19.8848 294.816 18 292.492 18C290.168 18 288.284 19.8848 288.284 22.2099C288.284 24.5349 290.168 26.4197 292.492 26.4197Z" fill="black"/>
<path d="M304.066 26.4197C306.39 26.4197 308.274 24.5349 308.274 22.2099C308.274 19.8848 306.39 18 304.066 18C301.741 18 299.857 19.8848 299.857 22.2099C299.857 24.5349 301.741 26.4197 304.066 26.4197Z" fill="black"/>
<path d="M110 139C110 139.555 110.531 140 111.192 140H315.808C316.469 140 317 139.555 317 139C317 138.445 316.469 138 315.808 138H111.192C110.531 138 110 138.445 110 139Z" fill="#3F3D56"/>
<path d="M125.942 225.577C130.328 225.577 133.884 222.02 133.884 217.632C133.884 213.244 130.328 209.687 125.942 209.687C121.556 209.687 118 213.244 118 217.632C118 222.02 121.556 225.577 125.942 225.577Z" fill="#6C63FF"/>
<path d="M125.06 230.873V229.108C131.629 229.108 136.973 223.762 136.973 217.191C136.973 210.62 131.629 205.274 125.06 205.274V203.508C132.602 203.508 138.738 209.646 138.738 217.191C138.738 224.736 132.602 230.873 125.06 230.873Z" fill="#3F3D56"/>
<path d="M125.942 272.363C130.328 272.363 133.884 268.806 133.884 264.418C133.884 260.03 130.328 256.473 125.942 256.473C121.556 256.473 118 260.03 118 264.418C118 268.806 121.556 272.363 125.942 272.363Z" fill="#6C63FF"/>
<path d="M125.06 277.659V275.894C131.629 275.894 136.973 270.548 136.973 263.977C136.973 257.406 131.629 252.06 125.06 252.06V250.294C132.602 250.294 138.738 256.432 138.738 263.977C138.738 271.521 132.602 277.659 125.06 277.659Z" fill="#3F3D56"/>
<path d="M125.942 319.149C130.328 319.149 133.884 315.592 133.884 311.204C133.884 306.816 130.328 303.259 125.942 303.259C121.556 303.259 118 306.816 118 311.204C118 315.592 121.556 319.149 125.942 319.149Z" fill="#6C63FF"/>
<path d="M125.06 324.445V322.68C131.629 322.68 136.973 317.334 136.973 310.762C136.973 304.191 131.629 298.845 125.06 298.845V297.08C132.602 297.08 138.738 303.218 138.738 310.762C138.738 318.307 132.602 324.445 125.06 324.445Z" fill="#3F3D56"/>
<path d="M152.602 217.258V219.086H146.664V217.258H152.602ZM147.359 212.625V224H145.016V212.625H147.359ZM154.273 212.625V224H151.938V212.625H154.273ZM161.164 212.625V224H158.828V212.625H161.164ZM164.664 212.625V214.461H155.383V212.625H164.664ZM167.07 212.625H169.055L171.977 220.977L174.898 212.625H176.883L172.773 224H171.18L167.07 212.625ZM166 212.625H167.977L168.336 220.766V224H166V212.625ZM175.977 212.625H177.961V224H175.617V220.766L175.977 212.625ZM187.328 222.172V224H181.602V222.172H187.328ZM182.359 212.625V224H180.016V212.625H182.359ZM190.555 218.82L188.758 218.391L189.406 212.625H195.797V214.445H191.258L190.977 216.969C191.128 216.88 191.357 216.786 191.664 216.688C191.971 216.583 192.315 216.531 192.695 216.531C193.247 216.531 193.737 216.617 194.164 216.789C194.591 216.961 194.953 217.211 195.25 217.539C195.552 217.867 195.781 218.268 195.938 218.742C196.094 219.216 196.172 219.753 196.172 220.352C196.172 220.857 196.094 221.339 195.938 221.797C195.781 222.25 195.544 222.656 195.227 223.016C194.909 223.37 194.51 223.648 194.031 223.852C193.552 224.055 192.984 224.156 192.328 224.156C191.839 224.156 191.365 224.083 190.906 223.938C190.453 223.792 190.044 223.576 189.68 223.289C189.32 223.003 189.031 222.656 188.813 222.25C188.599 221.839 188.487 221.37 188.477 220.844H190.711C190.742 221.167 190.826 221.445 190.961 221.68C191.102 221.909 191.286 222.086 191.516 222.211C191.745 222.336 192.013 222.398 192.32 222.398C192.607 222.398 192.852 222.344 193.055 222.234C193.258 222.125 193.422 221.974 193.547 221.781C193.672 221.583 193.763 221.354 193.82 221.094C193.883 220.828 193.914 220.542 193.914 220.234C193.914 219.927 193.878 219.648 193.805 219.398C193.732 219.148 193.62 218.932 193.469 218.75C193.318 218.568 193.125 218.427 192.891 218.328C192.661 218.229 192.393 218.18 192.086 218.18C191.669 218.18 191.346 218.245 191.117 218.375C190.893 218.505 190.706 218.654 190.555 218.82ZM209.063 217.664V219.625H201.266V217.664H209.063ZM206.234 214.578V222.859H204.102V214.578H206.234ZM221.141 220.227H223.477C223.43 220.992 223.219 221.672 222.844 222.266C222.474 222.859 221.956 223.323 221.289 223.656C220.628 223.99 219.831 224.156 218.898 224.156C218.169 224.156 217.516 224.031 216.938 223.781C216.359 223.526 215.865 223.161 215.453 222.688C215.047 222.214 214.737 221.641 214.523 220.969C214.31 220.297 214.203 219.544 214.203 218.711V217.922C214.203 217.089 214.313 216.336 214.531 215.664C214.755 214.987 215.073 214.411 215.484 213.938C215.901 213.464 216.398 213.099 216.977 212.844C217.555 212.589 218.201 212.461 218.914 212.461C219.862 212.461 220.661 212.633 221.313 212.977C221.969 213.32 222.477 213.794 222.836 214.398C223.201 215.003 223.419 215.69 223.492 216.461H221.148C221.122 216.003 221.031 215.615 220.875 215.297C220.719 214.974 220.482 214.732 220.164 214.57C219.852 214.404 219.435 214.32 218.914 214.32C218.523 214.32 218.182 214.393 217.891 214.539C217.599 214.685 217.354 214.906 217.156 215.203C216.958 215.5 216.81 215.875 216.711 216.328C216.617 216.776 216.57 217.302 216.57 217.906V218.711C216.57 219.299 216.615 219.818 216.703 220.266C216.792 220.708 216.927 221.083 217.109 221.391C217.297 221.693 217.536 221.922 217.828 222.078C218.125 222.229 218.482 222.305 218.898 222.305C219.388 222.305 219.792 222.227 220.109 222.07C220.427 221.914 220.669 221.682 220.836 221.375C221.008 221.068 221.109 220.685 221.141 220.227ZM230.938 221.023C230.938 220.82 230.906 220.638 230.844 220.477C230.786 220.31 230.677 220.159 230.516 220.023C230.354 219.883 230.128 219.745 229.836 219.609C229.544 219.474 229.167 219.333 228.703 219.188C228.188 219.021 227.698 218.833 227.234 218.625C226.776 218.417 226.37 218.174 226.016 217.898C225.667 217.617 225.391 217.292 225.188 216.922C224.99 216.552 224.891 216.122 224.891 215.633C224.891 215.159 224.995 214.729 225.203 214.344C225.411 213.953 225.703 213.62 226.078 213.344C226.453 213.062 226.896 212.846 227.406 212.695C227.922 212.544 228.487 212.469 229.102 212.469C229.94 212.469 230.672 212.62 231.297 212.922C231.922 213.224 232.406 213.638 232.75 214.164C233.099 214.69 233.273 215.292 233.273 215.969H230.945C230.945 215.635 230.875 215.344 230.734 215.094C230.599 214.839 230.391 214.638 230.109 214.492C229.833 214.346 229.484 214.273 229.063 214.273C228.656 214.273 228.318 214.336 228.047 214.461C227.776 214.581 227.573 214.745 227.438 214.953C227.302 215.156 227.234 215.385 227.234 215.641C227.234 215.833 227.281 216.008 227.375 216.164C227.474 216.32 227.62 216.466 227.813 216.602C228.005 216.737 228.242 216.865 228.523 216.984C228.805 217.104 229.13 217.221 229.5 217.336C230.12 217.523 230.664 217.734 231.133 217.969C231.607 218.203 232.003 218.466 232.32 218.758C232.638 219.049 232.878 219.38 233.039 219.75C233.201 220.12 233.281 220.539 233.281 221.008C233.281 221.503 233.185 221.945 232.992 222.336C232.8 222.727 232.521 223.057 232.156 223.328C231.792 223.599 231.357 223.805 230.852 223.945C230.346 224.086 229.781 224.156 229.156 224.156C228.594 224.156 228.039 224.083 227.492 223.938C226.945 223.786 226.448 223.56 226 223.258C225.557 222.956 225.203 222.57 224.938 222.102C224.672 221.633 224.539 221.078 224.539 220.438H226.891C226.891 220.792 226.945 221.091 227.055 221.336C227.164 221.581 227.318 221.779 227.516 221.93C227.719 222.081 227.958 222.19 228.234 222.258C228.516 222.326 228.823 222.359 229.156 222.359C229.563 222.359 229.896 222.302 230.156 222.188C230.422 222.073 230.617 221.914 230.742 221.711C230.872 221.508 230.938 221.279 230.938 221.023ZM240.797 221.023C240.797 220.82 240.766 220.638 240.703 220.477C240.646 220.31 240.536 220.159 240.375 220.023C240.214 219.883 239.987 219.745 239.695 219.609C239.404 219.474 239.026 219.333 238.563 219.188C238.047 219.021 237.557 218.833 237.094 218.625C236.635 218.417 236.229 218.174 235.875 217.898C235.526 217.617 235.25 217.292 235.047 216.922C234.849 216.552 234.75 216.122 234.75 215.633C234.75 215.159 234.854 214.729 235.063 214.344C235.271 213.953 235.563 213.62 235.938 213.344C236.313 213.062 236.755 212.846 237.266 212.695C237.781 212.544 238.346 212.469 238.961 212.469C239.8 212.469 240.531 212.62 241.156 212.922C241.781 213.224 242.266 213.638 242.609 214.164C242.958 214.69 243.133 215.292 243.133 215.969H240.805C240.805 215.635 240.734 215.344 240.594 215.094C240.458 214.839 240.25 214.638 239.969 214.492C239.693 214.346 239.344 214.273 238.922 214.273C238.516 214.273 238.177 214.336 237.906 214.461C237.635 214.581 237.432 214.745 237.297 214.953C237.161 215.156 237.094 215.385 237.094 215.641C237.094 215.833 237.141 216.008 237.234 216.164C237.333 216.32 237.479 216.466 237.672 216.602C237.865 216.737 238.102 216.865 238.383 216.984C238.664 217.104 238.99 217.221 239.359 217.336C239.979 217.523 240.523 217.734 240.992 217.969C241.466 218.203 241.862 218.466 242.18 218.758C242.497 219.049 242.737 219.38 242.898 219.75C243.06 220.12 243.141 220.539 243.141 221.008C243.141 221.503 243.044 221.945 242.852 222.336C242.659 222.727 242.38 223.057 242.016 223.328C241.651 223.599 241.216 223.805 240.711 223.945C240.206 224.086 239.641 224.156 239.016 224.156C238.453 224.156 237.898 224.083 237.352 223.938C236.805 223.786 236.307 223.56 235.859 223.258C235.417 222.956 235.063 222.57 234.797 222.102C234.531 221.633 234.398 221.078 234.398 220.438H236.75C236.75 220.792 236.805 221.091 236.914 221.336C237.023 221.581 237.177 221.779 237.375 221.93C237.578 222.081 237.818 222.19 238.094 222.258C238.375 222.326 238.682 222.359 239.016 222.359C239.422 222.359 239.755 222.302 240.016 222.188C240.281 222.073 240.477 221.914 240.602 221.711C240.732 221.508 240.797 221.279 240.797 221.023ZM246.805 217.336H248.008C248.393 217.336 248.711 217.271 248.961 217.141C249.211 217.005 249.396 216.818 249.516 216.578C249.641 216.333 249.703 216.049 249.703 215.727C249.703 215.435 249.646 215.177 249.531 214.953C249.422 214.724 249.253 214.547 249.023 214.422C248.794 214.292 248.505 214.227 248.156 214.227C247.88 214.227 247.625 214.281 247.391 214.391C247.156 214.5 246.969 214.654 246.828 214.852C246.688 215.049 246.617 215.289 246.617 215.57H244.359C244.359 214.945 244.526 214.401 244.859 213.938C245.198 213.474 245.651 213.112 246.219 212.852C246.786 212.591 247.411 212.461 248.094 212.461C248.865 212.461 249.539 212.586 250.117 212.836C250.695 213.081 251.146 213.443 251.469 213.922C251.792 214.401 251.953 214.995 251.953 215.703C251.953 216.062 251.87 216.411 251.703 216.75C251.536 217.083 251.297 217.385 250.984 217.656C250.677 217.922 250.302 218.135 249.859 218.297C249.417 218.453 248.919 218.531 248.367 218.531H246.805V217.336ZM246.805 219.047V217.883H248.367C248.987 217.883 249.531 217.953 250 218.094C250.469 218.234 250.862 218.438 251.18 218.703C251.497 218.964 251.737 219.273 251.898 219.633C252.06 219.987 252.141 220.38 252.141 220.812C252.141 221.344 252.039 221.818 251.836 222.234C251.633 222.646 251.346 222.995 250.977 223.281C250.612 223.568 250.185 223.786 249.695 223.938C249.206 224.083 248.672 224.156 248.094 224.156C247.615 224.156 247.143 224.091 246.68 223.961C246.221 223.826 245.805 223.625 245.43 223.359C245.06 223.089 244.763 222.75 244.539 222.344C244.32 221.932 244.211 221.445 244.211 220.883H246.469C246.469 221.174 246.542 221.435 246.688 221.664C246.833 221.893 247.034 222.073 247.289 222.203C247.55 222.333 247.839 222.398 248.156 222.398C248.516 222.398 248.823 222.333 249.078 222.203C249.339 222.068 249.536 221.88 249.672 221.641C249.813 221.396 249.883 221.112 249.883 220.789C249.883 220.372 249.807 220.039 249.656 219.789C249.505 219.534 249.289 219.346 249.008 219.227C248.727 219.107 248.393 219.047 248.008 219.047H246.805ZM265.125 217.664V219.625H257.328V217.664H265.125ZM262.297 214.578V222.859H260.164V214.578H262.297ZM275.211 220.508V212.625H277.547V220.508C277.547 221.268 277.38 221.922 277.047 222.469C276.714 223.01 276.258 223.427 275.68 223.719C275.107 224.01 274.461 224.156 273.742 224.156C272.997 224.156 272.339 224.031 271.766 223.781C271.193 223.531 270.742 223.148 270.414 222.633C270.086 222.112 269.922 221.453 269.922 220.656H272.273C272.273 221.073 272.331 221.404 272.445 221.648C272.565 221.893 272.734 222.068 272.953 222.172C273.172 222.276 273.435 222.328 273.742 222.328C274.039 222.328 274.297 222.258 274.516 222.117C274.734 221.977 274.904 221.771 275.023 221.5C275.148 221.229 275.211 220.898 275.211 220.508ZM285.469 221.023C285.469 220.82 285.438 220.638 285.375 220.477C285.318 220.31 285.208 220.159 285.047 220.023C284.885 219.883 284.659 219.745 284.367 219.609C284.076 219.474 283.698 219.333 283.234 219.188C282.719 219.021 282.229 218.833 281.766 218.625C281.307 218.417 280.901 218.174 280.547 217.898C280.198 217.617 279.922 217.292 279.719 216.922C279.521 216.552 279.422 216.122 279.422 215.633C279.422 215.159 279.526 214.729 279.734 214.344C279.943 213.953 280.234 213.62 280.609 213.344C280.984 213.062 281.427 212.846 281.938 212.695C282.453 212.544 283.018 212.469 283.633 212.469C284.471 212.469 285.203 212.62 285.828 212.922C286.453 213.224 286.938 213.638 287.281 214.164C287.63 214.69 287.805 215.292 287.805 215.969H285.477C285.477 215.635 285.406 215.344 285.266 215.094C285.13 214.839 284.922 214.638 284.641 214.492C284.365 214.346 284.016 214.273 283.594 214.273C283.188 214.273 282.849 214.336 282.578 214.461C282.307 214.581 282.104 214.745 281.969 214.953C281.833 215.156 281.766 215.385 281.766 215.641C281.766 215.833 281.813 216.008 281.906 216.164C282.005 216.32 282.151 216.466 282.344 216.602C282.536 216.737 282.773 216.865 283.055 216.984C283.336 217.104 283.661 217.221 284.031 217.336C284.651 217.523 285.195 217.734 285.664 217.969C286.138 218.203 286.534 218.466 286.852 218.758C287.169 219.049 287.409 219.38 287.57 219.75C287.732 220.12 287.813 220.539 287.813 221.008C287.813 221.503 287.716 221.945 287.523 222.336C287.331 222.727 287.052 223.057 286.688 223.328C286.323 223.599 285.888 223.805 285.383 223.945C284.878 224.086 284.313 224.156 283.688 224.156C283.125 224.156 282.57 224.083 282.023 223.938C281.477 223.786 280.979 223.56 280.531 223.258C280.089 222.956 279.734 222.57 279.469 222.102C279.203 221.633 279.07 221.078 279.07 220.438H281.422C281.422 220.792 281.477 221.091 281.586 221.336C281.695 221.581 281.849 221.779 282.047 221.93C282.25 222.081 282.49 222.19 282.766 222.258C283.047 222.326 283.354 222.359 283.688 222.359C284.094 222.359 284.427 222.302 284.688 222.188C284.953 222.073 285.148 221.914 285.273 221.711C285.404 221.508 285.469 221.279 285.469 221.023Z" fill="black"/>
<path d="M147.359 257.625V269H145.016V257.625H147.359ZM151.891 262.484V264.312H146.719V262.484H151.891ZM152.438 257.625V259.461H146.719V257.625H152.438ZM156.031 260.547V269H153.773V260.547H156.031ZM153.633 258.344C153.633 258.016 153.747 257.745 153.977 257.531C154.206 257.318 154.513 257.211 154.898 257.211C155.279 257.211 155.583 257.318 155.813 257.531C156.047 257.745 156.164 258.016 156.164 258.344C156.164 258.672 156.047 258.943 155.813 259.156C155.583 259.37 155.279 259.477 154.898 259.477C154.513 259.477 154.206 259.37 153.977 259.156C153.747 258.943 153.633 258.672 153.633 258.344ZM163.242 260.547H165.281V268.719C165.281 269.49 165.109 270.143 164.766 270.68C164.427 271.221 163.953 271.63 163.344 271.906C162.734 272.188 162.026 272.328 161.219 272.328C160.865 272.328 160.49 272.281 160.094 272.188C159.703 272.094 159.328 271.948 158.969 271.75C158.615 271.552 158.318 271.302 158.078 271L159.07 269.672C159.331 269.974 159.633 270.208 159.977 270.375C160.32 270.547 160.701 270.633 161.117 270.633C161.523 270.633 161.867 270.557 162.148 270.406C162.43 270.26 162.646 270.044 162.797 269.758C162.948 269.477 163.023 269.135 163.023 268.734V262.5L163.242 260.547ZM157.555 264.875V264.711C157.555 264.065 157.633 263.479 157.789 262.953C157.951 262.422 158.177 261.966 158.469 261.586C158.766 261.206 159.125 260.911 159.547 260.703C159.969 260.495 160.445 260.391 160.977 260.391C161.539 260.391 162.01 260.495 162.391 260.703C162.771 260.911 163.083 261.208 163.328 261.594C163.573 261.974 163.763 262.424 163.898 262.945C164.039 263.461 164.148 264.026 164.227 264.641V265C164.148 265.589 164.031 266.135 163.875 266.641C163.719 267.146 163.513 267.589 163.258 267.969C163.003 268.344 162.685 268.635 162.305 268.844C161.93 269.052 161.482 269.156 160.961 269.156C160.44 269.156 159.969 269.049 159.547 268.836C159.13 268.622 158.773 268.323 158.477 267.938C158.18 267.552 157.951 267.099 157.789 266.578C157.633 266.057 157.555 265.49 157.555 264.875ZM159.805 264.711V264.875C159.805 265.224 159.839 265.549 159.906 265.852C159.974 266.154 160.078 266.422 160.219 266.656C160.365 266.885 160.544 267.065 160.758 267.195C160.977 267.32 161.234 267.383 161.531 267.383C161.943 267.383 162.279 267.297 162.539 267.125C162.8 266.948 162.995 266.706 163.125 266.398C163.255 266.091 163.331 265.737 163.352 265.336V264.312C163.341 263.984 163.297 263.69 163.219 263.43C163.141 263.164 163.031 262.938 162.891 262.75C162.75 262.562 162.568 262.417 162.344 262.312C162.12 262.208 161.854 262.156 161.547 262.156C161.25 262.156 160.992 262.224 160.773 262.359C160.56 262.49 160.38 262.669 160.234 262.898C160.094 263.128 159.987 263.398 159.914 263.711C159.841 264.018 159.805 264.352 159.805 264.711ZM169.281 262.297V269H167.023V260.547H169.141L169.281 262.297ZM168.969 264.477H168.344C168.344 263.888 168.414 263.346 168.555 262.852C168.701 262.352 168.911 261.919 169.188 261.555C169.469 261.185 169.815 260.898 170.227 260.695C170.638 260.492 171.115 260.391 171.656 260.391C172.031 260.391 172.375 260.448 172.688 260.562C173 260.672 173.268 260.846 173.492 261.086C173.721 261.32 173.898 261.628 174.023 262.008C174.148 262.383 174.211 262.833 174.211 263.359V269H171.961V263.609C171.961 263.224 171.909 262.927 171.805 262.719C171.701 262.51 171.552 262.365 171.359 262.281C171.172 262.198 170.945 262.156 170.68 262.156C170.388 262.156 170.133 262.216 169.914 262.336C169.701 262.456 169.523 262.622 169.383 262.836C169.242 263.044 169.138 263.289 169.07 263.57C169.003 263.852 168.969 264.154 168.969 264.477ZM174 264.219L173.195 264.32C173.195 263.768 173.263 263.255 173.398 262.781C173.539 262.307 173.745 261.891 174.016 261.531C174.292 261.172 174.633 260.893 175.039 260.695C175.445 260.492 175.914 260.391 176.445 260.391C176.852 260.391 177.221 260.451 177.555 260.57C177.888 260.685 178.172 260.87 178.406 261.125C178.646 261.375 178.828 261.703 178.953 262.109C179.083 262.516 179.148 263.013 179.148 263.602V269H176.891V263.602C176.891 263.211 176.839 262.914 176.734 262.711C176.635 262.503 176.49 262.359 176.297 262.281C176.109 262.198 175.885 262.156 175.625 262.156C175.354 262.156 175.117 262.211 174.914 262.32C174.711 262.424 174.542 262.57 174.406 262.758C174.271 262.945 174.169 263.164 174.102 263.414C174.034 263.659 174 263.927 174 264.219ZM185.453 267.094V263.328C185.453 263.057 185.409 262.826 185.32 262.633C185.232 262.435 185.094 262.281 184.906 262.172C184.724 262.062 184.487 262.008 184.195 262.008C183.945 262.008 183.729 262.052 183.547 262.141C183.365 262.224 183.224 262.346 183.125 262.508C183.026 262.664 182.977 262.849 182.977 263.062H180.727C180.727 262.703 180.81 262.362 180.977 262.039C181.143 261.716 181.385 261.432 181.703 261.188C182.021 260.938 182.398 260.742 182.836 260.602C183.279 260.461 183.773 260.391 184.32 260.391C184.977 260.391 185.56 260.5 186.07 260.719C186.581 260.938 186.982 261.266 187.273 261.703C187.57 262.141 187.719 262.688 187.719 263.344V266.961C187.719 267.424 187.747 267.805 187.805 268.102C187.862 268.393 187.945 268.648 188.055 268.867V269H185.781C185.672 268.771 185.589 268.484 185.531 268.141C185.479 267.792 185.453 267.443 185.453 267.094ZM185.75 263.852L185.766 265.125H184.508C184.211 265.125 183.953 265.159 183.734 265.227C183.516 265.294 183.336 265.391 183.195 265.516C183.055 265.635 182.951 265.776 182.883 265.938C182.82 266.099 182.789 266.276 182.789 266.469C182.789 266.661 182.833 266.836 182.922 266.992C183.01 267.143 183.138 267.263 183.305 267.352C183.471 267.435 183.667 267.477 183.891 267.477C184.229 267.477 184.523 267.409 184.773 267.273C185.023 267.138 185.216 266.971 185.352 266.773C185.492 266.576 185.565 266.388 185.57 266.211L186.164 267.164C186.081 267.378 185.966 267.599 185.82 267.828C185.68 268.057 185.5 268.273 185.281 268.477C185.063 268.674 184.8 268.839 184.492 268.969C184.185 269.094 183.82 269.156 183.398 269.156C182.862 269.156 182.375 269.049 181.938 268.836C181.505 268.617 181.161 268.318 180.906 267.938C180.656 267.552 180.531 267.115 180.531 266.625C180.531 266.182 180.615 265.789 180.781 265.445C180.948 265.102 181.193 264.812 181.516 264.578C181.844 264.339 182.253 264.159 182.742 264.039C183.232 263.914 183.8 263.852 184.445 263.852H185.75Z" fill="black"/>
<path d="M248 22.55C249.977 20.9037 252.468 20.0021 255.04 20.0021C257.612 20.0021 260.103 20.9037 262.08 22.55" stroke="black" stroke-width="2" stroke-linecap="round" stroke-linejoin="round"/>
<path d="M244.42 19C247.342 16.424 251.104 15.0027 255 15.0027C258.896 15.0027 262.658 16.424 265.58 19" stroke="black" stroke-width="2" stroke-linecap="round" stroke-linejoin="round"/>
<path d="M251.53 26.11C252.545 25.3887 253.76 25.0013 255.005 25.0013C256.25 25.0013 257.465 25.3887 258.48 26.11" stroke="black" stroke-width="2" stroke-linecap="round" stroke-linejoin="round"/>
<path d="M255 30H255.01" stroke="black" stroke-width="2" stroke-linecap="round" stroke-linejoin="round"/>
<path d="M116.102 121.625V133H113.766V121.625H116.102ZM119.602 121.625V123.461H110.32V121.625H119.602ZM123.953 133.156C123.297 133.156 122.708 133.052 122.188 132.844C121.667 132.63 121.224 132.336 120.859 131.961C120.5 131.586 120.224 131.151 120.031 130.656C119.839 130.156 119.742 129.625 119.742 129.062V128.75C119.742 128.109 119.833 127.523 120.016 126.992C120.198 126.461 120.458 126 120.797 125.609C121.141 125.219 121.557 124.919 122.047 124.711C122.536 124.497 123.089 124.391 123.703 124.391C124.302 124.391 124.833 124.49 125.297 124.688C125.76 124.885 126.148 125.167 126.461 125.531C126.779 125.896 127.018 126.333 127.18 126.844C127.341 127.349 127.422 127.911 127.422 128.531V129.469H120.703V127.969H125.211V127.797C125.211 127.484 125.154 127.206 125.039 126.961C124.93 126.711 124.763 126.513 124.539 126.367C124.315 126.221 124.029 126.148 123.68 126.148C123.383 126.148 123.128 126.214 122.914 126.344C122.701 126.474 122.526 126.656 122.391 126.891C122.26 127.125 122.161 127.401 122.094 127.719C122.031 128.031 122 128.375 122 128.75V129.062C122 129.401 122.047 129.714 122.141 130C122.24 130.286 122.378 130.534 122.555 130.742C122.737 130.951 122.956 131.112 123.211 131.227C123.471 131.341 123.766 131.398 124.094 131.398C124.5 131.398 124.878 131.32 125.227 131.164C125.581 131.003 125.885 130.76 126.141 130.438L127.234 131.625C127.057 131.88 126.815 132.125 126.508 132.359C126.206 132.594 125.841 132.786 125.414 132.938C124.987 133.083 124.5 133.156 123.953 133.156ZM130.516 124.547L131.914 127.117L133.352 124.547H135.75L133.359 128.68L135.859 133H133.453L131.93 130.281L130.406 133H128L130.5 128.68L128.109 124.547H130.516ZM142.633 127.961V129.711H138.336V127.961H142.633ZM139.086 124.547V133H136.836V124.547H139.086ZM144.156 124.547V133H141.898V124.547H144.156ZM145.547 128.859V128.695C145.547 128.076 145.635 127.505 145.812 126.984C145.99 126.458 146.247 126.003 146.586 125.617C146.924 125.232 147.341 124.932 147.836 124.719C148.331 124.5 148.898 124.391 149.539 124.391C150.18 124.391 150.75 124.5 151.25 124.719C151.75 124.932 152.169 125.232 152.508 125.617C152.852 126.003 153.112 126.458 153.289 126.984C153.466 127.505 153.555 128.076 153.555 128.695V128.859C153.555 129.474 153.466 130.044 153.289 130.57C153.112 131.091 152.852 131.547 152.508 131.938C152.169 132.323 151.753 132.622 151.258 132.836C150.763 133.049 150.195 133.156 149.555 133.156C148.914 133.156 148.344 133.049 147.844 132.836C147.349 132.622 146.93 132.323 146.586 131.938C146.247 131.547 145.99 131.091 145.812 130.57C145.635 130.044 145.547 129.474 145.547 128.859ZM147.797 128.695V128.859C147.797 129.214 147.828 129.544 147.891 129.852C147.953 130.159 148.052 130.43 148.188 130.664C148.328 130.893 148.51 131.073 148.734 131.203C148.958 131.333 149.232 131.398 149.555 131.398C149.867 131.398 150.135 131.333 150.359 131.203C150.583 131.073 150.763 130.893 150.898 130.664C151.034 130.43 151.133 130.159 151.195 129.852C151.263 129.544 151.297 129.214 151.297 128.859V128.695C151.297 128.352 151.263 128.029 151.195 127.727C151.133 127.419 151.031 127.148 150.891 126.914C150.755 126.674 150.576 126.487 150.352 126.352C150.128 126.216 149.857 126.148 149.539 126.148C149.221 126.148 148.951 126.216 148.727 126.352C148.508 126.487 148.328 126.674 148.188 126.914C148.052 127.148 147.953 127.419 147.891 127.727C147.828 128.029 147.797 128.352 147.797 128.695ZM160.5 124.547V126.312H156.344V124.547H160.5ZM162.148 124.547V133H159.898V124.547H162.148ZM155.781 124.547H157.992L157.766 128.812C157.734 129.422 157.669 129.958 157.57 130.422C157.471 130.885 157.339 131.281 157.172 131.609C157.01 131.938 156.815 132.206 156.586 132.414C156.362 132.617 156.099 132.766 155.797 132.859C155.5 132.953 155.172 133 154.812 133H154.125L154.102 131.227L154.391 131.195C154.557 131.18 154.703 131.133 154.828 131.055C154.958 130.971 155.068 130.854 155.156 130.703C155.25 130.547 155.328 130.352 155.391 130.117C155.453 129.878 155.503 129.596 155.539 129.273C155.581 128.951 155.609 128.578 155.625 128.156L155.781 124.547ZM163.531 128.859V128.695C163.531 128.076 163.62 127.505 163.797 126.984C163.974 126.458 164.232 126.003 164.57 125.617C164.909 125.232 165.326 124.932 165.82 124.719C166.315 124.5 166.883 124.391 167.523 124.391C168.164 124.391 168.734 124.5 169.234 124.719C169.734 124.932 170.154 125.232 170.492 125.617C170.836 126.003 171.096 126.458 171.273 126.984C171.451 127.505 171.539 128.076 171.539 128.695V128.859C171.539 129.474 171.451 130.044 171.273 130.57C171.096 131.091 170.836 131.547 170.492 131.938C170.154 132.323 169.737 132.622 169.242 132.836C168.747 133.049 168.18 133.156 167.539 133.156C166.898 133.156 166.328 133.049 165.828 132.836C165.333 132.622 164.914 132.323 164.57 131.938C164.232 131.547 163.974 131.091 163.797 130.57C163.62 130.044 163.531 129.474 163.531 128.859ZM165.781 128.695V128.859C165.781 129.214 165.812 129.544 165.875 129.852C165.938 130.159 166.036 130.43 166.172 130.664C166.312 130.893 166.495 131.073 166.719 131.203C166.943 131.333 167.216 131.398 167.539 131.398C167.852 131.398 168.12 131.333 168.344 131.203C168.568 131.073 168.747 130.893 168.883 130.664C169.018 130.43 169.117 130.159 169.18 129.852C169.247 129.544 169.281 129.214 169.281 128.859V128.695C169.281 128.352 169.247 128.029 169.18 127.727C169.117 127.419 169.016 127.148 168.875 126.914C168.74 126.674 168.56 126.487 168.336 126.352C168.112 126.216 167.841 126.148 167.523 126.148C167.206 126.148 166.935 126.216 166.711 126.352C166.492 126.487 166.312 126.674 166.172 126.914C166.036 127.148 165.938 127.419 165.875 127.727C165.812 128.029 165.781 128.352 165.781 128.695ZM178.672 124.547V126.312H175.156V133H172.906V124.547H178.672ZM181.883 129.859L184.719 124.547H186.969V133H184.719V127.68L181.883 133H179.633V124.547H181.883V129.859ZM190.945 129.859L193.781 124.547H196.031V133H193.781V127.68L190.945 133H188.695V124.547H190.945V129.859ZM203.992 129.859L206.828 124.547H209.078V133H206.828V127.68L203.992 133H201.742V124.547H203.992V129.859ZM217.039 129.859L219.875 124.547H222.125V133H219.875V127.68L217.039 133H214.789V124.547H217.039V129.859ZM229.648 127.961V129.711H225.352V127.961H229.648ZM226.102 124.547V133H223.852V124.547H226.102ZM231.172 124.547V133H228.914V124.547H231.172ZM236.414 131.398C236.69 131.398 236.935 131.346 237.148 131.242C237.362 131.133 237.529 130.982 237.648 130.789C237.773 130.591 237.839 130.359 237.844 130.094H239.961C239.956 130.688 239.797 131.216 239.484 131.68C239.172 132.138 238.753 132.5 238.227 132.766C237.701 133.026 237.112 133.156 236.461 133.156C235.805 133.156 235.232 133.047 234.742 132.828C234.258 132.609 233.854 132.307 233.531 131.922C233.208 131.531 232.966 131.078 232.805 130.562C232.643 130.042 232.562 129.484 232.562 128.891V128.664C232.562 128.065 232.643 127.508 232.805 126.992C232.966 126.471 233.208 126.018 233.531 125.633C233.854 125.242 234.258 124.938 234.742 124.719C235.227 124.5 235.794 124.391 236.445 124.391C237.138 124.391 237.745 124.523 238.266 124.789C238.792 125.055 239.203 125.435 239.5 125.93C239.802 126.419 239.956 127 239.961 127.672H237.844C237.839 127.391 237.779 127.135 237.664 126.906C237.555 126.677 237.393 126.495 237.18 126.359C236.971 126.219 236.714 126.148 236.406 126.148C236.078 126.148 235.81 126.219 235.602 126.359C235.393 126.495 235.232 126.682 235.117 126.922C235.003 127.156 234.922 127.424 234.875 127.727C234.833 128.023 234.812 128.336 234.812 128.664V128.891C234.812 129.219 234.833 129.534 234.875 129.836C234.917 130.138 234.995 130.406 235.109 130.641C235.229 130.875 235.393 131.06 235.602 131.195C235.81 131.331 236.081 131.398 236.414 131.398ZM245.57 124.547V133H243.312V124.547H245.57ZM248.289 124.547V126.289H240.633V124.547H248.289ZM251.688 126.172V136.25H249.438V124.547H251.523L251.688 126.172ZM257.039 128.68V128.844C257.039 129.458 256.966 130.029 256.82 130.555C256.68 131.081 256.471 131.539 256.195 131.93C255.919 132.315 255.576 132.617 255.164 132.836C254.758 133.049 254.289 133.156 253.758 133.156C253.242 133.156 252.794 133.052 252.414 132.844C252.034 132.635 251.714 132.344 251.453 131.969C251.198 131.589 250.992 131.148 250.836 130.648C250.68 130.148 250.56 129.612 250.477 129.039V128.609C250.56 127.995 250.68 127.432 250.836 126.922C250.992 126.406 251.198 125.961 251.453 125.586C251.714 125.206 252.031 124.911 252.406 124.703C252.786 124.495 253.232 124.391 253.742 124.391C254.279 124.391 254.75 124.492 255.156 124.695C255.568 124.898 255.911 125.19 256.188 125.57C256.469 125.951 256.68 126.404 256.82 126.93C256.966 127.456 257.039 128.039 257.039 128.68ZM254.781 128.844V128.68C254.781 128.32 254.75 127.99 254.688 127.688C254.63 127.38 254.536 127.112 254.406 126.883C254.281 126.654 254.115 126.477 253.906 126.352C253.703 126.221 253.456 126.156 253.164 126.156C252.857 126.156 252.594 126.206 252.375 126.305C252.161 126.404 251.987 126.547 251.852 126.734C251.716 126.922 251.615 127.146 251.547 127.406C251.479 127.667 251.438 127.961 251.422 128.289V129.375C251.448 129.76 251.521 130.107 251.641 130.414C251.76 130.716 251.945 130.956 252.195 131.133C252.445 131.31 252.773 131.398 253.18 131.398C253.477 131.398 253.727 131.333 253.93 131.203C254.133 131.068 254.297 130.883 254.422 130.648C254.552 130.414 254.643 130.143 254.695 129.836C254.753 129.529 254.781 129.198 254.781 128.844ZM260.852 132.047L263.094 124.547H265.508L262.109 134.273C262.036 134.487 261.938 134.716 261.812 134.961C261.693 135.206 261.529 135.438 261.32 135.656C261.117 135.88 260.859 136.062 260.547 136.203C260.24 136.344 259.862 136.414 259.414 136.414C259.201 136.414 259.026 136.401 258.891 136.375C258.755 136.349 258.594 136.312 258.406 136.266V134.617C258.464 134.617 258.523 134.617 258.586 134.617C258.648 134.622 258.708 134.625 258.766 134.625C259.062 134.625 259.305 134.591 259.492 134.523C259.68 134.456 259.831 134.352 259.945 134.211C260.06 134.076 260.151 133.898 260.219 133.68L260.852 132.047ZM259.914 124.547L261.75 130.672L262.07 133.055L260.539 133.219L257.5 124.547H259.914ZM271.547 130.414L273.766 124.547H275.602L272.305 133H270.789L267.508 124.547H269.344L271.547 130.414ZM268.805 124.547V133H266.555V124.547H268.805ZM274.344 133V124.547H276.594V133H274.344ZM282.453 133.156C281.797 133.156 281.208 133.052 280.688 132.844C280.167 132.63 279.724 132.336 279.359 131.961C279 131.586 278.724 131.151 278.531 130.656C278.339 130.156 278.242 129.625 278.242 129.062V128.75C278.242 128.109 278.333 127.523 278.516 126.992C278.698 126.461 278.958 126 279.297 125.609C279.641 125.219 280.057 124.919 280.547 124.711C281.036 124.497 281.589 124.391 282.203 124.391C282.802 124.391 283.333 124.49 283.797 124.688C284.26 124.885 284.648 125.167 284.961 125.531C285.279 125.896 285.518 126.333 285.68 126.844C285.841 127.349 285.922 127.911 285.922 128.531V129.469H279.203V127.969H283.711V127.797C283.711 127.484 283.654 127.206 283.539 126.961C283.43 126.711 283.263 126.513 283.039 126.367C282.815 126.221 282.529 126.148 282.18 126.148C281.883 126.148 281.628 126.214 281.414 126.344C281.201 126.474 281.026 126.656 280.891 126.891C280.76 127.125 280.661 127.401 280.594 127.719C280.531 128.031 280.5 128.375 280.5 128.75V129.062C280.5 129.401 280.547 129.714 280.641 130C280.74 130.286 280.878 130.534 281.055 130.742C281.237 130.951 281.456 131.112 281.711 131.227C281.971 131.341 282.266 131.398 282.594 131.398C283 131.398 283.378 131.32 283.727 131.164C284.081 131.003 284.385 130.76 284.641 130.438L285.734 131.625C285.557 131.88 285.315 132.125 285.008 132.359C284.706 132.594 284.341 132.786 283.914 132.938C283.487 133.083 283 133.156 282.453 133.156ZM292.992 127.961V129.711H288.695V127.961H292.992ZM289.445 124.547V133H287.195V124.547H289.445ZM294.516 124.547V133H292.258V124.547H294.516ZM300.57 124.547V133H298.312V124.547H300.57ZM303.289 124.547V126.289H295.633V124.547H303.289ZM305.992 127.055H308.445C309.216 127.055 309.872 127.182 310.414 127.438C310.961 127.688 311.378 128.036 311.664 128.484C311.956 128.932 312.102 129.451 312.102 130.039C312.102 130.466 312.018 130.862 311.852 131.227C311.69 131.586 311.453 131.898 311.141 132.164C310.828 132.43 310.445 132.635 309.992 132.781C309.539 132.927 309.023 133 308.445 133H304.586V124.547H306.844V131.25H308.445C308.784 131.25 309.055 131.195 309.258 131.086C309.466 130.971 309.617 130.823 309.711 130.641C309.81 130.458 309.859 130.26 309.859 130.047C309.859 129.823 309.81 129.62 309.711 129.438C309.617 129.25 309.466 129.099 309.258 128.984C309.055 128.87 308.784 128.812 308.445 128.812H305.992V127.055ZM315.711 124.547V133H313.461V124.547H315.711Z" fill="black"/>
<path d="M114.699 17.4512V26H113.012V19.3965L110.984 20.041V18.7109L114.518 17.4512H114.699ZM123.271 17.4688V18.377L119.973 26H118.191L121.49 18.7871H117.242V17.4688H123.271ZM124.502 25.1855C124.502 24.9355 124.588 24.7266 124.76 24.5586C124.936 24.3906 125.168 24.3066 125.457 24.3066C125.746 24.3066 125.977 24.3906 126.148 24.5586C126.324 24.7266 126.412 24.9355 126.412 25.1855C126.412 25.4355 126.324 25.6445 126.148 25.8125C125.977 25.9805 125.746 26.0645 125.457 26.0645C125.168 26.0645 124.936 25.9805 124.76 25.8125C124.588 25.6445 124.502 25.4355 124.502 25.1855ZM124.502 20.3516C124.502 20.1016 124.588 19.8926 124.76 19.7246C124.936 19.5566 125.168 19.4727 125.457 19.4727C125.746 19.4727 125.977 19.5566 126.148 19.7246C126.324 19.8926 126.412 20.1016 126.412 20.3516C126.412 20.6016 126.324 20.8105 126.148 20.9785C125.977 21.1465 125.746 21.2305 125.457 21.2305C125.168 21.2305 124.936 21.1465 124.76 20.9785C124.588 20.8105 124.502 20.6016 124.502 20.3516ZM133.496 20.9844V22.4609C133.496 23.1016 133.428 23.6543 133.291 24.1191C133.154 24.5801 132.957 24.959 132.699 25.2559C132.445 25.5488 132.143 25.7656 131.791 25.9062C131.439 26.0469 131.049 26.1172 130.619 26.1172C130.275 26.1172 129.955 26.0742 129.658 25.9883C129.361 25.8984 129.094 25.7598 128.855 25.5723C128.621 25.3848 128.418 25.1484 128.246 24.8633C128.078 24.5742 127.949 24.2305 127.859 23.832C127.77 23.4336 127.725 22.9766 127.725 22.4609V20.9844C127.725 20.3438 127.793 19.7949 127.93 19.3379C128.07 18.877 128.268 18.5 128.521 18.207C128.779 17.9141 129.084 17.6992 129.436 17.5625C129.787 17.4219 130.178 17.3516 130.607 17.3516C130.951 17.3516 131.27 17.3965 131.562 17.4863C131.859 17.5723 132.127 17.707 132.365 17.8906C132.604 18.0742 132.807 18.3105 132.975 18.5996C133.143 18.8848 133.271 19.2266 133.361 19.625C133.451 20.0195 133.496 20.4727 133.496 20.9844ZM131.803 22.6836V20.7559C131.803 20.4473 131.785 20.1777 131.75 19.9473C131.719 19.7168 131.67 19.5215 131.604 19.3613C131.537 19.1973 131.455 19.0645 131.357 18.9629C131.26 18.8613 131.148 18.7871 131.023 18.7402C130.898 18.6934 130.76 18.6699 130.607 18.6699C130.416 18.6699 130.246 18.707 130.098 18.7812C129.953 18.8555 129.83 18.9746 129.729 19.1387C129.627 19.2988 129.549 19.5137 129.494 19.7832C129.443 20.0488 129.418 20.373 129.418 20.7559V22.6836C129.418 22.9922 129.434 23.2637 129.465 23.498C129.5 23.7324 129.551 23.9336 129.617 24.1016C129.688 24.2656 129.77 24.4004 129.863 24.5059C129.961 24.6074 130.072 24.6816 130.197 24.7285C130.326 24.7754 130.467 24.7988 130.619 24.7988C130.807 24.7988 130.973 24.7617 131.117 24.6875C131.266 24.6094 131.391 24.4883 131.492 24.3242C131.598 24.1562 131.676 23.9375 131.727 23.668C131.777 23.3984 131.803 23.0703 131.803 22.6836ZM140.387 20.9844V22.4609C140.387 23.1016 140.318 23.6543 140.182 24.1191C140.045 24.5801 139.848 24.959 139.59 25.2559C139.336 25.5488 139.033 25.7656 138.682 25.9062C138.33 26.0469 137.939 26.1172 137.51 26.1172C137.166 26.1172 136.846 26.0742 136.549 25.9883C136.252 25.8984 135.984 25.7598 135.746 25.5723C135.512 25.3848 135.309 25.1484 135.137 24.8633C134.969 24.5742 134.84 24.2305 134.75 23.832C134.66 23.4336 134.615 22.9766 134.615 22.4609V20.9844C134.615 20.3438 134.684 19.7949 134.82 19.3379C134.961 18.877 135.158 18.5 135.412 18.207C135.67 17.9141 135.975 17.6992 136.326 17.5625C136.678 17.4219 137.068 17.3516 137.498 17.3516C137.842 17.3516 138.16 17.3965 138.453 17.4863C138.75 17.5723 139.018 17.707 139.256 17.8906C139.494 18.0742 139.697 18.3105 139.865 18.5996C140.033 18.8848 140.162 19.2266 140.252 19.625C140.342 20.0195 140.387 20.4727 140.387 20.9844ZM138.693 22.6836V20.7559C138.693 20.4473 138.676 20.1777 138.641 19.9473C138.609 19.7168 138.561 19.5215 138.494 19.3613C138.428 19.1973 138.346 19.0645 138.248 18.9629C138.15 18.8613 138.039 18.7871 137.914 18.7402C137.789 18.6934 137.65 18.6699 137.498 18.6699C137.307 18.6699 137.137 18.707 136.988 18.7812C136.844 18.8555 136.721 18.9746 136.619 19.1387C136.518 19.2988 136.439 19.5137 136.385 19.7832C136.334 20.0488 136.309 20.373 136.309 20.7559V22.6836C136.309 22.9922 136.324 23.2637 136.355 23.498C136.391 23.7324 136.441 23.9336 136.508 24.1016C136.578 24.2656 136.66 24.4004 136.754 24.5059C136.852 24.6074 136.963 24.6816 137.088 24.7285C137.217 24.7754 137.357 24.7988 137.51 24.7988C137.697 24.7988 137.863 24.7617 138.008 24.6875C138.156 24.6094 138.281 24.4883 138.383 24.3242C138.488 24.1562 138.566 23.9375 138.617 23.668C138.668 23.3984 138.693 23.0703 138.693 22.6836Z" fill="black"/>
<path d="M145.016 304.625H149.258C150.128 304.625 150.875 304.755 151.5 305.016C152.13 305.276 152.615 305.661 152.953 306.172C153.292 306.682 153.461 307.31 153.461 308.055C153.461 308.664 153.357 309.188 153.148 309.625C152.945 310.057 152.656 310.419 152.281 310.711C151.911 310.997 151.477 311.227 150.977 311.398L150.234 311.789H146.547L146.531 309.961H149.273C149.685 309.961 150.026 309.888 150.297 309.742C150.568 309.596 150.771 309.393 150.906 309.133C151.047 308.872 151.117 308.57 151.117 308.227C151.117 307.862 151.049 307.547 150.914 307.281C150.779 307.016 150.573 306.812 150.297 306.672C150.021 306.531 149.674 306.461 149.258 306.461H147.359V316H145.016V304.625ZM151.375 316L148.781 310.93L151.258 310.914L153.883 315.891V316H151.375ZM159.016 316.156C158.359 316.156 157.771 316.052 157.25 315.844C156.729 315.63 156.286 315.336 155.922 314.961C155.562 314.586 155.286 314.151 155.094 313.656C154.901 313.156 154.805 312.625 154.805 312.062V311.75C154.805 311.109 154.896 310.523 155.078 309.992C155.26 309.461 155.521 309 155.859 308.609C156.203 308.219 156.62 307.919 157.109 307.711C157.599 307.497 158.151 307.391 158.766 307.391C159.365 307.391 159.896 307.49 160.359 307.688C160.823 307.885 161.211 308.167 161.523 308.531C161.841 308.896 162.081 309.333 162.242 309.844C162.404 310.349 162.484 310.911 162.484 311.531V312.469H155.766V310.969H160.273V310.797C160.273 310.484 160.216 310.206 160.102 309.961C159.992 309.711 159.826 309.513 159.602 309.367C159.378 309.221 159.091 309.148 158.742 309.148C158.445 309.148 158.19 309.214 157.977 309.344C157.763 309.474 157.589 309.656 157.453 309.891C157.323 310.125 157.224 310.401 157.156 310.719C157.094 311.031 157.062 311.375 157.062 311.75V312.062C157.062 312.401 157.109 312.714 157.203 313C157.302 313.286 157.44 313.534 157.617 313.742C157.799 313.951 158.018 314.112 158.273 314.227C158.534 314.341 158.828 314.398 159.156 314.398C159.562 314.398 159.94 314.32 160.289 314.164C160.643 314.003 160.948 313.76 161.203 313.438L162.297 314.625C162.12 314.88 161.878 315.125 161.57 315.359C161.268 315.594 160.904 315.786 160.477 315.938C160.049 316.083 159.562 316.156 159.016 316.156ZM168.328 314.094V310.328C168.328 310.057 168.284 309.826 168.195 309.633C168.107 309.435 167.969 309.281 167.781 309.172C167.599 309.062 167.362 309.008 167.07 309.008C166.82 309.008 166.604 309.052 166.422 309.141C166.24 309.224 166.099 309.346 166 309.508C165.901 309.664 165.852 309.849 165.852 310.062H163.602C163.602 309.703 163.685 309.362 163.852 309.039C164.018 308.716 164.26 308.432 164.578 308.188C164.896 307.938 165.273 307.742 165.711 307.602C166.154 307.461 166.648 307.391 167.195 307.391C167.852 307.391 168.435 307.5 168.945 307.719C169.456 307.938 169.857 308.266 170.148 308.703C170.445 309.141 170.594 309.688 170.594 310.344V313.961C170.594 314.424 170.622 314.805 170.68 315.102C170.737 315.393 170.82 315.648 170.93 315.867V316H168.656C168.547 315.771 168.464 315.484 168.406 315.141C168.354 314.792 168.328 314.443 168.328 314.094ZM168.625 310.852L168.641 312.125H167.383C167.086 312.125 166.828 312.159 166.609 312.227C166.391 312.294 166.211 312.391 166.07 312.516C165.93 312.635 165.826 312.776 165.758 312.938C165.695 313.099 165.664 313.276 165.664 313.469C165.664 313.661 165.708 313.836 165.797 313.992C165.885 314.143 166.013 314.263 166.18 314.352C166.346 314.435 166.542 314.477 166.766 314.477C167.104 314.477 167.398 314.409 167.648 314.273C167.898 314.138 168.091 313.971 168.227 313.773C168.367 313.576 168.44 313.388 168.445 313.211L169.039 314.164C168.956 314.378 168.841 314.599 168.695 314.828C168.555 315.057 168.375 315.273 168.156 315.477C167.938 315.674 167.674 315.839 167.367 315.969C167.06 316.094 166.695 316.156 166.273 316.156C165.737 316.156 165.25 316.049 164.812 315.836C164.38 315.617 164.036 315.318 163.781 314.938C163.531 314.552 163.406 314.115 163.406 313.625C163.406 313.182 163.49 312.789 163.656 312.445C163.823 312.102 164.068 311.812 164.391 311.578C164.719 311.339 165.128 311.159 165.617 311.039C166.107 310.914 166.674 310.852 167.32 310.852H168.625ZM175.82 314.398C176.096 314.398 176.341 314.346 176.555 314.242C176.768 314.133 176.935 313.982 177.055 313.789C177.18 313.591 177.245 313.359 177.25 313.094H179.367C179.362 313.688 179.203 314.216 178.891 314.68C178.578 315.138 178.159 315.5 177.633 315.766C177.107 316.026 176.518 316.156 175.867 316.156C175.211 316.156 174.638 316.047 174.148 315.828C173.664 315.609 173.26 315.307 172.938 314.922C172.615 314.531 172.372 314.078 172.211 313.562C172.049 313.042 171.969 312.484 171.969 311.891V311.664C171.969 311.065 172.049 310.508 172.211 309.992C172.372 309.471 172.615 309.018 172.938 308.633C173.26 308.242 173.664 307.938 174.148 307.719C174.633 307.5 175.201 307.391 175.852 307.391C176.544 307.391 177.151 307.523 177.672 307.789C178.198 308.055 178.609 308.435 178.906 308.93C179.208 309.419 179.362 310 179.367 310.672H177.25C177.245 310.391 177.185 310.135 177.07 309.906C176.961 309.677 176.799 309.495 176.586 309.359C176.378 309.219 176.12 309.148 175.812 309.148C175.484 309.148 175.216 309.219 175.008 309.359C174.799 309.495 174.638 309.682 174.523 309.922C174.409 310.156 174.328 310.424 174.281 310.727C174.24 311.023 174.219 311.336 174.219 311.664V311.891C174.219 312.219 174.24 312.534 174.281 312.836C174.323 313.138 174.401 313.406 174.516 313.641C174.635 313.875 174.799 314.06 175.008 314.195C175.216 314.331 175.487 314.398 175.82 314.398ZM184.812 307.547V309.141H179.891V307.547H184.812ZM181.109 305.461H183.359V313.453C183.359 313.698 183.391 313.885 183.453 314.016C183.521 314.146 183.62 314.237 183.75 314.289C183.88 314.336 184.044 314.359 184.242 314.359C184.383 314.359 184.508 314.354 184.617 314.344C184.732 314.328 184.828 314.312 184.906 314.297L184.914 315.953C184.721 316.016 184.513 316.065 184.289 316.102C184.065 316.138 183.818 316.156 183.547 316.156C183.052 316.156 182.62 316.076 182.25 315.914C181.885 315.747 181.604 315.482 181.406 315.117C181.208 314.753 181.109 314.273 181.109 313.68V305.461ZM197.438 309.664V311.625H189.641V309.664H197.438ZM194.609 306.578V314.859H192.477V306.578H194.609ZM208.844 313.023C208.844 312.82 208.812 312.638 208.75 312.477C208.693 312.31 208.583 312.159 208.422 312.023C208.26 311.883 208.034 311.745 207.742 311.609C207.451 311.474 207.073 311.333 206.609 311.188C206.094 311.021 205.604 310.833 205.141 310.625C204.682 310.417 204.276 310.174 203.922 309.898C203.573 309.617 203.297 309.292 203.094 308.922C202.896 308.552 202.797 308.122 202.797 307.633C202.797 307.159 202.901 306.729 203.109 306.344C203.318 305.953 203.609 305.62 203.984 305.344C204.359 305.062 204.802 304.846 205.312 304.695C205.828 304.544 206.393 304.469 207.008 304.469C207.846 304.469 208.578 304.62 209.203 304.922C209.828 305.224 210.312 305.638 210.656 306.164C211.005 306.69 211.18 307.292 211.18 307.969H208.852C208.852 307.635 208.781 307.344 208.641 307.094C208.505 306.839 208.297 306.638 208.016 306.492C207.74 306.346 207.391 306.273 206.969 306.273C206.562 306.273 206.224 306.336 205.953 306.461C205.682 306.581 205.479 306.745 205.344 306.953C205.208 307.156 205.141 307.385 205.141 307.641C205.141 307.833 205.188 308.008 205.281 308.164C205.38 308.32 205.526 308.466 205.719 308.602C205.911 308.737 206.148 308.865 206.43 308.984C206.711 309.104 207.036 309.221 207.406 309.336C208.026 309.523 208.57 309.734 209.039 309.969C209.513 310.203 209.909 310.466 210.227 310.758C210.544 311.049 210.784 311.38 210.945 311.75C211.107 312.12 211.188 312.539 211.188 313.008C211.188 313.503 211.091 313.945 210.898 314.336C210.706 314.727 210.427 315.057 210.062 315.328C209.698 315.599 209.263 315.805 208.758 315.945C208.253 316.086 207.688 316.156 207.062 316.156C206.5 316.156 205.945 316.083 205.398 315.938C204.852 315.786 204.354 315.56 203.906 315.258C203.464 314.956 203.109 314.57 202.844 314.102C202.578 313.633 202.445 313.078 202.445 312.438H204.797C204.797 312.792 204.852 313.091 204.961 313.336C205.07 313.581 205.224 313.779 205.422 313.93C205.625 314.081 205.865 314.19 206.141 314.258C206.422 314.326 206.729 314.359 207.062 314.359C207.469 314.359 207.802 314.302 208.062 314.188C208.328 314.073 208.523 313.914 208.648 313.711C208.779 313.508 208.844 313.279 208.844 313.023ZM219.375 312.227H221.711C221.664 312.992 221.453 313.672 221.078 314.266C220.708 314.859 220.19 315.323 219.523 315.656C218.862 315.99 218.065 316.156 217.133 316.156C216.404 316.156 215.75 316.031 215.172 315.781C214.594 315.526 214.099 315.161 213.688 314.688C213.281 314.214 212.971 313.641 212.758 312.969C212.544 312.297 212.438 311.544 212.438 310.711V309.922C212.438 309.089 212.547 308.336 212.766 307.664C212.99 306.987 213.307 306.411 213.719 305.938C214.135 305.464 214.633 305.099 215.211 304.844C215.789 304.589 216.435 304.461 217.148 304.461C218.096 304.461 218.896 304.633 219.547 304.977C220.203 305.32 220.711 305.794 221.07 306.398C221.435 307.003 221.654 307.69 221.727 308.461H219.383C219.357 308.003 219.266 307.615 219.109 307.297C218.953 306.974 218.716 306.732 218.398 306.57C218.086 306.404 217.669 306.32 217.148 306.32C216.758 306.32 216.417 306.393 216.125 306.539C215.833 306.685 215.589 306.906 215.391 307.203C215.193 307.5 215.044 307.875 214.945 308.328C214.852 308.776 214.805 309.302 214.805 309.906V310.711C214.805 311.299 214.849 311.818 214.938 312.266C215.026 312.708 215.161 313.083 215.344 313.391C215.531 313.693 215.771 313.922 216.062 314.078C216.359 314.229 216.716 314.305 217.133 314.305C217.622 314.305 218.026 314.227 218.344 314.07C218.661 313.914 218.904 313.682 219.07 313.375C219.242 313.068 219.344 312.685 219.375 312.227ZM229.172 313.023C229.172 312.82 229.141 312.638 229.078 312.477C229.021 312.31 228.911 312.159 228.75 312.023C228.589 311.883 228.362 311.745 228.07 311.609C227.779 311.474 227.401 311.333 226.938 311.188C226.422 311.021 225.932 310.833 225.469 310.625C225.01 310.417 224.604 310.174 224.25 309.898C223.901 309.617 223.625 309.292 223.422 308.922C223.224 308.552 223.125 308.122 223.125 307.633C223.125 307.159 223.229 306.729 223.438 306.344C223.646 305.953 223.938 305.62 224.312 305.344C224.688 305.062 225.13 304.846 225.641 304.695C226.156 304.544 226.721 304.469 227.336 304.469C228.174 304.469 228.906 304.62 229.531 304.922C230.156 305.224 230.641 305.638 230.984 306.164C231.333 306.69 231.508 307.292 231.508 307.969H229.18C229.18 307.635 229.109 307.344 228.969 307.094C228.833 306.839 228.625 306.638 228.344 306.492C228.068 306.346 227.719 306.273 227.297 306.273C226.891 306.273 226.552 306.336 226.281 306.461C226.01 306.581 225.807 306.745 225.672 306.953C225.536 307.156 225.469 307.385 225.469 307.641C225.469 307.833 225.516 308.008 225.609 308.164C225.708 308.32 225.854 308.466 226.047 308.602C226.24 308.737 226.477 308.865 226.758 308.984C227.039 309.104 227.365 309.221 227.734 309.336C228.354 309.523 228.898 309.734 229.367 309.969C229.841 310.203 230.237 310.466 230.555 310.758C230.872 311.049 231.112 311.38 231.273 311.75C231.435 312.12 231.516 312.539 231.516 313.008C231.516 313.503 231.419 313.945 231.227 314.336C231.034 314.727 230.755 315.057 230.391 315.328C230.026 315.599 229.591 315.805 229.086 315.945C228.581 316.086 228.016 316.156 227.391 316.156C226.828 316.156 226.273 316.083 225.727 315.938C225.18 315.786 224.682 315.56 224.234 315.258C223.792 314.956 223.438 314.57 223.172 314.102C222.906 313.633 222.773 313.078 222.773 312.438H225.125C225.125 312.792 225.18 313.091 225.289 313.336C225.398 313.581 225.552 313.779 225.75 313.93C225.953 314.081 226.193 314.19 226.469 314.258C226.75 314.326 227.057 314.359 227.391 314.359C227.797 314.359 228.13 314.302 228.391 314.188C228.656 314.073 228.852 313.914 228.977 313.711C229.107 313.508 229.172 313.279 229.172 313.023ZM239.031 313.023C239.031 312.82 239 312.638 238.938 312.477C238.88 312.31 238.771 312.159 238.609 312.023C238.448 311.883 238.221 311.745 237.93 311.609C237.638 311.474 237.26 311.333 236.797 311.188C236.281 311.021 235.792 310.833 235.328 310.625C234.87 310.417 234.464 310.174 234.109 309.898C233.76 309.617 233.484 309.292 233.281 308.922C233.083 308.552 232.984 308.122 232.984 307.633C232.984 307.159 233.089 306.729 233.297 306.344C233.505 305.953 233.797 305.62 234.172 305.344C234.547 305.062 234.99 304.846 235.5 304.695C236.016 304.544 236.581 304.469 237.195 304.469C238.034 304.469 238.766 304.62 239.391 304.922C240.016 305.224 240.5 305.638 240.844 306.164C241.193 306.69 241.367 307.292 241.367 307.969H239.039C239.039 307.635 238.969 307.344 238.828 307.094C238.693 306.839 238.484 306.638 238.203 306.492C237.927 306.346 237.578 306.273 237.156 306.273C236.75 306.273 236.411 306.336 236.141 306.461C235.87 306.581 235.667 306.745 235.531 306.953C235.396 307.156 235.328 307.385 235.328 307.641C235.328 307.833 235.375 308.008 235.469 308.164C235.568 308.32 235.714 308.466 235.906 308.602C236.099 308.737 236.336 308.865 236.617 308.984C236.898 309.104 237.224 309.221 237.594 309.336C238.214 309.523 238.758 309.734 239.227 309.969C239.701 310.203 240.096 310.466 240.414 310.758C240.732 311.049 240.971 311.38 241.133 311.75C241.294 312.12 241.375 312.539 241.375 313.008C241.375 313.503 241.279 313.945 241.086 314.336C240.893 314.727 240.615 315.057 240.25 315.328C239.885 315.599 239.451 315.805 238.945 315.945C238.44 316.086 237.875 316.156 237.25 316.156C236.688 316.156 236.133 316.083 235.586 315.938C235.039 315.786 234.542 315.56 234.094 315.258C233.651 314.956 233.297 314.57 233.031 314.102C232.766 313.633 232.633 313.078 232.633 312.438H234.984C234.984 312.792 235.039 313.091 235.148 313.336C235.258 313.581 235.411 313.779 235.609 313.93C235.812 314.081 236.052 314.19 236.328 314.258C236.609 314.326 236.917 314.359 237.25 314.359C237.656 314.359 237.99 314.302 238.25 314.188C238.516 314.073 238.711 313.914 238.836 313.711C238.966 313.508 239.031 313.279 239.031 313.023ZM254.172 309.664V311.625H246.375V309.664H254.172ZM251.344 306.578V314.859H249.211V306.578H251.344ZM268.672 310.055V314.562C268.495 314.776 268.221 315.008 267.852 315.258C267.482 315.503 267.005 315.714 266.422 315.891C265.839 316.068 265.133 316.156 264.305 316.156C263.57 316.156 262.901 316.036 262.297 315.797C261.693 315.552 261.172 315.195 260.734 314.727C260.302 314.258 259.969 313.685 259.734 313.008C259.5 312.326 259.383 311.547 259.383 310.672V309.961C259.383 309.086 259.495 308.307 259.719 307.625C259.948 306.943 260.273 306.367 260.695 305.898C261.117 305.43 261.62 305.073 262.203 304.828C262.786 304.583 263.435 304.461 264.148 304.461C265.138 304.461 265.951 304.622 266.586 304.945C267.221 305.263 267.706 305.706 268.039 306.273C268.378 306.836 268.586 307.482 268.664 308.211H266.391C266.333 307.826 266.224 307.49 266.062 307.203C265.901 306.917 265.669 306.693 265.367 306.531C265.07 306.37 264.685 306.289 264.211 306.289C263.82 306.289 263.471 306.37 263.164 306.531C262.862 306.688 262.607 306.919 262.398 307.227C262.19 307.534 262.031 307.914 261.922 308.367C261.812 308.82 261.758 309.346 261.758 309.945V310.672C261.758 311.266 261.815 311.792 261.93 312.25C262.044 312.703 262.214 313.086 262.438 313.398C262.667 313.706 262.948 313.938 263.281 314.094C263.615 314.25 264.003 314.328 264.445 314.328C264.815 314.328 265.122 314.297 265.367 314.234C265.617 314.172 265.818 314.096 265.969 314.008C266.125 313.914 266.245 313.826 266.328 313.742V311.727H264.188V310.055H268.672ZM275.422 313.977V307.547H277.672V316H275.555L275.422 313.977ZM275.672 312.242L276.336 312.227C276.336 312.789 276.271 313.312 276.141 313.797C276.01 314.276 275.815 314.693 275.555 315.047C275.294 315.396 274.966 315.669 274.57 315.867C274.174 316.06 273.708 316.156 273.172 316.156C272.76 316.156 272.38 316.099 272.031 315.984C271.688 315.865 271.391 315.68 271.141 315.43C270.896 315.174 270.703 314.849 270.562 314.453C270.427 314.052 270.359 313.57 270.359 313.008V307.547H272.609V313.023C272.609 313.273 272.638 313.484 272.695 313.656C272.758 313.828 272.844 313.969 272.953 314.078C273.062 314.188 273.19 314.266 273.336 314.312C273.487 314.359 273.654 314.383 273.836 314.383C274.299 314.383 274.664 314.289 274.93 314.102C275.201 313.914 275.391 313.659 275.5 313.336C275.615 313.008 275.672 312.643 275.672 312.242ZM281.766 304V316H279.508V304H281.766ZM285.875 309.172V319.25H283.625V307.547H285.711L285.875 309.172ZM291.227 311.68V311.844C291.227 312.458 291.154 313.029 291.008 313.555C290.867 314.081 290.659 314.539 290.383 314.93C290.107 315.315 289.763 315.617 289.352 315.836C288.945 316.049 288.477 316.156 287.945 316.156C287.43 316.156 286.982 316.052 286.602 315.844C286.221 315.635 285.901 315.344 285.641 314.969C285.385 314.589 285.18 314.148 285.023 313.648C284.867 313.148 284.747 312.612 284.664 312.039V311.609C284.747 310.995 284.867 310.432 285.023 309.922C285.18 309.406 285.385 308.961 285.641 308.586C285.901 308.206 286.219 307.911 286.594 307.703C286.974 307.495 287.419 307.391 287.93 307.391C288.466 307.391 288.938 307.492 289.344 307.695C289.755 307.898 290.099 308.19 290.375 308.57C290.656 308.951 290.867 309.404 291.008 309.93C291.154 310.456 291.227 311.039 291.227 311.68ZM288.969 311.844V311.68C288.969 311.32 288.938 310.99 288.875 310.688C288.818 310.38 288.724 310.112 288.594 309.883C288.469 309.654 288.302 309.477 288.094 309.352C287.891 309.221 287.643 309.156 287.352 309.156C287.044 309.156 286.781 309.206 286.562 309.305C286.349 309.404 286.174 309.547 286.039 309.734C285.904 309.922 285.802 310.146 285.734 310.406C285.667 310.667 285.625 310.961 285.609 311.289V312.375C285.635 312.76 285.708 313.107 285.828 313.414C285.948 313.716 286.133 313.956 286.383 314.133C286.633 314.31 286.961 314.398 287.367 314.398C287.664 314.398 287.914 314.333 288.117 314.203C288.32 314.068 288.484 313.883 288.609 313.648C288.74 313.414 288.831 313.143 288.883 312.836C288.94 312.529 288.969 312.198 288.969 311.844Z" fill="black"/>
</g>
<defs>
<clipPath id="clip0_48_20">
<rect width="463" height="554" fill="white"/>
</clipPath>
</defs>
</svg>
