<svg width="85" height="84" viewBox="0 0 85 84" fill="none" xmlns="http://www.w3.org/2000/svg">
<path fill-rule="evenodd" clip-rule="evenodd" d="M0.202209 63.345L28.0614 70.0325C28.9638 66.2733 26.6479 62.4943 22.8887 61.5919L13.6256 59.3683L20.1828 52.458C22.8439 49.6537 22.7278 45.223 19.9234 42.5619L0.202209 63.345ZM40.0924 21.3069C42.8968 23.968 47.3274 23.8519 49.9885 21.0475L56.5458 14.1372L59.2516 23.2711C60.3498 26.9779 64.2449 29.0926 67.9516 27.9945L59.8136 0.523926L40.0924 21.3069ZM76.2745 56.0889C72.5677 57.187 70.453 61.0821 71.5511 64.7888L74.257 73.9228L64.9939 71.6992C61.2346 70.7968 57.4557 73.1127 56.5533 76.8719L84.4125 83.5594L76.2745 56.0889Z" fill="#97209A"/>
</svg>
