<svg width="117" height="39" viewBox="0 0 117 39" fill="none" xmlns="http://www.w3.org/2000/svg">
<path d="M3.77131 19H0.475852L5.49716 4.45455H9.46023L14.4744 19H11.179L7.53551 7.77841H7.42188L3.77131 19ZM3.56534 13.2827H11.3494V15.6832H3.56534V13.2827ZM19.1939 12.6932V19H16.1683V8.09091H19.0518V10.0156H19.1797C19.4212 9.38116 19.826 8.87926 20.3942 8.50994C20.9624 8.13589 21.6513 7.94886 22.4609 7.94886C23.2185 7.94886 23.879 8.11458 24.4425 8.44602C25.0059 8.77746 25.4439 9.25095 25.7564 9.86648C26.0689 10.4773 26.2251 11.2064 26.2251 12.054V19H23.1996V12.5938C23.2043 11.9261 23.0339 11.4053 22.6882 11.0312C22.3426 10.6525 21.8667 10.4631 21.2607 10.4631C20.8535 10.4631 20.4936 10.5507 20.1811 10.7259C19.8733 10.901 19.6319 11.1567 19.4567 11.4929C19.2862 11.8243 19.1986 12.2244 19.1939 12.6932ZM34.4123 8.09091V10.3636H27.8427V8.09091H34.4123ZM29.3342 5.47727H32.3597V15.6477C32.3597 15.9271 32.4023 16.1449 32.4876 16.3011C32.5728 16.4527 32.6912 16.5592 32.8427 16.6207C32.9989 16.6823 33.1789 16.7131 33.3825 16.7131C33.5245 16.7131 33.6665 16.7012 33.8086 16.6776C33.9506 16.6491 34.0595 16.6278 34.1353 16.6136L34.6112 18.8651C34.4596 18.9124 34.2466 18.9669 33.9719 19.0284C33.6973 19.0947 33.3635 19.1349 32.9705 19.1491C32.2414 19.1776 31.6022 19.0805 31.0529 18.858C30.5084 18.6354 30.0846 18.2898 29.7816 17.821C29.4786 17.3523 29.3294 16.7604 29.3342 16.0455V5.47727ZM41.195 19.2131C40.0917 19.2131 39.1377 18.9787 38.3327 18.5099C37.5326 18.0365 36.9147 17.3783 36.479 16.5355C36.0434 15.688 35.8256 14.7055 35.8256 13.5881C35.8256 12.4612 36.0434 11.4763 36.479 10.6335C36.9147 9.78598 37.5326 9.12784 38.3327 8.65909C39.1377 8.18561 40.0917 7.94886 41.195 7.94886C42.2982 7.94886 43.2499 8.18561 44.0501 8.65909C44.855 9.12784 45.4753 9.78598 45.9109 10.6335C46.3465 11.4763 46.5643 12.4612 46.5643 13.5881C46.5643 14.7055 46.3465 15.688 45.9109 16.5355C45.4753 17.3783 44.855 18.0365 44.0501 18.5099C43.2499 18.9787 42.2982 19.2131 41.195 19.2131ZM41.2092 16.8693C41.7111 16.8693 42.1301 16.7273 42.4663 16.4432C42.8024 16.1544 43.0558 15.7614 43.2262 15.2642C43.4014 14.767 43.489 14.2012 43.489 13.5668C43.489 12.9323 43.4014 12.3665 43.2262 11.8693C43.0558 11.3722 42.8024 10.9792 42.4663 10.6903C42.1301 10.4015 41.7111 10.2571 41.2092 10.2571C40.7025 10.2571 40.2764 10.4015 39.9308 10.6903C39.5898 10.9792 39.3318 11.3722 39.1566 11.8693C38.9862 12.3665 38.9009 12.9323 38.9009 13.5668C38.9009 14.2012 38.9862 14.767 39.1566 15.2642C39.3318 15.7614 39.5898 16.1544 39.9308 16.4432C40.2764 16.7273 40.7025 16.8693 41.2092 16.8693ZM51.5572 12.6932V19H48.5316V8.09091H51.4151V10.0156H51.543C51.7844 9.38116 52.1893 8.87926 52.7575 8.50994C53.3256 8.13589 54.0146 7.94886 54.8242 7.94886C55.5818 7.94886 56.2423 8.11458 56.8058 8.44602C57.3692 8.77746 57.8072 9.25095 58.1197 9.86648C58.4322 10.4773 58.5884 11.2064 58.5884 12.054V19H55.5629V12.5938C55.5676 11.9261 55.3971 11.4053 55.0515 11.0312C54.7058 10.6525 54.23 10.4631 53.6239 10.4631C53.2167 10.4631 52.8569 10.5507 52.5444 10.7259C52.2366 10.901 51.9951 11.1567 51.82 11.4929C51.6495 11.8243 51.5619 12.2244 51.5572 12.6932ZM64.1051 4.45455V19H61.0298V4.45455H64.1051ZM66.0813 6.99006V4.45455H78.0273V6.99006H73.5742V19H70.5344V6.99006H66.0813ZM85.1509 19H79.9947V4.45455H85.1935C86.6566 4.45455 87.9161 4.74574 88.9719 5.32812C90.0278 5.90578 90.8398 6.73674 91.408 7.82102C91.9809 8.9053 92.2674 10.2027 92.2674 11.7131C92.2674 13.2282 91.9809 14.5303 91.408 15.6193C90.8398 16.7083 90.0231 17.544 88.9577 18.1264C87.8971 18.7088 86.6282 19 85.1509 19ZM83.07 16.3651H85.0231C85.9322 16.3651 86.6969 16.2041 87.3171 15.8821C87.9421 15.5554 88.4109 15.0511 88.7234 14.3693C89.0406 13.6828 89.1992 12.7973 89.1992 11.7131C89.1992 10.6383 89.0406 9.75994 88.7234 9.07812C88.4109 8.39631 87.9445 7.89441 87.3242 7.57244C86.704 7.25047 85.9393 7.08949 85.0302 7.08949H83.07V16.3651ZM99.4602 19.2131C98.3381 19.2131 97.3722 18.9858 96.5625 18.5312C95.7576 18.072 95.1373 17.4233 94.7017 16.5852C94.2661 15.7424 94.0483 14.7457 94.0483 13.5952C94.0483 12.473 94.2661 11.4882 94.7017 10.6406C95.1373 9.79309 95.7505 9.13258 96.5412 8.65909C97.3366 8.18561 98.2694 7.94886 99.3395 7.94886C100.059 7.94886 100.729 8.06487 101.349 8.29688C101.974 8.52415 102.519 8.86742 102.983 9.3267C103.452 9.78598 103.816 10.3636 104.077 11.0597C104.337 11.7509 104.467 12.5606 104.467 13.4886V14.3196H95.2557V12.4446H101.619C101.619 12.009 101.525 11.6231 101.335 11.2869C101.146 10.9508 100.883 10.688 100.547 10.4986C100.215 10.3045 99.8295 10.2074 99.3892 10.2074C98.9299 10.2074 98.5227 10.3139 98.1676 10.527C97.8172 10.7353 97.5426 11.017 97.3438 11.3722C97.1449 11.7225 97.0431 12.1132 97.0384 12.544V14.3267C97.0384 14.8665 97.1378 15.3329 97.3366 15.7259C97.5402 16.1188 97.8267 16.4219 98.196 16.6349C98.5653 16.848 99.0033 16.9545 99.5099 16.9545C99.8461 16.9545 100.154 16.9072 100.433 16.8125C100.713 16.7178 100.952 16.5758 101.151 16.3864C101.349 16.197 101.501 15.965 101.605 15.6903L104.403 15.875C104.261 16.5473 103.97 17.1345 103.53 17.6364C103.094 18.1335 102.531 18.5218 101.839 18.8011C101.153 19.0758 100.36 19.2131 99.4602 19.2131ZM116.319 8.09091L112.505 19H109.096L105.282 8.09091H108.478L110.744 15.8963H110.858L113.116 8.09091H116.319Z" fill="#E1E1E1"/>
<path d="M2.60369 27.2727V36H0.758523V27.2727H2.60369ZM3.78942 28.794V27.2727H10.957V28.794H8.28516V36H6.46129V28.794H3.78942ZM15.5721 31.696V33.1364H11.592V31.696H15.5721ZM20.0763 36.1278C19.4059 36.1278 18.8292 35.9858 18.3462 35.7017C17.8661 35.4148 17.4968 35.017 17.2383 34.5085C16.9826 34 16.8548 33.4148 16.8548 32.7528C16.8548 32.0824 16.984 31.4943 17.2425 30.9886C17.5039 30.4801 17.8746 30.0838 18.3548 29.7997C18.8349 29.5128 19.4059 29.3693 20.0678 29.3693C20.6388 29.3693 21.1388 29.473 21.5678 29.6804C21.9968 29.8878 22.3363 30.179 22.5863 30.554C22.8363 30.929 22.9741 31.3693 22.9996 31.875H21.2866C21.2383 31.5483 21.1104 31.2855 20.9031 31.0866C20.6985 30.8849 20.43 30.7841 20.0977 30.7841C19.8164 30.7841 19.5707 30.8608 19.3604 31.0142C19.1531 31.1648 18.9911 31.3849 18.8746 31.6747C18.7582 31.9645 18.6999 32.3153 18.6999 32.7273C18.6999 33.1449 18.7567 33.5 18.8704 33.7926C18.9869 34.0852 19.1502 34.3082 19.3604 34.4616C19.5707 34.6151 19.8164 34.6918 20.0977 34.6918C20.305 34.6918 20.4911 34.6491 20.6559 34.5639C20.8235 34.4787 20.9613 34.3551 21.0692 34.1932C21.18 34.0284 21.2525 33.831 21.2866 33.6009H22.9996C22.9712 34.1009 22.8349 34.5412 22.5906 34.9219C22.3491 35.2997 22.0153 35.5952 21.5891 35.8082C21.163 36.0213 20.6587 36.1278 20.0763 36.1278ZM24.1619 36V29.4545H29.8849V36H28.1506V30.8821H25.875V36H24.1619ZM34.3168 36.1278C33.6435 36.1278 33.0639 35.9915 32.5781 35.7188C32.0952 35.4432 31.723 35.054 31.4616 34.5511C31.2003 34.0455 31.0696 33.4474 31.0696 32.7571C31.0696 32.0838 31.2003 31.4929 31.4616 30.9844C31.723 30.4759 32.0909 30.0795 32.5653 29.7955C33.0426 29.5114 33.6023 29.3693 34.2443 29.3693C34.6761 29.3693 35.0781 29.4389 35.4503 29.5781C35.8253 29.7145 36.152 29.9205 36.4304 30.196C36.7116 30.4716 36.9304 30.8182 37.0866 31.2358C37.2429 31.6506 37.321 32.1364 37.321 32.6932V33.1918H31.794V32.0668H35.6122C35.6122 31.8054 35.5554 31.5739 35.4418 31.3722C35.3281 31.1705 35.1705 31.0128 34.9688 30.8991C34.7699 30.7827 34.5384 30.7244 34.2741 30.7244C33.9986 30.7244 33.7543 30.7884 33.5412 30.9162C33.331 31.0412 33.1662 31.2102 33.0469 31.4233C32.9276 31.6335 32.8665 31.8679 32.8636 32.1264V33.196C32.8636 33.5199 32.9233 33.7997 33.0426 34.0355C33.1648 34.2713 33.3366 34.4531 33.5582 34.581C33.7798 34.7088 34.0426 34.7727 34.3466 34.7727C34.5483 34.7727 34.733 34.7443 34.9006 34.6875C35.0682 34.6307 35.2116 34.5455 35.331 34.4318C35.4503 34.3182 35.5412 34.179 35.6037 34.0142L37.2827 34.125C37.1974 34.5284 37.0227 34.8807 36.7585 35.1818C36.4972 35.4801 36.1591 35.7131 35.7443 35.8807C35.3324 36.0455 34.8565 36.1278 34.3168 36.1278ZM44.2287 29.4545V34.7472H45.2727V38.1051H43.5085V36H38.5057V29.4545H40.2401V34.5724H42.5156V29.4545H44.2287ZM48.1268 33.6051L50.4833 29.4545H52.2731V36H50.543V31.8366L48.195 36H46.3924V29.4545H48.1268V33.6051ZM55.5948 36.1236C55.1772 36.1236 54.805 36.0511 54.4783 35.9062C54.1516 35.7585 53.8931 35.5412 53.7028 35.2543C53.5153 34.9645 53.4215 34.6037 53.4215 34.1719C53.4215 33.8082 53.4883 33.5028 53.6218 33.2557C53.7553 33.0085 53.9371 32.8097 54.1673 32.6591C54.3974 32.5085 54.6587 32.3949 54.9513 32.3182C55.2468 32.2415 55.5565 32.1875 55.8803 32.1562C56.261 32.1165 56.5678 32.0795 56.8008 32.0455C57.0337 32.0085 57.2028 31.9545 57.3079 31.8835C57.413 31.8125 57.4656 31.7074 57.4656 31.5682V31.5426C57.4656 31.2727 57.3803 31.0639 57.2099 30.9162C57.0423 30.7685 56.8036 30.6946 56.494 30.6946C56.1673 30.6946 55.9073 30.767 55.7141 30.9119C55.521 31.054 55.3931 31.233 55.3306 31.4489L53.6516 31.3125C53.7369 30.9148 53.9045 30.571 54.1545 30.2812C54.4045 29.9886 54.7269 29.7642 55.1218 29.608C55.5195 29.4489 55.9798 29.3693 56.5025 29.3693C56.8661 29.3693 57.2141 29.4119 57.5465 29.4972C57.8817 29.5824 58.1786 29.7145 58.4371 29.8935C58.6985 30.0724 58.9045 30.3026 59.055 30.5838C59.2056 30.8622 59.2809 31.196 59.2809 31.5852V36H57.5593V35.0923H57.5082C57.4031 35.2969 57.2624 35.4773 57.0863 35.6335C56.9102 35.7869 56.6985 35.9077 56.4513 35.9957C56.2042 36.081 55.9187 36.1236 55.5948 36.1236ZM56.1147 34.8707C56.3817 34.8707 56.6175 34.8182 56.8221 34.7131C57.0266 34.6051 57.1871 34.4602 57.3036 34.2784C57.4201 34.0966 57.4783 33.8906 57.4783 33.6605V32.9659C57.4215 33.0028 57.3434 33.0369 57.244 33.0682C57.1474 33.0966 57.038 33.1236 56.9158 33.1491C56.7937 33.1719 56.6715 33.1932 56.5494 33.2131C56.4272 33.2301 56.3164 33.2457 56.217 33.2599C56.0039 33.2912 55.8178 33.3409 55.6587 33.4091C55.4996 33.4773 55.3761 33.5696 55.288 33.6861C55.1999 33.7997 55.1559 33.9418 55.1559 34.1122C55.1559 34.3594 55.2454 34.5483 55.4244 34.679C55.6062 34.8068 55.8363 34.8707 56.1147 34.8707ZM60.3058 36L60.2972 34.5597H60.5146C60.668 34.5597 60.8001 34.5227 60.9109 34.4489C61.0245 34.3722 61.1183 34.2486 61.1921 34.0781C61.266 33.9077 61.3242 33.6818 61.3668 33.4006C61.4094 33.1165 61.4379 32.767 61.4521 32.3523L61.5586 29.4545H66.5359V36H64.8058V30.8821H63.1907L63.0884 32.8807C63.0629 33.429 62.9961 33.9006 62.8881 34.2955C62.783 34.6903 62.6367 35.0142 62.4492 35.267C62.2617 35.517 62.0359 35.7017 61.7717 35.821C61.5075 35.9403 61.2006 36 60.8512 36H60.3058ZM69.6776 33.6051L72.0341 29.4545H73.8239V36H72.0938V31.8366L69.7457 36H67.9432V29.4545H69.6776V33.6051ZM78.2365 36.1278C77.5661 36.1278 76.9893 35.9858 76.5064 35.7017C76.0263 35.4148 75.657 35.017 75.3984 34.5085C75.1428 34 75.0149 33.4148 75.0149 32.7528C75.0149 32.0824 75.1442 31.4943 75.4027 30.9886C75.6641 30.4801 76.0348 30.0838 76.5149 29.7997C76.995 29.5128 77.5661 29.3693 78.228 29.3693C78.799 29.3693 79.299 29.473 79.728 29.6804C80.157 29.8878 80.4964 30.179 80.7464 30.554C80.9964 30.929 81.1342 31.3693 81.1598 31.875H79.4467C79.3984 31.5483 79.2706 31.2855 79.0632 31.0866C78.8587 30.8849 78.5902 30.7841 78.2578 30.7841C77.9766 30.7841 77.7308 30.8608 77.5206 31.0142C77.3132 31.1648 77.1513 31.3849 77.0348 31.6747C76.9183 31.9645 76.8601 32.3153 76.8601 32.7273C76.8601 33.1449 76.9169 33.5 77.0305 33.7926C77.147 34.0852 77.3104 34.3082 77.5206 34.4616C77.7308 34.6151 77.9766 34.6918 78.2578 34.6918C78.4652 34.6918 78.6513 34.6491 78.8161 34.5639C78.9837 34.4787 79.1214 34.3551 79.2294 34.1932C79.3402 34.0284 79.4126 33.831 79.4467 33.6009H81.1598C81.1314 34.1009 80.995 34.5412 80.7507 34.9219C80.5092 35.2997 80.1754 35.5952 79.7493 35.8082C79.3232 36.0213 78.8189 36.1278 78.2365 36.1278ZM81.8757 30.8821V29.4545H87.8075V30.8821H85.6982V36H83.968V30.8821H81.8757Z" fill="#929292"/>
</svg>
