<svg width="20" height="24" viewBox="0 0 20 24" fill="none" xmlns="http://www.w3.org/2000/svg">
<g clip-path="url(#clip0_3_112)">
<path d="M10.4841 4.61115C11.2756 4.80171 12.003 5.2794 12.5732 5.98308C13.1434 6.68676 13.5305 7.58441 13.6849 8.56114M10.4841 0.611145C12.1285 0.836581 13.6619 1.74532 14.8325 3.18815C16.0032 4.63099 16.7415 6.52215 16.9262 8.55114M16.1159 16.5311V19.5311C16.1168 19.8096 16.0706 20.0853 15.9802 20.3405C15.8898 20.5957 15.7572 20.8247 15.5909 21.013C15.4246 21.2013 15.2282 21.3446 15.0145 21.4339C14.8007 21.5231 14.5741 21.5562 14.3494 21.5311C11.8559 21.1968 9.46067 20.1453 7.35625 18.4611C5.39836 16.9258 3.73841 14.8773 2.49428 12.4611C1.12481 9.85235 0.272562 6.88214 0.00657719 3.79114C-0.0136725 3.51461 0.0129585 3.23591 0.0847741 2.97277C0.15659 2.70963 0.272017 2.46783 0.423706 2.26277C0.575396 2.0577 0.760024 1.89385 0.965836 1.78167C1.17165 1.66948 1.39413 1.61141 1.61913 1.61115H4.05011C4.44337 1.60637 4.82462 1.77822 5.12279 2.09468C5.42097 2.41113 5.61573 2.85059 5.67077 3.33115C5.77337 4.29121 5.96366 5.23387 6.238 6.14115C6.34702 6.49907 6.37062 6.88806 6.30599 7.26203C6.24136 7.63599 6.09122 7.97926 5.87335 8.25115L4.84423 9.52114C5.99778 12.0247 7.67751 14.0976 9.7062 15.5211L10.7353 14.2511C10.9556 13.9823 11.2338 13.797 11.5368 13.7172C11.8399 13.6375 12.1551 13.6666 12.4451 13.8011C13.1803 14.1397 13.9442 14.3745 14.7221 14.5011C15.1158 14.5697 15.4752 14.8144 15.7322 15.1886C15.9892 15.5629 16.1257 16.0407 16.1159 16.5311Z" stroke="white" stroke-width="2" stroke-linecap="round" stroke-linejoin="round"/>
</g>
<defs>
<clipPath id="clip0_3_112">
<rect width="19.4479" height="24" fill="white"/>
</clipPath>
</defs>
</svg>
