<svg width="36" height="36" viewBox="0 0 36 36" fill="none" xmlns="http://www.w3.org/2000/svg">
<rect width="36" height="36" fill="black"/>
<path d="M8.97389 7.33333V34H6.15891V7.33333H8.97389Z" fill="#00F0FF"/>
<path d="M2 5.4375V2H22.9217V5.4375H14.1498V34H10.7719V5.4375H2Z" fill="#00F0FF"/>
<path d="M22.9217 34H15.748V7.33333H23.2395C25.4945 7.33333 27.4241 7.86719 29.0284 8.9349C30.6326 9.99392 31.8623 11.5174 32.7174 13.5052C33.5725 15.4844 34 17.8542 34 20.6146C34 23.3924 33.5687 25.7839 32.706 27.7891C31.8434 29.7856 30.5872 31.322 28.9376 32.3984C27.2879 33.4661 25.2826 34 22.9217 34ZM18.563 31.1354H22.7401C24.6621 31.1354 26.255 30.7101 27.5187 29.8594C28.7824 29.0087 29.7246 27.7977 30.3451 26.2266C30.9656 24.6554 31.2758 22.7847 31.2758 20.6146C31.2758 18.4618 30.9694 16.6085 30.3564 15.0547C29.7435 13.4922 28.8278 12.2943 27.6095 11.4609C26.3912 10.6189 24.874 10.1979 23.0579 10.1979H18.563V31.1354Z" fill="#00F0FF"/>
</svg>
